NewsreaderDisplay-BoldItalic.ufo
<glyph name="exclam" format="2">
	<unicode hex="0021"/>
	<advance width="584.112"/>
	<outline>
		<contour>
			<point x="729.016" y="1281.792" type="line" smooth="yes"/>
			<point x="754.2413688944" y="1394.3924489069"/>
			<point x="662.8" y="1456.48"/>
			<point x="559.456" y="1456.48" type="curve" smooth="yes"/>
			<point x="444.8" y="1456.48"/>
			<point x="346.6822808831" y="1392.9174128702"/>
			<point x="321.512" y="1281.792" type="curve" smooth="yes"/>
			<point x="316.104" y="1259.68" type="line" smooth="yes"/>
			<point x="297.216" y="1176.04"/>
			<point x="341.168" y="960.736"/>
			<point x="275.728" y="521.32" type="curve"/>
			<point x="313.856" y="521.32" type="line"/>
			<point x="511.56" y="945.952"/>
			<point x="693.664" y="1128.504"/>
			<point x="723.608" y="1259.68" type="curve" smooth="yes"/>
		</contour>
		<contour>
			<point x="221.392" y="347.776" type="curve" smooth="yes"/>
			<point x="94.4" y="347.776"/>
			<point x="-1.872" y="249.856"/>
			<point x="-1.872" y="122.864" type="curve" smooth="yes"/>
			<point x="-1.872" y="36.72"/>
			<point x="56.792" y="-22.24"/>
			<point x="148.88" y="-22.24" type="curve" smooth="yes"/>
			<point x="275.872" y="-22.24"/>
			<point x="372.144" y="75.68"/>
			<point x="372.144" y="202.32" type="curve" smooth="yes"/>
			<point x="372.144" y="288.816"/>
			<point x="313.48" y="347.776"/>
		</contour>
	</outline>
</glyph>
<glyph name="ampersand" format="2">
  <advance width="1508"/>
  <unicode hex="0026"/>
  <outline>
    <contour>
      <point x="1036.384" y="285.13599999999997" type="line"/>
      <point x="1200.096" y="453.664"/>
      <point x="1305.952" y="606.504"/>
      <point x="1397.144" y="802.096" type="curve"/>
      <point x="1568.4959999999999" y="848.112" type="line"/>
      <point x="1575.496" y="874.0" type="line"/>
      <point x="1101.5439999999999" y="874.0" type="line"/>
      <point x="1094.544" y="848.112" type="line"/>
      <point x="1247.8400000000001" y="802.096" type="line"/>
      <point x="1182.576" y="569.4559999999999"/>
      <point x="1095.8319999999999" y="408.784"/>
      <point x="1006.384" y="313.15200000000004" type="curve"/>
      <point x="894.16" y="228.848" type="line"/>
      <point x="803.6560000000001" y="171.136"/>
      <point x="724.112" y="159.024"/>
      <point x="626.76" y="159.024" type="curve" smooth="yes"/>
      <point x="434.448" y="159.024"/>
      <point x="334.536" y="276.928"/>
      <point x="334.536" y="467.12800000000004" type="curve" smooth="yes"/>
      <point x="334.536" y="595.6"/>
      <point x="384.224" y="690.792"/>
      <point x="538.984" y="771.168" type="curve"/>
      <point x="772.2159999999999" y="865.12" type="line"/>
      <point x="1132.432" y="974.408"/>
      <point x="1209.672" y="1080.616"/>
      <point x="1209.672" y="1224.9279999999999" type="curve" smooth="yes"/>
      <point x="1209.672" y="1355.76"/>
      <point x="1104.1200000000001" y="1456.48"/>
      <point x="869.984" y="1456.48" type="curve" smooth="yes"/>
      <point x="570.552" y="1456.48"/>
      <point x="393.32000000000005" y="1307.384"/>
      <point x="393.32000000000005" y="1060.208" type="curve" smooth="yes"/>
      <point x="393.32000000000005" y="979.1519999999999"/>
      <point x="419.74399999999997" y="874.6"/>
      <point x="472.28000000000003" y="783.008" type="curve" smooth="yes"/>
      <point x="917.408" y="0.0" type="line"/>
      <point x="1382.656" y="0.0" type="line"/>
      <point x="1389.008" y="22.592000000000002" type="line"/>
      <point x="1240.688" y="78.2" type="line"/>
      <point x="733.92" y="950.768" type="line" smooth="yes"/>
      <point x="684.568" y="1035.9360000000001"/>
      <point x="660.976" y="1120.64"/>
      <point x="660.976" y="1197.88" type="curve" smooth="yes"/>
      <point x="660.976" y="1314.5359999999998"/>
      <point x="730.24" y="1390.616"/>
      <point x="839.4879999999999" y="1390.616" type="curve" smooth="yes"/>
      <point x="922.048" y="1390.616"/>
      <point x="956.384" y="1343.9840000000002"/>
      <point x="956.384" y="1257.0" type="curve" smooth="yes"/>
      <point x="956.384" y="1138.5520000000001"/>
      <point x="904.328" y="1011.032"/>
      <point x="746.272" y="890.6" type="curve"/>
      <point x="523.76" y="792.52" type="line"/>
      <point x="147.856" y="673.6800000000001"/>
      <point x="35.712" y="517.256"/>
      <point x="35.712" y="309.64799999999997" type="curve" smooth="yes"/>
      <point x="35.712" y="125.75999999999999"/>
      <point x="162.952" y="-26.48"/>
      <point x="419.192" y="-26.48" type="curve" smooth="yes"/>
      <point x="584.6320000000001" y="-26.48"/>
      <point x="727.0400000000001" y="34.816"/>
      <point x="908.256" y="205.25599999999997" type="curve"/>
    </contour>
  </outline>
</glyph>
<glyph name="quotesingle" format="2">
  <advance width="410.52799999999996"/>
  <unicode hex="0027"/>
  <outline>
    <contour>
      <point x="277.576" y="866.848" type="line"/>
      <point x="316.94399999999996" y="866.848" type="line"/>
      <point x="628.632" y="1398.8319999999999" type="line"/>
      <point x="637.688" y="1430.0" type="line"/>
      <point x="321.488" y="1430.0" type="line"/>
      <point x="312.08" y="1398.8319999999999" type="line"/>
    </contour>
  </outline>
</glyph>
<glyph name="parenleft" format="2">
	<unicode hex="0028"/>
	<advance width="556.44"/>
	<outline>
		<contour>
			<point x="802.4" y="1467.592" type="curve"/>
			<point x="778.864" y="1490.48" type="line"/>
			<point x="144.256" y="949.888"/>
			<point x="73.832" y="675.184"/>
			<point x="73.832" y="417.336" type="curve" smooth="yes"/>
			<point x="73.832" y="248.056"/>
			<point x="129.536" y="75.816"/>
			<point x="253.048" y="-230.32" type="curve"/>
			<point x="286.176" y="-219.376" type="line"/>
			<point x="253.544" y="-65.112"/>
			<point x="240.544" y="60.832"/>
			<point x="240.544" y="202.008" type="curve" smooth="yes"/>
			<point x="240.544" y="548.176"/>
			<point x="345.008" y="959.36"/>
		</contour>
	</outline>
</glyph>
<glyph name="parenright" format="2">
  <advance width="556"/>
  <unicode hex="0029"/>
  <outline>
    <contour>
      <point x="-174.888" y="-207.43200000000002" type="curve"/>
      <point x="-151.352" y="-230.32" type="line"/>
      <point x="483.256" y="310.272"/>
      <point x="553.68" y="584.976"/>
      <point x="553.68" y="842.8240000000001" type="curve" smooth="yes"/>
      <point x="553.68" y="1012.1039999999999"/>
      <point x="497.976" y="1184.344"/>
      <point x="374.464" y="1490.48" type="curve"/>
      <point x="341.336" y="1479.536" type="line"/>
      <point x="373.968" y="1325.2720000000002"/>
      <point x="386.968" y="1199.328"/>
      <point x="386.968" y="1058.152" type="curve" smooth="yes"/>
      <point x="386.968" y="711.984"/>
      <point x="282.504" y="300.8"/>
    </contour>
  </outline>
</glyph>
<glyph name="asterisk" format="2">
	<unicode hex="002A"/>
	<advance width="806.92"/>
	<outline>
		<contour>
			<point x="732.736" y="831.712" type="line"/>
			<point x="679.752" y="1076.544" type="line"/>
			<point x="917.512" y="1142.208" type="line"/>
			<point x="915.512" y="1174.336" type="line"/>
			<point x="670.16" y="1198.352" type="line"/>
			<point x="686.848" y="1449.24" type="line"/>
			<point x="656.016" y="1456.888" type="line"/>
			<point x="553.296" y="1227.48" type="line"/>
			<point x="317.224" y="1319.76" type="line"/>
			<point x="299.336" y="1289.632" type="line"/>
			<point x="488.744" y="1124.208" type="line"/>
			<point x="327.632" y="930.488" type="line"/>
			<point x="350.464" y="906.304" type="line"/>
			<point x="567.536" y="1030.528" type="line"/>
			<point x="703.904" y="820.12" type="line"/>
		</contour>
	</outline>
</glyph>
<glyph name="plus" format="2">
	<unicode hex="002B"/>
	<advance width="1150"/>
	<outline>
		<contour>
			<point x="405.928" y="101" type="line"/>
			<point x="492.072" y="101" type="line"/>
			<point x="744.072" y="923" type="line"/>
			<point x="657.928" y="923" type="line"/>
		</contour>
		<contour>
			<point x="177.24" y="554.72" type="line"/>
			<point x="150.76" y="469.28" type="line"/>
			<point x="972.76" y="469.28" type="line"/>
			<point x="999.24" y="554.72" type="line"/>
		</contour>
	</outline>
</glyph>
<glyph name="comma" format="2">
	<unicode hex="002C"/>
	<advance width="510.376"/>
	<outline>
		<contour>
			<point x="-154.48" y="-304.424" type="curve"/>
			<point x="-137.832" y="-338.496" type="line"/>
			<point x="212.464" y="-152.816"/>
			<point x="343.24" y="30.72"/>
			<point x="343.24" y="189.896" type="curve" smooth="yes"/>
			<point x="343.24" y="285.056"/>
			<point x="282.688" y="343.552"/>
			<point x="189.712" y="343.552" type="curve" smooth="yes"/>
			<point x="60.832" y="343.552"/>
			<point x="-14.832" y="246.336"/>
			<point x="-14.832" y="165.488" type="curve" smooth="yes"/>
			<point x="-14.832" y="135.136"/>
			<point x="100.496" y="84.16"/>
			<point x="100.496" y="-16.352" type="curve" smooth="yes"/>
			<point x="100.496" y="-96.96"/>
			<point x="33.496" y="-195.424"/>
		</contour>
	</outline>
</glyph>
<glyph name="hyphen" format="2">
	<unicode hex="002D"/>
	<advance width="643.904"/>
	<outline>
		<contour>
			<point x="137.112" y="597.68" type="line"/>
			<point x="90.096" y="442.448" type="line"/>
			<point x="510.736" y="442.448" type="line"/>
			<point x="558.4" y="597.68" type="line"/>
		</contour>
	</outline>
</glyph>
<glyph name="period" format="2">
	<unicode hex="002E"/>
	<advance width="513.024"/>
	<outline>
		<contour>
			<point x="204.784" y="347.424" type="curve" smooth="yes"/>
			<point x="77.792" y="347.424"/>
			<point x="-18.48" y="249.504"/>
			<point x="-18.48" y="122.864" type="curve" smooth="yes"/>
			<point x="-18.48" y="36.72"/>
			<point x="40.184" y="-22.24"/>
			<point x="132.272" y="-22.24" type="curve" smooth="yes"/>
			<point x="259.264" y="-22.24"/>
			<point x="355.536" y="75.68"/>
			<point x="355.536" y="202.32" type="curve" smooth="yes"/>
			<point x="355.536" y="288.464"/>
			<point x="296.872" y="347.424"/>
		</contour>
	</outline>
</glyph>
<glyph name="slash" format="2">
	<unicode hex="002F"/>
	<advance width="803.816"/>
	<outline>
		<contour>
			<point x="-79.424" y="0" type="line"/>
			<point x="2" y="0" type="line"/>
			<point x="1009.24" y="1430" type="line"/>
			<point x="927.816" y="1430" type="line"/>
		</contour>
	</outline>
</glyph>
<glyph name="zero" format="2">
	<unicode hex="0030"/>
	<advance width="1329.6"/>
	<outline>
		<contour>
			<point x="408.84" y="260.664" type="curve" smooth="yes"/>
			<point x="408.84" y="672.688"/>
			<point x="685.376" y="1390.504"/>
			<point x="939.096" y="1390.504" type="curve" smooth="yes"/>
			<point x="1012.68" y="1390.504"/>
			<point x="1044.408" y="1323.4"/>
			<point x="1044.408" y="1169.336" type="curve" smooth="yes"/>
			<point x="1044.408" y="757.312"/>
			<point x="767.872" y="39.496"/>
			<point x="514.152" y="39.496" type="curve" smooth="yes"/>
			<point x="440.568" y="39.496"/>
			<point x="408.84" y="106.6"/>
		</contour>
		<contour>
			<point x="943.632" y="1456.48" type="curve" smooth="yes"/>
			<point x="435.2" y="1456.48"/>
			<point x="113.296" y="910.384"/>
			<point x="113.296" y="424.464" type="curve" smooth="yes"/>
			<point x="113.296" y="166.92"/>
			<point x="246.112" y="-26.48"/>
			<point x="509.616" y="-26.48" type="curve" smooth="yes"/>
			<point x="1018.048" y="-26.48"/>
			<point x="1339.952" y="519.616"/>
			<point x="1339.952" y="1005.536" type="curve" smooth="yes"/>
			<point x="1339.952" y="1263.08"/>
			<point x="1207.136" y="1456.48"/>
		</contour>
	</outline>
</glyph>
<glyph name="one" format="2">
	<unicode hex="0031"/>
	<advance width="1329.6"/>
	<outline>
		<contour>
			<point x="429.336" y="79.072" type="line"/>
			<point x="160.544" y="23.24" type="line"/>
			<point x="152.84" y="0" type="line"/>
			<point x="1016.296" y="0" type="line"/>
			<point x="1025" y="23.24" type="line"/>
			<point x="786.408" y="79.72" type="line"/>
			<point x="1200.28" y="1437.04" type="line"/>
			<point x="1030.016" y="1437.04" type="line"/>
			<point x="358.256" y="1107.784" type="line"/>
			<point x="374.328" y="1067.104" type="line"/>
			<point x="846.824" y="1192.424" type="line"/>
			<point x="776.104" y="1216.008" type="line"/>
		</contour>
	</outline>
</glyph>
<glyph name="colon" format="2">
  <advance width="575.232"/>
  <unicode hex="003A"/>
  <outline>
    <contour>
      <point x="216.656" y="347.424" type="curve" smooth="yes"/>
      <point x="89.664" y="347.424"/>
      <point x="-6.608" y="249.50400000000002"/>
      <point x="-6.608" y="122.864" type="curve" smooth="yes"/>
      <point x="-6.608" y="36.720000000000006"/>
      <point x="52.056000000000004" y="-22.240000000000002"/>
      <point x="144.144" y="-22.240000000000002" type="curve" smooth="yes"/>
      <point x="271.13599999999997" y="-22.240000000000002"/>
      <point x="367.408" y="75.68"/>
      <point x="367.408" y="202.32" type="curve" smooth="yes"/>
      <point x="367.408" y="288.464"/>
      <point x="308.744" y="347.424"/>
    </contour>
    <contour>
      <point x="430.088" y="1045.888" type="curve" smooth="yes"/>
      <point x="303.096" y="1045.888"/>
      <point x="206.82399999999998" y="947.9680000000001"/>
      <point x="206.82399999999998" y="821.328" type="curve" smooth="yes"/>
      <point x="206.82399999999998" y="735.184"/>
      <point x="265.488" y="676.224"/>
      <point x="357.57599999999996" y="676.224" type="curve" smooth="yes"/>
      <point x="484.568" y="676.224"/>
      <point x="580.8399999999999" y="774.144"/>
      <point x="580.8399999999999" y="900.784" type="curve" smooth="yes"/>
      <point x="580.8399999999999" y="986.928"/>
      <point x="522.176" y="1045.888"/>
    </contour>
  </outline>
</glyph>
<glyph name="semicolon" format="2">
	<unicode hex="003B"/>
	<advance width="575.992"/>
	<outline>
		<contour>
			<point x="-133.016" y="-304.424" type="curve"/>
			<point x="-116.368" y="-338.496" type="line"/>
			<point x="233.928" y="-152.816"/>
			<point x="364.704" y="30.72"/>
			<point x="364.704" y="189.896" type="curve" smooth="yes"/>
			<point x="364.704" y="285.056"/>
			<point x="304.152" y="343.552"/>
			<point x="211.176" y="343.552" type="curve" smooth="yes"/>
			<point x="82.296" y="343.552"/>
			<point x="6.632" y="246.336"/>
			<point x="6.632" y="165.488" type="curve" smooth="yes"/>
			<point x="6.632" y="135.136"/>
			<point x="121.96" y="84.16"/>
			<point x="121.96" y="-16.352" type="curve" smooth="yes"/>
			<point x="121.96" y="-96.96"/>
			<point x="54.96" y="-195.424"/>
		</contour>
		<contour>
			<point x="422.96" y="1045.888" type="curve" smooth="yes"/>
			<point x="295.968" y="1045.888"/>
			<point x="199.696" y="947.968"/>
			<point x="199.696" y="821.328" type="curve" smooth="yes"/>
			<point x="199.696" y="735.184"/>
			<point x="258.36" y="676.224"/>
			<point x="350.448" y="676.224" type="curve" smooth="yes"/>
			<point x="477.44" y="676.224"/>
			<point x="573.712" y="774.144"/>
			<point x="573.712" y="900.784" type="curve" smooth="yes"/>
			<point x="573.712" y="986.928"/>
			<point x="515.048" y="1045.888"/>
		</contour>
	</outline>
</glyph>
<glyph name="less" format="2">
  <advance width="1150.0"/>
  <unicode hex="003C"/>
  <guideline x="1101.6480000000001" y="909.0" angle="175.33032199064394" identifier="rrevOd4Prw"/>
  <outline>
    <contour>
      <point x="154.88" y="478.20799999999997" type="line"/>
      <point x="936.3840000000001" y="366.32800000000003" type="line"/>
      <point x="962.9760000000001" y="454.1039999999999" type="line"/>
      <point x="209.728" y="525.5600000000001" type="line"/>
      <point x="198.8" y="489.368" type="line"/>
      <point x="994.432" y="556.936" type="line"/>
      <point x="1023.5039999999999" y="652.744" type="line"/>
      <point x="173.84" y="542.976" type="line"/>
    </contour>
  </outline>
</glyph>
<glyph name="greater" format="2">
	<unicode hex="003E"/>
	<advance width="1150"/>
	<outline>
		<contour>
			<point x="994.12" y="545.792" type="line"/>
			<point x="212.616" y="657.672" type="line"/>
			<point x="186.024" y="569.896" type="line"/>
			<point x="939.272" y="498.44" type="line"/>
			<point x="950.2" y="534.632" type="line"/>
			<point x="154.568" y="467.064" type="line"/>
			<point x="125.496" y="371.256" type="line"/>
			<point x="975.16" y="481.024" type="line"/>
		</contour>
	</outline>
</glyph>
<glyph name="question" format="2">
  <advance width="1026"/>
  <unicode hex="003F"/>
  <outline>
    <contour>
      <point x="386.816" y="347.776" type="curve" smooth="yes"/>
      <point x="259.824" y="347.776"/>
      <point x="163.552" y="249.85600000000002"/>
      <point x="163.552" y="122.864" type="curve" smooth="yes"/>
      <point x="163.552" y="36.720000000000006"/>
      <point x="222.216" y="-22.240000000000002"/>
      <point x="314.304" y="-22.240000000000002" type="curve" smooth="yes"/>
      <point x="441.29600000000005" y="-22.240000000000002"/>
      <point x="537.5680000000001" y="75.68"/>
      <point x="537.5680000000001" y="202.32" type="curve" smooth="yes"/>
      <point x="537.5680000000001" y="288.816"/>
      <point x="478.904" y="347.776"/>
    </contour>
    <contour>
      <point x="602.104" y="1456.48" type="curve" smooth="yes"/>
      <point x="379.91200000000003" y="1456.48"/>
      <point x="295.336" y="1379.8"/>
      <point x="295.336" y="1287.712" type="curve" smooth="yes"/>
      <point x="295.336" y="1224.68"/>
      <point x="335.648" y="1176.592"/>
      <point x="395.568" y="1176.592" type="curve" smooth="yes"/>
      <point x="425.88" y="1176.592"/>
      <point x="586.944" y="1354.336"/>
      <point x="760.648" y="1354.336" type="curve" smooth="yes"/>
      <point x="881.12" y="1354.336"/>
      <point x="957.216" y="1281.96"/>
      <point x="957.216" y="1165.4479999999999" type="curve" smooth="yes"/>
      <point x="957.216" y="988.808"/>
      <point x="843.912" y="902.5840000000001"/>
      <point x="496.0799999999999" y="935.016" type="curve"/>
      <point x="415.152" y="521.3199999999999" type="line"/>
      <point x="455.576" y="521.3199999999999" type="line"/>
      <point x="596.984" y="850.656" type="line"/>
      <point x="488.768" y="678.576" type="line"/>
      <point x="913.072" y="636.72"/>
      <point x="1072.672" y="782.328"/>
      <point x="1072.672" y="1045.608" type="curve" smooth="yes"/>
      <point x="1072.672" y="1257.7920000000001"/>
      <point x="912.744" y="1456.48"/>
    </contour>
  </outline>
</glyph>
<glyph name="at" format="2">
	<unicode hex="0040"/>
	<advance width="1819.032"/>
	<outline>
		<contour>
			<point x="1381.176" y="287.072" type="curve" smooth="yes"/>
			<point x="1324.896" y="287.072"/>
			<point x="1297.448" y="314.352"/>
			<point x="1297.448" y="379.024" type="curve" smooth="yes"/>
			<point x="1297.448" y="415.192"/>
			<point x="1305.152" y="462.712"/>
			<point x="1322.264" y="523.584" type="curve" smooth="yes"/>
			<point x="1462.968" y="1039" type="line"/>
			<point x="1199.08" y="1039" type="line"/>
			<point x="1172.432" y="944.928" type="line"/>
			<point x="1074.56" y="627.944" type="line" smooth="yes"/>
			<point x="992.16" y="475.08"/>
			<point x="924.472" y="423.264"/>
			<point x="869.784" y="423.264" type="curve" smooth="yes"/>
			<point x="832.04" y="423.264"/>
			<point x="818.168" y="443.656"/>
			<point x="818.168" y="504.4" type="curve" smooth="yes"/>
			<point x="818.168" y="664.48"/>
			<point x="962.712" y="960.6"/>
			<point x="1097.128" y="960.6" type="curve" smooth="yes"/>
			<point x="1155.128" y="960.6"/>
			<point x="1183.112" y="925.176"/>
			<point x="1214.336" y="843.4" type="curve"/>
			<point x="1228.928" y="867.232" type="line"/>
			<point x="1189.872" y="1001.984"/>
			<point x="1101.024" y="1060.592"/>
			<point x="1018.136" y="1060.592" type="curve" smooth="yes"/>
			<point x="775.192" y="1060.592"/>
			<point x="535.448" y="693.648"/>
			<point x="535.448" y="435.944" type="curve" smooth="yes"/>
			<point x="535.448" y="302.632"/>
			<point x="590.928" y="239.112"/>
			<point x="707.392" y="239.112" type="curve" smooth="yes"/>
			<point x="820.112" y="239.112"/>
			<point x="935.816" y="297.152"/>
			<point x="1114.52" y="631.312" type="curve"/>
			<point x="1089.632" y="635.256" type="line"/>
			<point x="1067.688" y="530.704" type="line" smooth="yes"/>
			<point x="1060.688" y="498.056"/>
			<point x="1056.984" y="467.704"/>
			<point x="1056.984" y="440.704" type="curve" smooth="yes"/>
			<point x="1056.984" y="301.632"/>
			<point x="1148.112" y="239.112"/>
			<point x="1302.592" y="239.112" type="curve" smooth="yes"/>
			<point x="1653.5814915717" y="239.112"/>
			<point x="1852.64" y="536.56"/>
			<point x="1852.64" y="880.744" type="curve" smooth="yes"/>
			<point x="1852.64" y="1229.016"/>
			<point x="1593.6864477612" y="1457.888"/>
			<point x="1165.048" y="1457.888" type="curve" smooth="yes"/>
			<point x="525.9430848427" y="1457.888"/>
			<point x="87.632" y="967.6686511628"/>
			<point x="87.632" y="448.368" type="curve" smooth="yes"/>
			<point x="87.632" y="34.3256"/>
			<point x="392.744" y="-218"/>
			<point x="851.296" y="-218" type="curve" smooth="yes"/>
			<point x="1104.976" y="-218"/>
			<point x="1335.96" y="-145.648"/>
			<point x="1533.032" y="-24.648" type="curve"/>
			<point x="1514.848" y="12.072" type="line"/>
			<point x="1284.52" y="-119.056"/>
			<point x="1078.792" y="-157.688"/>
			<point x="887.536" y="-157.688" type="curve" smooth="yes"/>
			<point x="490.256" y="-157.688"/>
			<point x="243.16" y="86.216"/>
			<point x="243.16" y="460.368" type="curve" smooth="yes"/>
			<point x="243.16" y="965.672"/>
			<point x="592.316368364" y="1402.576"/>
			<point x="1148.568" y="1402.576" type="curve" smooth="yes"/>
			<point x="1520.5505129088" y="1402.576"/>
			<point x="1716.704" y="1173.52"/>
			<point x="1716.704" y="866.872" type="curve" smooth="yes"/>
			<point x="1716.704" y="520.28"/>
			<point x="1540.8403402011" y="287.072"/>
		</contour>
	</outline>
</glyph>
<glyph name="A" format="2">
	<unicode hex="0041"/>
	<advance width="1510.512"/>
	<outline>
		<contour>
			<point x="335.288" y="485.72" type="line"/>
			<point x="1015.712" y="485.72" type="line"/>
			<point x="1036.952" y="555.976" type="line"/>
			<point x="356.88" y="555.976" type="line"/>
		</contour>
		<contour>
			<point x="1280.656" y="78.736" type="line"/>
			<point x="1107.6" y="1437.04" type="line"/>
			<point x="909.6" y="1437.04" type="line"/>
			<point x="3.28" y="80.904" type="line"/>
			<point x="-159.296" y="24.536" type="line"/>
			<point x="-167.888" y="0" type="line"/>
			<point x="232.536" y="0" type="line"/>
			<point x="241.128" y="24.536" type="line"/>
			<point x="87.072" y="77.904" type="line"/>
			<point x="835.04" y="1212.224" type="line"/>
			<point x="807.8" y="1212.224" type="line"/>
			<point x="936.728" y="74.792" type="line"/>
			<point x="771.6" y="24.536" type="line"/>
			<point x="762.36" y="0" type="line"/>
			<point x="1401.512" y="0" type="line"/>
			<point x="1410.104" y="24.536" type="line"/>
		</contour>
	</outline>
	<anchor name="UCtop" x="988.912" y="1430"/>
	<anchor name="bottom" x="522.592" y="0"/>
	<anchor name="right" x="1251.264" y="0"/>
</glyph>
<glyph name="B" format="2">
	<unicode hex="0042"/>
	<advance width="1427.816"/>
	<outline>
		<contour>
			<point x="554.808" y="1362.56" type="line"/>
			<point x="909.496" y="1362.56" type="line" smooth="yes"/>
			<point x="1047.248" y="1362.56"/>
			<point x="1103.752" y="1307.704"/>
			<point x="1103.752" y="1200.92" type="curve" smooth="yes"/>
			<point x="1103.752" y="991.16"/>
			<point x="994.192" y="797.96"/>
			<point x="794.296" y="797.96" type="curve" smooth="yes"/>
			<point x="389.712" y="797.96" type="line"/>
			<point x="379.272" y="730.52" type="line"/>
			<point x="769.152" y="730.52" type="line" smooth="yes"/>
			<point x="926.232" y="730.52"/>
			<point x="988.568" y="659.368"/>
			<point x="988.568" y="537.976" type="curve" smooth="yes"/>
			<point x="988.568" y="264.12"/>
			<point x="834.528" y="67.44"/>
			<point x="578.592" y="67.44" type="curve" smooth="yes"/>
			<point x="184.88" y="67.44" type="line"/>
			<point x="260.208" y="0" type="line"/>
			<point x="646.616" y="0" type="line" smooth="yes"/>
			<point x="1099.736" y="0"/>
			<point x="1338.904" y="216.944"/>
			<point x="1338.904" y="465.464" type="curve" smooth="yes"/>
			<point x="1338.904" y="636.44"/>
			<point x="1206.8" y="759.72"/>
			<point x="949.896" y="779.072" type="curve"/>
			<point x="926.376" y="763.832" type="line"/>
			<point x="1270.8199627986" y="790.1953444442"/>
			<point x="1433.776" y="953.464"/>
			<point x="1433.776" y="1156.704" type="curve" smooth="yes"/>
			<point x="1433.776" y="1306.352"/>
			<point x="1325.424" y="1430"/>
			<point x="1016.176" y="1430" type="curve" smooth="yes"/>
			<point x="696.208" y="1430" type="line"/>
		</contour>
		<contour>
			<point x="468.712" y="1358.984" type="line"/>
			<point x="74.248" y="73.608" type="line"/>
			<point x="-92.736" y="24.536" type="line"/>
			<point x="-99.384" y="0" type="line"/>
			<point x="419.08" y="0" type="line"/>
			<point x="856.024" y="1430" type="line"/>
			<point x="329.856" y="1430" type="line"/>
			<point x="323.208" y="1405.464" type="line"/>
		</contour>
	</outline>
	<anchor name="UCtop" x="941.392" y="1430"/>
	<anchor name="bottom" x="563.952" y="0"/>
</glyph>
<glyph name="C" format="2">
  <advance width="1412.512"/>
  <unicode hex="0043"/>
  <anchor x="1009.2" y="1430.0" name="UCtop"/>
  <anchor x="654.72" y="0.0" name="bottom"/>
  <anchor x="1171.504" y="0.0" name="right"/>
  <outline>
    <contour>
      <point x="1056.376" y="119.376" type="line"/>
      <point x="972.144" y="66.55199999999999"/>
      <point x="874.7280000000001" y="43.976"/>
      <point x="778.224" y="43.976" type="curve" smooth="yes"/>
      <point x="582.44" y="43.976"/>
      <point x="456.544" y="188.84799999999998"/>
      <point x="456.544" y="481.024" type="curve" smooth="yes"/>
      <point x="456.544" y="926.168"/>
      <point x="701.928" y="1387.152"/>
      <point x="1103.9920000000002" y="1387.152" type="curve" smooth="yes"/>
      <point x="1207.032" y="1387.152"/>
      <point x="1291.144" y="1357.208"/>
      <point x="1367.904" y="1239.584" type="curve"/>
      <point x="1311.888" y="1349.04" type="line"/>
      <point x="1426.4560000000001" y="952.528" type="line"/>
      <point x="1461.1760000000002" y="952.528" type="line"/>
      <point x="1509.0639999999999" y="1500.848" type="line"/>
      <point x="1494.768" y="1500.848" type="line"/>
      <point x="1312.112" y="1396.056" type="line"/>
      <point x="1475.096" y="1407.464" type="line"/>
      <point x="1360.544" y="1440.592"/>
      <point x="1248.456" y="1456.48"/>
      <point x="1124.9599999999998" y="1456.48" type="curve" smooth="yes"/>
      <point x="516.96" y="1456.48"/>
      <point x="114.728" y="1013.96"/>
      <point x="114.728" y="510.74399999999997" type="curve" smooth="yes"/>
      <point x="114.728" y="194.72000000000003"/>
      <point x="314.93600000000004" y="-26.48"/>
      <point x="762.448" y="-26.48" type="curve" smooth="yes"/>
      <point x="895.208" y="-26.48"/>
      <point x="1008.12" y="-11.832"/>
      <point x="1148.7520000000002" y="22.336" type="curve"/>
      <point x="1335.952" y="397.288" type="line"/>
      <point x="1303.528" y="397.288" type="line"/>
      <point x="969.208" y="60.983999999999995" type="line"/>
    </contour>
  </outline>
</glyph>
<glyph name="D" format="2">
	<unicode hex="0044"/>
	<advance width="1561.8"/>
	<outline>
		<contour>
			<point x="563.936" y="70.256" type="curve" smooth="yes"/>
			<point x="245.616" y="70.256" type="line"/>
			<point x="223.784" y="0" type="line"/>
			<point x="549.008" y="0" type="line" smooth="yes"/>
			<point x="1174.952" y="0"/>
			<point x="1562.296" y="394.136"/>
			<point x="1562.296" y="889.168" type="curve" smooth="yes"/>
			<point x="1562.296" y="1232.04"/>
			<point x="1317.272" y="1430"/>
			<point x="920.24" y="1430" type="curve" smooth="yes"/>
			<point x="661.784" y="1430" type="line"/>
			<point x="699.568" y="1359.744" type="line"/>
			<point x="913.664" y="1359.744" type="line" smooth="yes"/>
			<point x="1112.336" y="1359.744"/>
			<point x="1224.624" y="1247.6376054422"/>
			<point x="1224.624" y="1014.872" type="curve" smooth="yes"/>
			<point x="1224.624" y="476.5758387458"/>
			<point x="936.408" y="70.256"/>
		</contour>
		<contour>
			<point x="468.712" y="1358.984" type="line"/>
			<point x="74.248" y="73.608" type="line"/>
			<point x="-92.736" y="24.536" type="line"/>
			<point x="-99.384" y="0" type="line"/>
			<point x="419.08" y="0" type="line"/>
			<point x="856.024" y="1430" type="line"/>
			<point x="329.856" y="1430" type="line"/>
			<point x="323.208" y="1405.464" type="line"/>
		</contour>
	</outline>
	<anchor name="UCtop" x="1027.096" y="1430"/>
	<anchor name="bottom" x="629.096" y="0"/>
</glyph>
<glyph name="E" format="2">
	<unicode hex="0045"/>
	<advance width="1397.92"/>
	<outline>
		<contour>
			<point x="468.712" y="1358.984" type="line"/>
			<point x="74.248" y="73.608" type="line"/>
			<point x="-92.736" y="24.536" type="line"/>
			<point x="-99.384" y="0" type="line"/>
			<point x="419.08" y="0" type="line"/>
			<point x="856.024" y="1430" type="line"/>
			<point x="329.856" y="1430" type="line"/>
			<point x="323.208" y="1405.464" type="line"/>
		</contour>
		<contour>
			<point x="1315.8" y="1386.872" type="line"/>
			<point x="1415.2" y="1000.544" type="line"/>
			<point x="1452.16" y="1000.544" type="line"/>
			<point x="1518.384" y="1505.384" type="line"/>
			<point x="1499.072" y="1505.384" type="line"/>
			<point x="1326.152" y="1430" type="line"/>
			<point x="653.28" y="1430" type="line"/>
			<point x="625.56" y="1359.744" type="line"/>
			<point x="1443.392" y="1359.744" type="line"/>
		</contour>
		<contour>
			<point x="1053.128" y="-71.496" type="line"/>
			<point x="1075.68" y="-71.496" type="line"/>
			<point x="1345.208" y="423.432" type="line"/>
			<point x="1312.248" y="444.264" type="line"/>
			<point x="899.76" y="49.016" type="line"/>
			<point x="1085.296" y="70.256" type="line"/>
			<point x="245.296" y="70.256" type="line"/>
			<point x="216.28" y="0" type="line"/>
			<point x="918.352" y="0" type="line"/>
		</contour>
		<contour>
			<point x="964.312" y="455" type="line"/>
			<point x="1021.312" y="746" type="line"/>
			<point x="1143.312" y="1039" type="line"/>
			<point x="1110.648" y="1039" type="line"/>
			<point x="932.184" y="796.312" type="line"/>
			<point x="544.648" y="762.48" type="line"/>
			<point x="527.928" y="730.52" type="line"/>
			<point x="908.112" y="700.688" type="line"/>
			<point x="931.648" y="455" type="line"/>
		</contour>
	</outline>
	<anchor name="UCtop" x="956.656" y="1430"/>
	<anchor name="right" x="1084.344" y="0"/>
	<anchor name="bottom" x="588.656" y="0"/>
</glyph>
<glyph name="F" format="2">
	<unicode hex="0046"/>
	<advance width="1262.44"/>
	<outline>
		<contour>
			<point x="1118.448" y="1002.52" type="line"/>
			<point x="1085.784" y="1002.52" type="line"/>
			<point x="907.32" y="759.832" type="line"/>
			<point x="519.784" y="726" type="line"/>
			<point x="503.064" y="694.04" type="line"/>
			<point x="883.248" y="664.208" type="line"/>
			<point x="906.784" y="418.52" type="line"/>
			<point x="939.448" y="418.52" type="line"/>
			<point x="996.448" y="709.52" type="line"/>
		</contour>
		<contour>
			<point x="1397.288" y="1000.544" type="line"/>
			<point x="1463.512" y="1505.384" type="line"/>
			<point x="1444.2" y="1505.384" type="line"/>
			<point x="1271.28" y="1430" type="line"/>
			<point x="653.28" y="1430" type="line"/>
			<point x="625.56" y="1359.744" type="line"/>
			<point x="1388.52" y="1359.744" type="line"/>
			<point x="1260.928" y="1386.872" type="line"/>
			<point x="1360.328" y="1000.544" type="line"/>
		</contour>
		<contour>
			<point x="440.32" y="71.016" type="line"/>
			<point x="856.024" y="1430" type="line"/>
			<point x="329.856" y="1430" type="line"/>
			<point x="323.208" y="1405.464" type="line"/>
			<point x="468.712" y="1358.984" type="line"/>
			<point x="74.248" y="73.608" type="line"/>
			<point x="-92.736" y="24.536" type="line"/>
			<point x="-99.384" y="0" type="line"/>
			<point x="579.176" y="0" type="line"/>
			<point x="584.824" y="24.536" type="line"/>
		</contour>
	</outline>
	<anchor name="UCtop" x="916.584" y="1430"/>
	<anchor name="bottom" x="241.176" y="0"/>
</glyph>
<glyph name="G" format="2">
  <advance width="1542.952"/>
  <unicode hex="0047"/>
  <anchor x="1041.304" y="1430.0" name="UCtop"/>
  <anchor x="718.5039999999999" y="0.0" name="bottom"/>
  <outline>
    <contour>
      <point x="784.616" y="39.44" type="curve" smooth="yes"/>
      <point x="577.216" y="39.44"/>
      <point x="455.896" y="189.128"/>
      <point x="455.896" y="481.024" type="curve" smooth="yes"/>
      <point x="455.896" y="926.168"/>
      <point x="705.592" y="1387.152"/>
      <point x="1116.096" y="1387.152" type="curve" smooth="yes"/>
      <point x="1219.1360000000002" y="1387.152"/>
      <point x="1303.2479999999998" y="1357.208"/>
      <point x="1380.008" y="1239.584" type="curve"/>
      <point x="1323.992" y="1349.04" type="line"/>
      <point x="1438.56" y="952.528" type="line"/>
      <point x="1473.28" y="952.528" type="line"/>
      <point x="1521.1680000000001" y="1500.848" type="line"/>
      <point x="1506.872" y="1500.848" type="line"/>
      <point x="1324.216" y="1396.056" type="line"/>
      <point x="1487.2" y="1407.464" type="line"/>
      <point x="1372.648" y="1440.592"/>
      <point x="1260.5600000000002" y="1456.48"/>
      <point x="1137.064" y="1456.48" type="curve" smooth="yes"/>
      <point x="520.624" y="1456.48"/>
      <point x="114.08" y="1013.96"/>
      <point x="114.08" y="510.74399999999997" type="curve" smooth="yes"/>
      <point x="114.08" y="194.72000000000003"/>
      <point x="325.2" y="-26.48"/>
      <point x="776.232" y="-26.48" type="curve" smooth="yes"/>
      <point x="971.4416521739131" y="-26.48"/>
      <point x="1152.776" y="0.27999999999999936"/>
      <point x="1376.576" y="67.448" type="curve"/>
      <point x="1387.464" y="102.056" type="line"/>
      <point x="1262.04" y="102.056" type="line"/>
      <point x="1402.504" y="567.448" type="line"/>
      <point x="1533.432" y="612.8720000000001" type="line"/>
      <point x="1542.376" y="639.352" type="line"/>
      <point x="892.888" y="639.352" type="line"/>
      <point x="883.944" y="612.8720000000001" type="line"/>
      <point x="1035.528" y="561.448" type="line"/>
      <point x="867.528" y="8.152000000000001" type="line"/>
      <point x="954.5600000000001" y="70.488" type="line"/>
      <point x="896.528" y="46.016000000000005"/>
      <point x="840.7199999999999" y="39.44"/>
    </contour>
  </outline>
</glyph>
<glyph name="H" format="2">
	<unicode hex="0048"/>
	<advance width="1696.808"/>
	<outline>
		<contour>
			<point x="435.84" y="705.52" type="line"/>
			<point x="1369.84" y="705.52" type="line"/>
			<point x="1397.264" y="775.776" type="line"/>
			<point x="462.264" y="775.776" type="line"/>
		</contour>
		<contour>
			<point x="468.712" y="1358.984" type="line"/>
			<point x="74.248" y="73.608" type="line"/>
			<point x="-92.736" y="24.536" type="line"/>
			<point x="-99.384" y="0" type="line"/>
			<point x="579.176" y="0" type="line"/>
			<point x="584.824" y="24.536" type="line"/>
			<point x="440.32" y="71.016" type="line"/>
			<point x="834.136" y="1356.392" type="line"/>
			<point x="1001.12" y="1405.464" type="line"/>
			<point x="1007.768" y="1430" type="line"/>
			<point x="329.856" y="1430" type="line"/>
			<point x="323.208" y="1405.464" type="line"/>
		</contour>
		<contour>
			<point x="1378.136" y="1358.984" type="line"/>
			<point x="983.672" y="73.608" type="line"/>
			<point x="816.688" y="24.536" type="line"/>
			<point x="810.04" y="0" type="line"/>
			<point x="1488.6" y="0" type="line"/>
			<point x="1495.248" y="24.536" type="line"/>
			<point x="1350.744" y="71.016" type="line"/>
			<point x="1745.208" y="1356.392" type="line"/>
			<point x="1911.192" y="1405.464" type="line"/>
			<point x="1917.84" y="1430" type="line"/>
			<point x="1239.28" y="1430" type="line"/>
			<point x="1233.632" y="1405.464" type="line"/>
		</contour>
	</outline>
	<anchor name="UCtop" x="1119.168" y="1430"/>
	<anchor name="bottom" x="715.248" y="0"/>
</glyph>
<glyph name="I" format="2">
	<unicode hex="0049"/>
	<advance width="786.384"/>
	<outline>
		<contour>
			<point x="468.712" y="1358.984" type="line"/>
			<point x="74.248" y="73.608" type="line"/>
			<point x="-92.736" y="24.536" type="line"/>
			<point x="-99.384" y="0" type="line"/>
			<point x="579.176" y="0" type="line"/>
			<point x="584.824" y="24.536" type="line"/>
			<point x="440.32" y="71.016" type="line"/>
			<point x="834.136" y="1356.392" type="line"/>
			<point x="1001.12" y="1405.464" type="line"/>
			<point x="1007.768" y="1430" type="line"/>
			<point x="329.856" y="1430" type="line"/>
			<point x="323.208" y="1405.464" type="line"/>
		</contour>
	</outline>
	<anchor name="UCtop" x="661.672" y="1430"/>
	<anchor name="right" x="391.496" y="0"/>
	<anchor name="bottom" x="229.656" y="0"/>
</glyph>
<glyph name="J" format="2">
	<unicode hex="004A"/>
	<advance width="928.168"/>
	<outline>
		<contour>
			<point x="758.4" y="551.976" type="curve" smooth="yes"/>
			<point x="1003.088" y="1347.968" type="line"/>
			<point x="1170.72" y="1405.464" type="line"/>
			<point x="1177.368" y="1430" type="line"/>
			<point x="499.456" y="1430" type="line"/>
			<point x="492.808" y="1405.464" type="line"/>
			<point x="638.312" y="1358.984" type="line"/>
			<point x="283.352" y="203.64" type="line" smooth="yes"/>
			<point x="254.072" y="107.688"/>
			<point x="216.776" y="87.056"/>
			<point x="168.216" y="87.056" type="curve" smooth="yes"/>
			<point x="86.216" y="87.056"/>
			<point x="38.512" y="216.304"/>
			<point x="-0.912" y="216.304" type="curve" smooth="yes"/>
			<point x="-65.944" y="216.304"/>
			<point x="-121.016" y="165.288"/>
			<point x="-121.016" y="94.68" type="curve" smooth="yes"/>
			<point x="-121.016" y="29.312"/>
			<point x="-69.944" y="-21.296"/>
			<point x="32.904" y="-21.296" type="curve" smooth="yes"/>
			<point x="303.824" y="-21.296"/>
			<point x="661.12" y="236.376"/>
		</contour>
	</outline>
	<anchor name="UCtop" x="840.752" y="1430"/>
	<anchor name="bottom" x="316.36" y="0"/>
</glyph>
<glyph name="K" format="2">
	<unicode hex="004B"/>
	<advance width="1583.504"/>
	<outline>
		<contour>
			<point x="1349.24" y="79.384" type="line"/>
			<point x="960.08" y="954.68" type="line"/>
			<point x="919.128" y="891.416" type="line"/>
			<point x="1571.104" y="1356.744" type="line"/>
			<point x="1756.528" y="1405.464" type="line"/>
			<point x="1764.12" y="1430" type="line"/>
			<point x="1307.608" y="1430" type="line"/>
			<point x="1299.016" y="1405.464" type="line"/>
			<point x="1462.48" y="1357.336" type="line"/>
			<point x="687.984" y="791.48" type="line"/>
			<point x="543.648" y="791.48" type="line"/>
			<point x="514.928" y="721.224" type="line"/>
			<point x="665.744" y="721.224" type="line"/>
			<point x="950.592" y="66.776" type="line"/>
			<point x="806.976" y="24.536" type="line"/>
			<point x="798.384" y="0" type="line"/>
			<point x="1485.296" y="0" type="line"/>
			<point x="1493.888" y="24.536" type="line"/>
		</contour>
		<contour>
			<point x="468.712" y="1358.984" type="line"/>
			<point x="74.248" y="73.608" type="line"/>
			<point x="-92.736" y="24.536" type="line"/>
			<point x="-99.384" y="0" type="line"/>
			<point x="579.176" y="0" type="line"/>
			<point x="584.824" y="24.536" type="line"/>
			<point x="440.32" y="71.016" type="line"/>
			<point x="834.136" y="1356.392" type="line"/>
			<point x="1001.12" y="1405.464" type="line"/>
			<point x="1007.768" y="1430" type="line"/>
			<point x="329.856" y="1430" type="line"/>
			<point x="323.208" y="1405.464" type="line"/>
		</contour>
	</outline>
	<anchor name="UCtop" x="1085.592" y="1430"/>
	<anchor name="bottom" x="697.592" y="0"/>
</glyph>
<glyph name="L" format="2">
  <advance width="1319.192"/>
  <unicode hex="004C"/>
  <anchor x="669.208" y="1430.0" name="UCtop"/>
  <anchor x="1058.464" y="1430.0" name="right"/>
  <anchor x="517.6" y="0.0" name="bottom"/>
  <anchor x="1126.624" y="734.12" name="mid"/>
  <outline>
    <contour>
      <point x="834.136" y="1356.3919999999998" type="line"/>
      <point x="1001.12" y="1405.464" type="line"/>
      <point x="1007.768" y="1430.0" type="line"/>
      <point x="329.856" y="1430.0" type="line"/>
      <point x="323.20799999999997" y="1405.464" type="line"/>
      <point x="468.712" y="1358.984" type="line"/>
      <point x="74.24799999999999" y="73.608" type="line"/>
      <point x="-92.736" y="24.536" type="line"/>
      <point x="-99.384" y="0.0" type="line"/>
      <point x="419.08000000000004" y="0.0" type="line"/>
    </contour>
    <contour>
      <point x="837.7919999999999" y="49.016000000000005" type="line"/>
      <point x="981.088" y="70.256" type="line"/>
      <point x="215.00799999999998" y="70.256" type="line"/>
      <point x="185.99200000000002" y="0.0" type="line"/>
      <point x="856.384" y="0.0" type="line"/>
      <point x="991.16" y="-71.496" type="line"/>
      <point x="1013.712" y="-71.496" type="line"/>
      <point x="1287.464" y="429.76800000000003" type="line"/>
      <point x="1254.504" y="450.6" type="line"/>
    </contour>
  </outline>
</glyph>
<glyph name="M" format="2">
	<unicode hex="004D"/>
	<advance width="2076.512"/>
	<outline>
		<contour>
			<point x="583.32" y="1387.792" type="line"/>
			<point x="523.696" y="1372.712" type="line"/>
			<point x="652.816" y="-7.04" type="line"/>
			<point x="857.184" y="-7.04" type="line"/>
			<point x="1765.168" y="1393.816" type="line"/>
			<point x="1782.592" y="1430" type="line"/>
			<point x="1704.488" y="1430" type="line"/>
			<point x="917.32" y="204.96" type="line"/>
			<point x="993.312" y="232.176" type="line"/>
			<point x="884.432" y="1430" type="line"/>
			<point x="354.712" y="1430" type="line"/>
			<point x="349.064" y="1405.464" type="line"/>
			<point x="490.752" y="1326.856" type="line"/>
			<point x="52.488" y="69.776" type="line"/>
			<point x="-115.608" y="24.536" type="line"/>
			<point x="-122.552" y="0" type="line"/>
			<point x="294.096" y="0" type="line"/>
			<point x="300.744" y="24.536" type="line"/>
			<point x="127.984" y="71.72" type="line"/>
		</contour>
		<contour>
			<point x="1712.912" y="1430" type="line"/>
			<point x="1427.296" y="75.608" type="line"/>
			<point x="1255.312" y="24.536" type="line"/>
			<point x="1248.664" y="0" type="line"/>
			<point x="1919.096" y="0" type="line"/>
			<point x="1925.744" y="24.536" type="line"/>
			<point x="1786.24" y="73.016" type="line"/>
			<point x="2060.336" y="1358.632" type="line"/>
			<point x="2247.08" y="1405.464" type="line"/>
			<point x="2252.728" y="1430" type="line"/>
		</contour>
	</outline>
	<anchor name="UCtop" x="1253.512" y="1430"/>
	<anchor name="bottom" x="789.592" y="0"/>
</glyph>
<glyph name="N" format="2">
	<unicode hex="004E"/>
	<advance width="1516.624"/>
	<outline>
		<contour>
			<point x="1230.688" y="285.992" type="line"/>
			<point x="842.488" y="1430" type="line"/>
			<point x="307.248" y="1430" type="line"/>
			<point x="299.952" y="1405.464" type="line"/>
			<point x="465.472" y="1329.672" type="line"/>
			<point x="80.192" y="68.368" type="line"/>
			<point x="-86.144" y="24.536" type="line"/>
			<point x="-93.44" y="0" type="line"/>
			<point x="326.504" y="0" type="line"/>
			<point x="333.152" y="24.536" type="line"/>
			<point x="158.28" y="70.312" type="line"/>
			<point x="542.672" y="1334.728" type="line"/>
			<point x="509.896" y="1321.352" type="line"/>
			<point x="962.912" y="-7.04" type="line"/>
			<point x="1163.208" y="-7.04" type="line"/>
			<point x="1581.08" y="1361.632" type="line"/>
			<point x="1747.416" y="1405.464" type="line"/>
			<point x="1754.712" y="1430" type="line"/>
			<point x="1334.768" y="1430" type="line"/>
			<point x="1328.12" y="1405.464" type="line"/>
			<point x="1502.992" y="1359.688" type="line"/>
			<point x="1176.84" y="285.992" type="line"/>
		</contour>
	</outline>
	<anchor name="UCtop" x="1054.832" y="1430"/>
	<anchor name="bottom" x="653.872" y="0"/>
</glyph>
<glyph name="O" format="2">
	<unicode hex="004F"/>
	<advance width="1575.696"/>
	<outline>
		<contour>
			<point x="444.712" y="325.288" type="curve" smooth="yes"/>
			<point x="444.712" y="698.072"/>
			<point x="707.544" y="1385.504"/>
			<point x="1056.672" y="1385.504" type="curve" smooth="yes"/>
			<point x="1183.952" y="1385.504"/>
			<point x="1253.984" y="1297.232"/>
			<point x="1253.984" y="1104.712" type="curve" smooth="yes"/>
			<point x="1253.984" y="731.928"/>
			<point x="991.152" y="44.496"/>
			<point x="642.024" y="44.496" type="curve" smooth="yes"/>
			<point x="514.744" y="44.496"/>
			<point x="444.712" y="132.768"/>
		</contour>
		<contour>
			<point x="1587.616" y="920.608" type="curve" smooth="yes"/>
			<point x="1587.616" y="1239.464"/>
			<point x="1401.648" y="1456.48"/>
			<point x="1038.136" y="1456.48" type="curve" smooth="yes"/>
			<point x="490.744" y="1456.48"/>
			<point x="111.08" y="957.84"/>
			<point x="111.08" y="509.392" type="curve" smooth="yes"/>
			<point x="111.08" y="190.536"/>
			<point x="297.048" y="-26.48"/>
			<point x="660.56" y="-26.48" type="curve" smooth="yes"/>
			<point x="1207.952" y="-26.48"/>
			<point x="1587.616" y="472.16"/>
		</contour>
	</outline>
	<anchor name="UCtop" x="1088.584" y="1430"/>
	<anchor name="bottom" x="594.664" y="0"/>
	<anchor name="right" x="754.104" y="0"/>
	<anchor name="horn" x="1426.072" y="1430"/>
</glyph>
<glyph name="P" format="2">
	<unicode hex="0050"/>
	<advance width="1355.656"/>
	<outline>
		<contour>
			<point x="755.856" y="695.872" type="curve" smooth="yes"/>
			<point x="432.432" y="695.872" type="line"/>
			<point x="419.264" y="625.616" type="line"/>
			<point x="842.16" y="625.616" type="line" smooth="yes"/>
			<point x="1256.504" y="625.616"/>
			<point x="1485.208" y="826.504"/>
			<point x="1485.208" y="1099.632" type="curve" smooth="yes"/>
			<point x="1485.208" y="1278.76"/>
			<point x="1361.264" y="1430"/>
			<point x="1011.712" y="1430" type="curve" smooth="yes"/>
			<point x="667.688" y="1430" type="line"/>
			<point x="628.304" y="1359.744" type="line"/>
			<point x="887.336" y="1359.744" type="line" smooth="yes"/>
			<point x="1066.592" y="1359.744"/>
			<point x="1138.928" y="1288.696"/>
			<point x="1138.928" y="1159.472" type="curve" smooth="yes"/>
			<point x="1138.928" y="922.024"/>
			<point x="1006.216" y="695.872"/>
		</contour>
		<contour>
			<point x="440.32" y="71.016" type="line"/>
			<point x="856.024" y="1430" type="line"/>
			<point x="329.856" y="1430" type="line"/>
			<point x="323.208" y="1405.464" type="line"/>
			<point x="468.712" y="1358.984" type="line"/>
			<point x="74.248" y="73.608" type="line"/>
			<point x="-92.736" y="24.536" type="line"/>
			<point x="-99.384" y="0" type="line"/>
			<point x="579.176" y="0" type="line"/>
			<point x="584.824" y="24.536" type="line"/>
		</contour>
	</outline>
	<anchor name="UCtop" x="967.432" y="1430"/>
	<anchor name="bottom" x="242.584" y="0"/>
</glyph>
<glyph name="Q" format="2">
	<unicode hex="0051"/>
	<advance width="1575.048"/>
	<outline>
		<contour>
			<point x="681.336" y="-263.4" type="line" smooth="yes"/>
			<point x="848.544" y="-423.4"/>
			<point x="987.384" y="-465"/>
			<point x="1192.392" y="-465" type="curve" smooth="yes"/>
			<point x="1319.16" y="-465"/>
			<point x="1486" y="-424.984"/>
			<point x="1567.744" y="-400.704" type="curve"/>
			<point x="1581.688" y="-348.744" type="line"/>
			<point x="1406.128" y="-359.672"/>
			<point x="1259.008" y="-305.952"/>
			<point x="1114.448" y="-216.968" type="curve" smooth="yes"/>
			<point x="732.984" y="16.736" type="line"/>
			<point x="730.576" y="-8.168" type="line"/>
			<point x="1260.848" y="23.136"/>
			<point x="1587.616" y="511.448"/>
			<point x="1587.616" y="920.608" type="curve" smooth="yes"/>
			<point x="1587.616" y="1239.464"/>
			<point x="1401.648" y="1456.48"/>
			<point x="1038.136" y="1456.48" type="curve" smooth="yes"/>
			<point x="490.744" y="1456.48"/>
			<point x="111.08" y="957.84"/>
			<point x="111.08" y="509.392" type="curve" smooth="yes"/>
			<point x="111.08" y="319.24"/>
			<point x="183.84" y="182.312"/>
			<point x="301.936" y="74.536" type="curve" smooth="yes"/>
		</contour>
		<contour>
			<point x="444.712" y="325.288" type="curve" smooth="yes"/>
			<point x="444.712" y="698.072"/>
			<point x="707.544" y="1385.504"/>
			<point x="1056.672" y="1385.504" type="curve" smooth="yes"/>
			<point x="1183.952" y="1385.504"/>
			<point x="1253.984" y="1297.232"/>
			<point x="1253.984" y="1104.712" type="curve" smooth="yes"/>
			<point x="1253.984" y="731.928"/>
			<point x="991.152" y="44.496"/>
			<point x="642.024" y="44.496" type="curve" smooth="yes"/>
			<point x="514.744" y="44.496"/>
			<point x="444.712" y="132.768"/>
		</contour>
	</outline>
	<anchor name="UCtop" x="1114.856" y="1430"/>
	<anchor name="bottom" x="437.928" y="-114.136"/>
</glyph>
<glyph name="R" format="2">
	<unicode hex="0052"/>
	<advance width="1545.568"/>
	<outline>
		<contour>
			<point x="821.048" y="769.296" type="curve" smooth="yes"/>
			<point x="368.296" y="769.296" type="line"/>
			<point x="404.784" y="700.448" type="line"/>
			<point x="753.408" y="700.448" type="line" smooth="yes"/>
			<point x="826.352" y="700.448"/>
			<point x="844.112" y="679.264"/>
			<point x="887.448" y="481.456" type="curve" smooth="yes"/>
			<point x="956.2" y="197.16" type="line" smooth="yes"/>
			<point x="996.888" y="15.072"/>
			<point x="1089.432" y="-37.552"/>
			<point x="1473.936" y="0" type="curve"/>
			<point x="1488.824" y="46.664" type="line"/>
			<point x="1386.16" y="44.368"/>
			<point x="1354.424" y="67.976"/>
			<point x="1317.088" y="196.96" type="curve" smooth="yes"/>
			<point x="1227.784" y="503.008" type="line" smooth="yes"/>
			<point x="1184.32" y="655.264"/>
			<point x="1101.472" y="733.168"/>
			<point x="935.496" y="736.76" type="curve"/>
			<point x="935.496" y="734.112" type="line"/>
			<point x="1300.528" y="739.872"/>
			<point x="1499.952" y="908.112"/>
			<point x="1499.952" y="1141.28" type="curve" smooth="yes"/>
			<point x="1499.952" y="1318.48"/>
			<point x="1360.104" y="1430"/>
			<point x="1042.904" y="1430" type="curve" smooth="yes"/>
			<point x="641.28" y="1430" type="line"/>
			<point x="554.648" y="1361.152" type="line"/>
			<point x="936.36" y="1361.152" type="line" smooth="yes"/>
			<point x="1090.392" y="1361.152"/>
			<point x="1154.6" y="1292.04"/>
			<point x="1154.6" y="1164.256" type="curve" smooth="yes"/>
			<point x="1154.6" y="956.16"/>
			<point x="1035.424" y="769.296"/>
		</contour>
		<contour>
			<point x="440.32" y="71.016" type="line"/>
			<point x="856.024" y="1430" type="line"/>
			<point x="329.856" y="1430" type="line"/>
			<point x="323.208" y="1405.464" type="line"/>
			<point x="468.712" y="1358.984" type="line"/>
			<point x="74.248" y="73.608" type="line"/>
			<point x="-92.736" y="24.536" type="line"/>
			<point x="-99.384" y="0" type="line"/>
			<point x="579.176" y="0" type="line"/>
			<point x="584.824" y="24.536" type="line"/>
		</contour>
	</outline>
	<anchor name="UCtop" x="983.072" y="1430"/>
	<anchor name="bottom" x="764.08" y="0"/>
</glyph>
<glyph name="S" format="2">
	<unicode hex="0053"/>
	<advance width="1198.176"/>
	<outline>
		<contour>
			<point x="1102.688" y="1274.272" type="curve"/>
			<point x="1058.096" y="1353.368" type="line"/>
			<point x="1182.752" y="995.728" type="line"/>
			<point x="1214.768" y="995.728" type="line"/>
			<point x="1243.904" y="1501.496" type="line"/>
			<point x="1227.904" y="1501.496" type="line"/>
			<point x="1069.616" y="1380.48" type="line"/>
			<point x="1225.512" y="1347.832" type="line"/>
			<point x="1090.648" y="1425.312"/>
			<point x="972.152" y="1456.48"/>
			<point x="835.392" y="1456.48" type="curve" smooth="yes"/>
			<point x="491.424" y="1456.48"/>
			<point x="269.544" y="1278.76"/>
			<point x="269.544" y="1002.88" type="curve" smooth="yes"/>
			<point x="269.544" y="806.032"/>
			<point x="379.872" y="724.976"/>
			<point x="514.72" y="653.216" type="curve" smooth="yes"/>
			<point x="649.568" y="581.456"/>
			<point x="808.2" y="526.992"/>
			<point x="808.2" y="341.672" type="curve" smooth="yes"/>
			<point x="808.2" y="158.808"/>
			<point x="666.808" y="40.736"/>
			<point x="408.072" y="40.736" type="curve" smooth="yes"/>
			<point x="313.12" y="40.736"/>
			<point x="236.176" y="61.944"/>
			<point x="155.304" y="105.264" type="curve"/>
			<point x="248.416" y="22.648" type="line"/>
			<point x="71.408" y="444.752" type="line"/>
			<point x="38.224" y="444.752" type="line"/>
			<point x="33.504" y="34.224" type="line"/>
			<point x="140.408" y="-4.184"/>
			<point x="259.112" y="-26.48"/>
			<point x="425.232" y="-26.48" type="curve" smooth="yes"/>
			<point x="850.12" y="-26.48"/>
			<point x="1098.224" y="193.032"/>
			<point x="1098.224" y="482.232" type="curve" smooth="yes"/>
			<point x="1098.224" y="718.88"/>
			<point x="951.112" y="814.488"/>
			<point x="811.56" y="889.136" type="curve" smooth="yes"/>
			<point x="672.008" y="963.784"/>
			<point x="528.016" y="1020.064"/>
			<point x="528.016" y="1166.864" type="curve" smooth="yes"/>
			<point x="528.016" y="1315.312"/>
			<point x="638.904" y="1391.688"/>
			<point x="808.984" y="1391.688" type="curve" smooth="yes"/>
			<point x="933.616" y="1391.688"/>
			<point x="1030.432" y="1351.016"/>
		</contour>
	</outline>
	<anchor name="UCtop" x="805.864" y="1430"/>
	<anchor name="bottom" x="496.744" y="0"/>
</glyph>
<glyph name="T" format="2">
  <advance width="1475"/>
  <unicode hex="0054"/>
  <anchor x="1002.632" y="1430.0" name="UCtop"/>
  <anchor x="583.808" y="0.0" name="bottom"/>
  <outline>
    <contour>
      <point x="1552.04" y="1359.7440000000001" type="line"/>
      <point x="1454.3760000000002" y="1375.392" type="line"/>
      <point x="1544.2" y="941.752" type="line"/>
      <point x="1579.384" y="941.752" type="line"/>
      <point x="1676.0320000000002" y="1508.832" type="line"/>
      <point x="1657.736" y="1508.832" type="line"/>
      <point x="1414.92" y="1403.6319999999998" type="line"/>
      <point x="1555.464" y="1430.0" type="line"/>
      <point x="464.312" y="1430.0" type="line"/>
      <point x="591.544" y="1403.6319999999998" type="line"/>
      <point x="410.28" y="1508.832" type="line"/>
      <point x="391.984" y="1508.832" type="line"/>
      <point x="166.672" y="957.232" type="line"/>
      <point x="200.04" y="938.104" type="line"/>
      <point x="556.7919999999999" y="1375.392" type="line"/>
      <point x="414.536" y="1359.7440000000001" type="line"/>
    </contour>
    <contour>
      <point x="822.176" y="1395.464" type="line"/>
      <point x="416.12" y="73.608" type="line"/>
      <point x="249.13600000000002" y="24.535999999999998" type="line"/>
      <point x="242.488" y="0.0" type="line"/>
      <point x="921.048" y="0.0" type="line"/>
      <point x="926.696" y="24.535999999999998" type="line"/>
      <point x="782.192" y="71.016" type="line"/>
      <point x="1188.896" y="1395.464" type="line"/>
    </contour>
  </outline>
</glyph>
<glyph name="U" format="2">
	<unicode hex="0055"/>
	<advance width="1563.64"/>
	<outline>
		<contour>
			<point x="560.992" y="584.208" type="curve" smooth="yes"/>
			<point x="797.584" y="1356.392" type="line"/>
			<point x="964.568" y="1405.464" type="line"/>
			<point x="971.216" y="1430" type="line"/>
			<point x="293.304" y="1430" type="line"/>
			<point x="286.656" y="1405.464" type="line"/>
			<point x="432.16" y="1358.984" type="line"/>
			<point x="214.696" y="652.128" type="line" smooth="yes"/>
			<point x="82.768" y="222.88"/>
			<point x="253.408" y="-26.48"/>
			<point x="742.416" y="-26.48" type="curve" smooth="yes"/>
			<point x="1076.488" y="-26.48"/>
			<point x="1264.912" y="126.488"/>
			<point x="1389.096" y="534.576" type="curve" smooth="yes"/>
			<point x="1640.504" y="1361.632" type="line"/>
			<point x="1806.84" y="1405.464" type="line"/>
			<point x="1814.136" y="1430" type="line"/>
			<point x="1393.544" y="1430" type="line"/>
			<point x="1386.896" y="1405.464" type="line"/>
			<point x="1561.768" y="1359.688" type="line"/>
			<point x="1327.544" y="590.128" type="line" smooth="yes"/>
			<point x="1234.392" y="285.264"/>
			<point x="1092.496" y="169.816"/>
			<point x="852.92" y="169.816" type="curve" smooth="yes"/>
			<point x="577.992" y="169.816"/>
			<point x="474.56" y="301.688"/>
		</contour>
	</outline>
	<anchor name="UCtop" x="1142.56" y="1430"/>
	<anchor name="right" x="941.936" y="0"/>
	<anchor name="bottom" x="695.12" y="0"/>
	<anchor name="horn" x="1659.216" y="1430"/>
</glyph>
<glyph name="V" format="2">
	<unicode hex="0056"/>
	<advance width="1485.288"/>
	<outline>
		<contour>
			<point x="354.632" y="1351.264" type="line"/>
			<point x="501.768" y="-7.04" type="line"/>
			<point x="699.768" y="-7.04" type="line"/>
			<point x="1608.488" y="1349.096" type="line"/>
			<point x="1771.064" y="1405.464" type="line"/>
			<point x="1779.656" y="1430" type="line"/>
			<point x="1376.64" y="1430" type="line"/>
			<point x="1368.048" y="1405.464" type="line"/>
			<point x="1522.104" y="1352.096" type="line"/>
			<point x="769.792" y="217.776" type="line"/>
			<point x="816.472" y="217.776" type="line"/>
			<point x="713.464" y="1355.208" type="line"/>
			<point x="878.592" y="1405.464" type="line"/>
			<point x="887.832" y="1430" type="line"/>
			<point x="233.776" y="1430" type="line"/>
			<point x="225.184" y="1405.464" type="line"/>
		</contour>
	</outline>
	<anchor name="UCtop" x="1109.104" y="1430"/>
	<anchor name="bottom" x="626.304" y="0"/>
</glyph>
<glyph name="W" format="2">
	<unicode hex="0057"/>
	<advance width="2126.288"/>
	<outline>
		<contour>
			<point x="2166.496" y="1352.8" type="line"/>
			<point x="1536.992" y="268.176" type="line"/>
			<point x="1592.176" y="268.176" type="line"/>
			<point x="1571.112" y="1437.04" type="line"/>
			<point x="1356.28" y="1437.04" type="line"/>
			<point x="671.256" y="270.12" type="line"/>
			<point x="720.44" y="270.12" type="line"/>
			<point x="717.152" y="1353.448" type="line"/>
			<point x="887.376" y="1405.464" type="line"/>
			<point x="896.264" y="1430" type="line"/>
			<point x="239.112" y="1430" type="line"/>
			<point x="231.224" y="1405.464" type="line"/>
			<point x="359.616" y="1349.504" type="line"/>
			<point x="373.92" y="-7.04" type="line"/>
			<point x="582.288" y="-7.04" type="line"/>
			<point x="1277.712" y="1149.936" type="line"/>
			<point x="1212.024" y="1131.28" type="line"/>
			<point x="1238.92" y="-7.04" type="line"/>
			<point x="1447.288" y="-7.04" type="line"/>
			<point x="2252.472" y="1349.8" type="line"/>
			<point x="2413.288" y="1405.464" type="line"/>
			<point x="2421.176" y="1430" type="line"/>
			<point x="2018.92" y="1430" type="line"/>
			<point x="2010.68" y="1405.464" type="line"/>
		</contour>
	</outline>
	<anchor name="UCtop" x="1448.48" y="1430"/>
	<anchor name="bottom" x="971.6" y="0"/>
</glyph>
<glyph name="X" format="2">
	<unicode hex="0058"/>
	<advance width="1501.192"/>
	<outline>
		<contour>
			<point x="763.344" y="683.8" type="line"/>
			<point x="890.256" y="753.016" type="line"/>
			<point x="1549.4" y="1347.984" type="line"/>
			<point x="1709.752" y="1405.464" type="line"/>
			<point x="1716.4" y="1430" type="line"/>
			<point x="1294.072" y="1430" type="line"/>
			<point x="1287.776" y="1405.464" type="line"/>
			<point x="1443.056" y="1348.392" type="line"/>
			<point x="867.2" y="817.4" type="line"/>
			<point x="728.864" y="741.112" type="line"/>
			<point x="3.352" y="82.016" type="line"/>
			<point x="-157" y="24.536" type="line"/>
			<point x="-164" y="0" type="line"/>
			<point x="261.088" y="0" type="line"/>
			<point x="267.736" y="24.536" type="line"/>
			<point x="112.456" y="81.608" type="line"/>
		</contour>
		<contour>
			<point x="887.112" y="77.2" type="line"/>
			<point x="713.576" y="24.536" type="line"/>
			<point x="704.632" y="0" type="line"/>
			<point x="1392.872" y="0" type="line"/>
			<point x="1401.464" y="24.536" type="line"/>
			<point x="1264.072" y="79.2" type="line"/>
			<point x="972.248" y="847.528" type="line"/>
			<point x="962.952" y="872.824" type="line"/>
			<point x="784.656" y="1350.856" type="line"/>
			<point x="955.952" y="1405.464" type="line"/>
			<point x="962.896" y="1430" type="line"/>
			<point x="275.656" y="1430" type="line"/>
			<point x="267.712" y="1405.464" type="line"/>
			<point x="409.64" y="1348.856" type="line"/>
			<point x="669.28" y="661.88" type="line"/>
			<point x="677.632" y="640.768" type="line"/>
		</contour>
	</outline>
	<anchor name="UCtop" x="1093.504" y="1430"/>
	<anchor name="bottom" x="541.984" y="0"/>
</glyph>
<glyph name="Z" format="2">
	<unicode hex="005A"/>
	<advance width="1378.304"/>
	<outline>
		<contour>
			<point x="1544.064" y="1430" type="line"/>
			<point x="590.104" y="1430" type="line"/>
			<point x="466.664" y="1505.312" type="line"/>
			<point x="449.48" y="1505.312" type="line"/>
			<point x="200.192" y="1000.824" type="line"/>
			<point x="224.672" y="985.88" type="line"/>
			<point x="587.864" y="1359.744" type="line"/>
			<point x="1448.696" y="1359.744" type="line"/>
			<point x="1147.232" y="1418.664" type="line"/>
			<point x="-54.832" y="36.92" type="line"/>
			<point x="-66.256" y="0" type="line"/>
			<point x="921.552" y="0" type="line"/>
			<point x="1059.952" y="-71.44" type="line"/>
			<point x="1083.728" y="-71.44" type="line"/>
			<point x="1323.72" y="445.08" type="line"/>
			<point x="1299.832" y="458.08" type="line"/>
			<point x="928.144" y="70.256" type="line"/>
			<point x="160.568" y="70.256" type="line"/>
			<point x="334.576" y="14.984" type="line"/>
			<point x="1532.64" y="1392.728" type="line"/>
		</contour>
	</outline>
	<anchor name="UCtop" x="1016.56" y="1430"/>
	<anchor name="bottom" x="548" y="0"/>
</glyph>
<glyph name="bracketleft" format="2">
	<unicode hex="005B"/>
	<advance width="599.976"/>
	<outline>
		<contour>
			<point x="-54.088" y="-216.8" type="line"/>
			<point x="355.232" y="-216.8" type="line"/>
			<point x="366.824" y="-180.672" type="line"/>
			<point x="159.12" y="-152.784" type="line"/>
			<point x="634.456" y="1399.984" type="line"/>
			<point x="858.104" y="1427.872" type="line"/>
			<point x="869.696" y="1464" type="line"/>
			<point x="459.728" y="1464" type="line"/>
		</contour>
	</outline>
</glyph>
<glyph name="backslash" format="2">
  <advance width="752.648"/>
  <unicode hex="005C"/>
  <outline>
    <contour>
      <point x="543.832" y="0.0" type="line"/>
      <point x="404.112" y="1430.0" type="line"/>
      <point x="329.816" y="1430.0" type="line"/>
      <point x="469.536" y="0.0" type="line"/>
    </contour>
  </outline>
</glyph>
<glyph name="bracketright" format="2">
	<unicode hex="005D"/>
	<advance width="600.272"/>
	<outline>
		<contour>
			<point x="721.896" y="1464" type="line"/>
			<point x="311.928" y="1464" type="line"/>
			<point x="300.984" y="1427.872" type="line"/>
			<point x="508.04" y="1399.984" type="line"/>
			<point x="33.352" y="-152.784" type="line"/>
			<point x="-190.944" y="-180.672" type="line"/>
			<point x="-201.888" y="-216.8" type="line"/>
			<point x="208.08" y="-216.8" type="line"/>
		</contour>
	</outline>
</glyph>
<glyph name="asciicircum" format="2">
  <advance width="1150.0"/>
  <unicode hex="005E"/>
  <outline>
    <contour>
      <point x="831.5200000000001" y="1341.08" type="line"/>
      <point x="942.28" y="662.0" type="line"/>
      <point x="1026.368" y="662.0" type="line"/>
      <point x="899.3679999999999" y="1430.0" type="line"/>
      <point x="815.336" y="1430.0" type="line"/>
      <point x="220.336" y="662.0" type="line"/>
      <point x="320.424" y="662.0" type="line"/>
      <point x="842.632" y="1341.08" type="line"/>
    </contour>
  </outline>
</glyph>
<glyph name="a" format="2">
	<unicode hex="0061"/>
	<advance width="1199.352"/>
	<outline>
		<contour>
			<point x="604.392" y="99.288" type="line" smooth="yes"/>
			<point x="578.968" y="24.608"/>
			<point x="616.984" y="-26.48"/>
			<point x="701.776" y="-26.48" type="curve" smooth="yes"/>
			<point x="841.192" y="-26.48"/>
			<point x="1004.888" y="77.96"/>
			<point x="1169.832" y="350.864" type="curve"/>
			<point x="1158.24" y="359.808" type="line"/>
			<point x="1036.4" y="217.448"/>
			<point x="942.896" y="158.32"/>
			<point x="863.328" y="145.864" type="curve"/>
			<point x="890.808" y="107.088" type="line"/>
			<point x="1199.976" y="1024" type="line"/>
			<point x="901.544" y="1024" type="line"/>
			<point x="860.712" y="904.208" type="line"/>
			<point x="712.56" y="474.512" type="line" smooth="yes"/>
			<point x="558.888" y="216.976"/>
			<point x="467.4" y="171.264"/>
			<point x="407.896" y="171.264" type="curve" smooth="yes"/>
			<point x="357.024" y="171.264"/>
			<point x="335.52" y="193.84"/>
			<point x="335.52" y="266.176" type="curve" smooth="yes"/>
			<point x="335.52" y="521.368"/>
			<point x="582.568" y="925.752"/>
			<point x="763.168" y="925.752" type="curve" smooth="yes"/>
			<point x="811.744" y="925.752"/>
			<point x="850.912" y="906.344"/>
			<point x="882.672" y="848.304" type="curve"/>
			<point x="892.968" y="880.136" type="line"/>
			<point x="827.176" y="997.592"/>
			<point x="745.216" y="1049.072"/>
			<point x="656.904" y="1049.072" type="curve" smooth="yes"/>
			<point x="340.04" y="1049.072"/>
			<point x="-9.312" y="552.216"/>
			<point x="-9.312" y="183.256" type="curve" smooth="yes"/>
			<point x="-9.312" y="58.608"/>
			<point x="78.056" y="-26.48"/>
			<point x="208.976" y="-26.48" type="curve" smooth="yes"/>
			<point x="363.392" y="-26.48"/>
			<point x="500.464" y="66.464"/>
			<point x="747.408" y="476.64" type="curve"/>
			<point x="731.872" y="481.176" type="line"/>
		</contour>
	</outline>
	<anchor name="top" x="791.976" y="1024"/>
	<anchor name="right" x="1011.12" y="0"/>
	<anchor name="bottom" x="468.392" y="0"/>
</glyph>
<glyph name="b" format="2">
	<unicode hex="0062"/>
	<advance width="1135"/>
	<outline>
		<contour>
			<point x="310.976" y="202.856" type="curve" smooth="yes"/>
			<point x="436.048" y="614.648" type="line" smooth="yes"/>
			<point x="483.264" y="719.88"/>
			<point x="604.144" y="860.608"/>
			<point x="708.232" y="860.608" type="curve" smooth="yes"/>
			<point x="762.088" y="860.608"/>
			<point x="782.832" y="827.048"/>
			<point x="782.832" y="767.728" type="curve" smooth="yes"/>
			<point x="782.832" y="465.144"/>
			<point x="566.152" y="24.424"/>
			<point x="388.72" y="24.424" type="curve" smooth="yes"/>
			<point x="330.384" y="24.424"/>
			<point x="298.92" y="61.296"/>
			<point x="298.92" y="127.52" type="curve" smooth="yes"/>
			<point x="298.92" y="151.28"/>
			<point x="303.272" y="176.744"/>
		</contour>
		<contour>
			<point x="337.176" y="1232.368" type="curve"/>
			<point x="76.76" y="382.728" type="line" smooth="yes"/>
			<point x="62.408" y="336.672"/>
			<point x="56.056" y="292.968"/>
			<point x="56.056" y="253.616" type="curve" smooth="yes"/>
			<point x="56.056" y="83.088"/>
			<point x="181.008" y="-26.48"/>
			<point x="382.256" y="-26.48" type="curve" smooth="yes"/>
			<point x="789.384" y="-26.48"/>
			<point x="1135.664" y="429.304"/>
			<point x="1135.664" y="804.336" type="curve" smooth="yes"/>
			<point x="1135.664" y="955.704"/>
			<point x="1051.592" y="1050.48"/>
			<point x="902.56" y="1050.48" type="curve" smooth="yes"/>
			<point x="764.472" y="1050.48"/>
			<point x="604.16" y="940.128"/>
			<point x="438.216" y="683.816" type="curve"/>
			<point x="449.568" y="679.944" type="line"/>
			<point x="737.744" y="1490.48" type="line"/>
			<point x="722.432" y="1490.48" type="line"/>
			<point x="191.064" y="1394.688" type="line"/>
			<point x="186.232" y="1371.192" type="line"/>
			<point x="244.232" y="1318.288"/>
			<point x="299.176" y="1267.088"/>
		</contour>
	</outline>
	<anchor name="UCtop" x="858.832" y="1430"/>
	<anchor name="bottom" x="351.496" y="0"/>
</glyph>
<glyph name="c" format="2">
	<unicode hex="0063"/>
	<advance width="918.896"/>
	<outline>
		<contour>
			<point x="687.592" y="992.8" type="curve" smooth="yes"/>
			<point x="742.776" y="992.8"/>
			<point x="760.016" y="965.968"/>
			<point x="731.832" y="865.656" type="curve" smooth="yes"/>
			<point x="703.648" y="765.344"/>
			<point x="727" y="729.568"/>
			<point x="798.48" y="729.568" type="curve" smooth="yes"/>
			<point x="895.808" y="729.568"/>
			<point x="967.968" y="794.048"/>
			<point x="967.968" y="883.264" type="curve" smooth="yes"/>
			<point x="967.968" y="978.76"/>
			<point x="898.656" y="1050.48"/>
			<point x="709.28" y="1050.48" type="curve" smooth="yes"/>
			<point x="311.576" y="1050.48"/>
			<point x="30.928" y="689.808"/>
			<point x="30.928" y="308.208" type="curve" smooth="yes"/>
			<point x="30.928" y="105.4"/>
			<point x="144.96" y="-26.48"/>
			<point x="370.408" y="-26.48" type="curve" smooth="yes"/>
			<point x="570.008" y="-26.48"/>
			<point x="713.968" y="75"/>
			<point x="849.336" y="422.864" type="curve"/>
			<point x="835.096" y="423.568" type="line"/>
			<point x="724.632" y="230.896"/>
			<point x="622.24" y="169.912"/>
			<point x="503.224" y="169.912" type="curve" smooth="yes"/>
			<point x="394.968" y="169.912"/>
			<point x="348.32" y="229.744"/>
			<point x="348.32" y="364.616" type="curve" smooth="yes"/>
			<point x="348.32" y="706.96"/>
			<point x="524.264" y="992.8"/>
		</contour>
	</outline>
	<anchor name="top" x="634.392" y="1024"/>
	<anchor name="right" x="733.368" y="0"/>
	<anchor name="bottom" x="312.512" y="0"/>
</glyph>
<glyph name="d" format="2">
	<unicode hex="0064"/>
	<advance width="1222.104"/>
	<outline>
		<contour>
			<point x="911.28" y="783.384" type="curve"/>
			<point x="916.984" y="832.288" type="line"/>
			<point x="846.656" y="984.352"/>
			<point x="756.456" y="1049.072"/>
			<point x="656.904" y="1049.072" type="curve" smooth="yes"/>
			<point x="333" y="1049.072"/>
			<point x="-10.016" y="542.36"/>
			<point x="-10.016" y="183.256" type="curve" smooth="yes"/>
			<point x="-10.016" y="58.608"/>
			<point x="77.352" y="-26.48"/>
			<point x="208.272" y="-26.48" type="curve" smooth="yes"/>
			<point x="342.8" y="-26.48"/>
			<point x="486.464" y="40.224"/>
			<point x="746.704" y="476.64" type="curve"/>
			<point x="734.408" y="477.936" type="line"/>
			<point x="618.52" y="127.64" type="line" smooth="yes"/>
			<point x="586.688" y="31.088"/>
			<point x="624.536" y="-26.48"/>
			<point x="717.272" y="-26.48" type="curve" smooth="yes"/>
			<point x="857.392" y="-26.48"/>
			<point x="1031.512" y="83.24"/>
			<point x="1199.624" y="350.864" type="curve"/>
			<point x="1188.032" y="359.808" type="line"/>
			<point x="1010.904" y="159.664"/>
			<point x="900.2" y="132.104"/>
			<point x="816.152" y="135.144" type="curve"/>
			<point x="909.544" y="86.352" type="line"/>
			<point x="1373.576" y="1490.48" type="line"/>
			<point x="1358.264" y="1490.48" type="line"/>
			<point x="825.6" y="1394.688" type="line"/>
			<point x="820.064" y="1371.192" type="line"/>
			<point x="877.064" y="1319.5875031003"/>
			<point x="938.952" y="1263.0163138314"/>
			<point x="974.952" y="1230.424" type="curve"/>
			<point x="715.096" y="481.64" type="line" smooth="yes"/>
			<point x="568.552" y="243.544"/>
			<point x="471.232" y="171.264"/>
			<point x="407.192" y="171.264" type="curve" smooth="yes"/>
			<point x="357.024" y="171.264"/>
			<point x="334.816" y="193.488"/>
			<point x="334.816" y="266.176" type="curve" smooth="yes"/>
			<point x="334.816" y="486.904"/>
			<point x="569.064" y="925.752"/>
			<point x="762.464" y="925.752" type="curve" smooth="yes"/>
			<point x="825.872" y="925.752"/>
			<point x="872.632" y="892.512"/>
		</contour>
	</outline>
	<anchor name="UCtop" x="945.784" y="1430"/>
	<anchor name="right" x="1365.632" y="1464"/>
	<anchor name="bottom" x="465.016" y="0"/>
	<anchor name="center" x="1056.304" y="1207"/>
</glyph>
<glyph name="e" format="2">
	<unicode hex="0065"/>
	<advance width="958.984"/>
	<outline>
		<contour>
			<point x="667.648" y="991.04" type="curve" smooth="yes"/>
			<point x="708.152" y="991.04"/>
			<point x="731.784" y="962.1004444444"/>
			<point x="731.784" y="895.24" type="curve" smooth="yes"/>
			<point x="731.784" y="750.24"/>
			<point x="648.744" y="642.112"/>
			<point x="273" y="506.504" type="curve"/>
			<point x="267" y="469.024" type="line"/>
			<point x="496.464" y="526.08"/>
			<point x="779.016" y="604.528"/>
			<point x="920.52" y="663.248" type="curve"/>
			<point x="963.76" y="721.6"/>
			<point x="985.888" y="790.08"/>
			<point x="985.888" y="861.336" type="curve" smooth="yes"/>
			<point x="985.888" y="957.4245269461"/>
			<point x="924" y="1050.48"/>
			<point x="704" y="1050.48" type="curve" smooth="yes"/>
			<point x="265.896" y="1050.48"/>
			<point x="29.168" y="628.4917481108"/>
			<point x="29.168" y="308.208" type="curve" smooth="yes"/>
			<point x="29.168" y="113.176"/>
			<point x="136.4702230604" y="-26.48"/>
			<point x="371.112" y="-26.48" type="curve" smooth="yes"/>
			<point x="561.824" y="-26.48"/>
			<point x="733.168" y="54.392"/>
			<point x="875.832" y="422.864" type="curve"/>
			<point x="861.592" y="423.568" type="line"/>
			<point x="741.296" y="215.232"/>
			<point x="620.816" y="169.912"/>
			<point x="504.632" y="169.912" type="curve" smooth="yes"/>
			<point x="395.32" y="169.912"/>
			<point x="346.56" y="229.744"/>
			<point x="346.56" y="364.616" type="curve" smooth="yes"/>
			<point x="346.56" y="679.856"/>
			<point x="509.744" y="991.04"/>
		</contour>
	</outline>
	<anchor name="top" x="644.072" y="1024"/>
	<anchor name="right" x="728.064" y="0"/>
	<anchor name="bottom" x="331.048" y="0"/>
</glyph>
<glyph name="f" format="2">
	<unicode hex="0066"/>
	<advance width="738"/>
	<outline>
		<contour>
			<point x="118.744" y="950.616" type="line"/>
			<point x="894.664" y="950.616" type="line"/>
			<point x="908.552" y="1024" type="line"/>
			<point x="130.984" y="1024" type="line"/>
		</contour>
		<contour>
			<point x="479.608" y="293.376" type="curve" smooth="yes"/>
			<point x="689.144" y="1107.84" type="line" smooth="yes"/>
			<point x="752.016" y="1353.44"/>
			<point x="838.448" y="1439.816"/>
			<point x="936.264" y="1439.816" type="curve" smooth="yes"/>
			<point x="983.152" y="1439.816"/>
			<point x="1000.392" y="1412.464"/>
			<point x="980.264" y="1318.376" type="curve" smooth="yes"/>
			<point x="960.136" y="1224.288"/>
			<point x="978.912" y="1177.328"/>
			<point x="1052.592" y="1177.328" type="curve" smooth="yes"/>
			<point x="1146.496" y="1177.328"/>
			<point x="1218.752" y="1244.232"/>
			<point x="1218.752" y="1344.024" type="curve" smooth="yes"/>
			<point x="1218.752" y="1425.928"/>
			<point x="1152.904" y="1490.48"/>
			<point x="994.672" y="1490.48" type="curve" smooth="yes"/>
			<point x="649.608" y="1490.48"/>
			<point x="386.56" y="1254.904"/>
			<point x="316.04" y="933.4" type="curve" smooth="yes"/>
			<point x="103.264" y="-38.232" type="line" smooth="yes"/>
			<point x="40.832" y="-321.312"/>
			<point x="-43.264" y="-403.744"/>
			<point x="-130.432" y="-403.744" type="curve" smooth="yes"/>
			<point x="-177.096" y="-403.744"/>
			<point x="-187.096" y="-380.672"/>
			<point x="-163.32" y="-282.4" type="curve" smooth="yes"/>
			<point x="-139.544" y="-184.128"/>
			<point x="-161.08" y="-141.632"/>
			<point x="-247.128" y="-141.632" type="curve" smooth="yes"/>
			<point x="-335.4" y="-141.632"/>
			<point x="-386.656" y="-206.888"/>
			<point x="-386.656" y="-285.624" type="curve" smooth="yes"/>
			<point x="-386.656" y="-390.08"/>
			<point x="-305.792" y="-465"/>
			<point x="-156.12" y="-465" type="curve" smooth="yes"/>
			<point x="92.456" y="-465"/>
			<point x="338.648" y="-254.616"/>
		</contour>
	</outline>
	<anchor name="UCtop" x="871.64" y="1430"/>
	<anchor name="bottom" x="25.928" y="-438.52"/>
</glyph>
<glyph name="g" format="2">
	<unicode hex="0067"/>
	<advance width="1030"/>
	<outline>
		<contour>
			<point x="1082.872" y="874.08" type="curve" smooth="yes"/>
			<point x="1156.736" y="874.08"/>
			<point x="1213.808" y="953.648"/>
			<point x="1213.808" y="1024.312" type="curve" smooth="yes"/>
			<point x="1213.808" y="1052.552"/>
			<point x="1197.976" y="1067.2"/>
			<point x="1170.976" y="1067.2" type="curve" smooth="yes"/>
			<point x="1114.976" y="1067.2"/>
			<point x="1026.016" y="1018.592"/>
			<point x="710.328" y="1039.832" type="curve"/>
			<point x="705.832" y="1008.52" type="line"/>
			<point x="983.728" y="1037.048"/>
			<point x="1006.416" y="874.08"/>
		</contour>
		<contour>
			<point x="423.312" y="410.96" type="curve"/>
			<point x="394.16" y="410.96"/>
			<point x="379.584" y="430.944"/>
			<point x="379.584" y="495.208" type="curve" smooth="yes"/>
			<point x="379.584" y="687.712"/>
			<point x="514.76" y="997.688"/>
			<point x="633.968" y="997.688" type="curve"/>
			<point x="663.12" y="997.688"/>
			<point x="677.696" y="977.704"/>
			<point x="677.696" y="913.44" type="curve" smooth="yes"/>
			<point x="677.696" y="720.936"/>
			<point x="542.52" y="410.96"/>
		</contour>
		<contour>
			<point x="625.616" y="1050.128" type="curve"/>
			<point x="325.352" y="1050.128"/>
			<point x="116.296" y="862.176"/>
			<point x="116.296" y="628.768" type="curve" smooth="yes"/>
			<point x="116.296" y="466.736"/>
			<point x="220.568" y="358.52"/>
			<point x="431.664" y="358.52" type="curve"/>
			<point x="730.168" y="358.52"/>
			<point x="940.984" y="539.432"/>
			<point x="940.984" y="776.36" type="curve" smooth="yes"/>
			<point x="940.984" y="938.392"/>
			<point x="836.712" y="1050.128"/>
		</contour>
		<contour>
			<point x="289.168" y="-465" type="curve" smooth="yes"/>
			<point x="664.04" y="-465"/>
			<point x="887.952" y="-323.224"/>
			<point x="887.952" y="-121.16" type="curve" smooth="yes"/>
			<point x="887.952" y="14.0196363636"/>
			<point x="771.1237904272" y="116.248695345"/>
			<point x="493.448" y="180.376" type="curve" smooth="yes"/>
			<point x="216.6606279763" y="244.4007810011"/>
			<point x="198.936" y="260.584"/>
			<point x="198.936" y="299.104" type="curve" smooth="yes"/>
			<point x="198.936" y="334.088"/>
			<point x="226.568" y="366.664"/>
			<point x="317.16" y="374.296" type="curve"/>
			<point x="313.416" y="402.424" type="line"/>
			<point x="114.096" y="389.344"/>
			<point x="-4.672" y="289.128"/>
			<point x="-4.672" y="159.36" type="curve" smooth="yes"/>
			<point x="-4.672" y="50.328"/>
			<point x="59.584" y="-30.352"/>
			<point x="311.096" y="-84.52" type="curve" smooth="yes"/>
			<point x="566.48" y="-139.744"/>
			<point x="646.48" y="-194.008"/>
			<point x="646.48" y="-264.568" type="curve" smooth="yes"/>
			<point x="646.48" y="-347.368"/>
			<point x="546.2" y="-409.616"/>
			<point x="343.784" y="-409.616" type="curve" smooth="yes"/>
			<point x="101.752" y="-409.616"/>
			<point x="32.248" y="-328.856"/>
			<point x="32.248" y="-231.664" type="curve" smooth="yes"/>
			<point x="32.248" y="-145.32"/>
			<point x="89.672" y="-68.664"/>
			<point x="268.44" y="-44.688" type="curve"/>
			<point x="268.44" y="-26.984" type="line"/>
			<point x="231.912" y="-26.984" type="line"/>
			<point x="-61.36" y="-64.872"/>
			<point x="-157.496" y="-145.304"/>
			<point x="-157.496" y="-250.864" type="curve" smooth="yes"/>
			<point x="-157.496" y="-367.072"/>
			<point x="-46.328" y="-465"/>
		</contour>
	</outline>
	<anchor name="top" x="615.392" y="1024"/>
	<anchor name="bottom" x="326.992" y="-438.52"/>
</glyph>
<glyph name="h" format="2">
	<unicode hex="0068"/>
	<advance width="1209.52"/>
	<outline>
		<contour>
			<point x="450.6" y="518.168" type="line"/>
			<point x="502.56" y="648.128"/>
			<point x="635.888" y="827.184"/>
			<point x="747.104" y="827.184" type="curve" smooth="yes"/>
			<point x="791.664" y="827.184"/>
			<point x="816.128" y="808.368"/>
			<point x="816.128" y="770.256" type="curve" smooth="yes"/>
			<point x="816.128" y="747.552"/>
			<point x="805.424" y="717.552"/>
			<point x="758.056" y="603.872" type="curve" smooth="yes"/>
			<point x="557.712" y="122.456" type="line" smooth="yes"/>
			<point x="520.176" y="31.736"/>
			<point x="563.248" y="-26.48"/>
			<point x="684.24" y="-26.48" type="curve" smooth="yes"/>
			<point x="825.416" y="-26.48"/>
			<point x="993.28" y="74.408"/>
			<point x="1177.648" y="334.016" type="curve"/>
			<point x="1166.704" y="343.608" type="line"/>
			<point x="975.096" y="153.776"/>
			<point x="862.04" y="134.104"/>
			<point x="775.824" y="142.92" type="curve"/>
			<point x="863.272" y="88.648" type="line"/>
			<point x="1087.592" y="640.216" type="line" smooth="yes"/>
			<point x="1142.776" y="775.528"/>
			<point x="1152.128" y="827.192"/>
			<point x="1152.128" y="878.024" type="curve" smooth="yes"/>
			<point x="1152.128" y="972.872"/>
			<point x="1089.632" y="1050.48"/>
			<point x="941.416" y="1050.48" type="curve" smooth="yes"/>
			<point x="776.128" y="1050.48"/>
			<point x="653.888" y="976.408"/>
			<point x="434.624" y="556.528" type="curve"/>
			<point x="444.44" y="556.528" type="line"/>
			<point x="765.208" y="1490.48" type="line"/>
			<point x="749.896" y="1490.48" type="line"/>
			<point x="226.952" y="1394.688" type="line"/>
			<point x="221.416" y="1371.192" type="line"/>
			<point x="278.416" y="1319.0473311258"/>
			<point x="337.064" y="1265.3014750784"/>
			<point x="373.064" y="1232.368" type="curve"/>
			<point x="-36.144" y="0" type="line"/>
			<point x="274.6" y="0" type="line"/>
		</contour>
	</outline>
	<anchor name="UCtop" x="877.944" y="1430"/>
	<anchor name="bottom" x="424.136" y="0"/>
	<anchor name="center" x="578.816" y="1207"/>
</glyph>
<glyph name="i" format="2">
	<unicode hex="0069"/>
	<advance width="687.792"/>
	<outline>
		<contour>
			<point x="65.648" y="159.392" type="line" smooth="yes"/>
			<point x="16.856" y="25.904"/>
			<point x="44.744" y="-26.48"/>
			<point x="171.048" y="-26.48" type="curve" smooth="yes"/>
			<point x="310.872" y="-26.48"/>
			<point x="484.344" y="76.112"/>
			<point x="649.216" y="336.608" type="curve"/>
			<point x="637.624" y="344.256" type="line"/>
			<point x="453.064" y="144.384"/>
			<point x="342.44" y="130.696"/>
			<point x="261.856" y="138.904" type="curve"/>
			<point x="353.248" y="88" type="line"/>
			<point x="642.328" y="873.68" type="line" smooth="yes"/>
			<point x="684.88" y="990.04"/>
			<point x="664.936" y="1041.408"/>
			<point x="535.336" y="1041.408" type="curve" smooth="yes"/>
			<point x="386.216" y="1041.408"/>
			<point x="221.688" y="940.76"/>
			<point x="45.152" y="686.096" type="curve"/>
			<point x="58.04" y="676.504" type="line"/>
			<point x="224.08" y="845.36"/>
			<point x="291.216" y="871.4"/>
			<point x="400.944" y="856.104" type="curve"/>
			<point x="352.136" y="936" type="line"/>
		</contour>
		<contour>
			<point x="455.296" y="1306.656" type="curve" smooth="yes"/>
			<point x="455.296" y="1222.512"/>
			<point x="515.608" y="1154.976"/>
			<point x="612.4" y="1154.976" type="curve" smooth="yes"/>
			<point x="723.096" y="1154.976"/>
			<point x="797.256" y="1236.12"/>
			<point x="797.256" y="1329.336" type="curve" smooth="yes"/>
			<point x="797.256" y="1412.776"/>
			<point x="738" y="1478.496"/>
			<point x="641.56" y="1478.496" type="curve" smooth="yes"/>
			<point x="530.512" y="1478.496"/>
			<point x="455.296" y="1399.168"/>
		</contour>
	</outline>
	<anchor name="top" x="648.616" y="1430"/>
	<anchor name="bottom" x="190.912" y="0"/>
	<anchor name="right" x="399.304" y="0"/>
</glyph>
<glyph name="j" format="2">
  <advance width="637.624"/>
  <unicode hex="006A"/>
  <anchor x="612.4720000000001" y="1430.0" name="top"/>
  <anchor x="-99.496" y="-438.52" name="bottom"/>
  <outline>
    <contour>
      <point x="433.464" y="1306.656" type="curve" smooth="yes"/>
      <point x="433.464" y="1222.512"/>
      <point x="493.77599999999995" y="1154.9759999999999"/>
      <point x="590.568" y="1154.9759999999999" type="curve" smooth="yes"/>
      <point x="701.2639999999999" y="1154.9759999999999"/>
      <point x="775.424" y="1236.12"/>
      <point x="775.424" y="1329.336" type="curve" smooth="yes"/>
      <point x="775.424" y="1412.7759999999998"/>
      <point x="716.1679999999999" y="1478.4959999999999"/>
      <point x="619.728" y="1478.4959999999999" type="curve" smooth="yes"/>
      <point x="508.67999999999995" y="1478.4959999999999"/>
      <point x="433.464" y="1399.168"/>
    </contour>
    <contour>
      <point x="401.11199999999997" y="168.59199999999998" type="curve" smooth="yes"/>
      <point x="621.7919999999999" y="873.68" type="line" smooth="yes"/>
      <point x="658.4" y="991.336"/>
      <point x="644.4" y="1041.4080000000001"/>
      <point x="514.8000000000001" y="1041.4080000000001" type="curve" smooth="yes"/>
      <point x="365.68" y="1041.4080000000001"/>
      <point x="203.744" y="940.112"/>
      <point x="31.096000000000004" y="686.096" type="curve"/>
      <point x="43.983999999999995" y="676.504" type="line"/>
      <point x="196.416" y="844.064"/>
      <point x="270.68" y="871.4"/>
      <point x="380.40799999999996" y="856.1039999999999" type="curve"/>
      <point x="331.6" y="936.0" type="line"/>
      <point x="3.6959999999999944" y="-134.184" type="line" smooth="yes"/>
      <point x="-63.256" y="-349.336"/>
      <point x="-110.832" y="-403.744"/>
      <point x="-163.872" y="-403.744" type="curve" smooth="yes"/>
      <point x="-210.76000000000002" y="-403.744"/>
      <point x="-227.46399999999997" y="-380.856"/>
      <point x="-203.448" y="-280.10400000000004" type="curve" smooth="yes"/>
      <point x="-179.432" y="-178.70399999999998"/>
      <point x="-200.56" y="-135.152"/>
      <point x="-286.312" y="-135.152" type="curve" smooth="yes"/>
      <point x="-375.88" y="-135.152"/>
      <point x="-427.13599999999997" y="-205.59199999999998"/>
      <point x="-427.13599999999997" y="-285.62399999999997" type="curve" smooth="yes"/>
      <point x="-427.13599999999997" y="-387.616"/>
      <point x="-347.68" y="-465.0"/>
      <point x="-196.60000000000002" y="-465.0" type="curve" smooth="yes"/>
      <point x="42.047999999999995" y="-465.0"/>
      <point x="268.98400000000004" y="-257.06399999999996"/>
    </contour>
  </outline>
</glyph>
<glyph name="k" format="2">
	<unicode hex="006B"/>
	<advance width="1177.176"/>
	<outline>
		<contour>
			<point x="765.208" y="1490.48" type="line"/>
			<point x="749.896" y="1490.48" type="line"/>
			<point x="226.952" y="1394.688" type="line"/>
			<point x="221.416" y="1371.192" type="line"/>
			<point x="278.416" y="1319.0473311258"/>
			<point x="337.064" y="1265.3014750784"/>
			<point x="373.064" y="1232.368" type="curve"/>
			<point x="-36.144" y="0" type="line"/>
			<point x="278.488" y="0" type="line"/>
		</contour>
		<contour>
			<point x="447.712" y="542.264" type="line"/>
			<point x="560.088" y="64.456"/>
			<point x="618.4" y="-26.48"/>
			<point x="727.08" y="-26.48" type="curve" smooth="yes"/>
			<point x="853.072" y="-26.48"/>
			<point x="973.6" y="64.624"/>
			<point x="1130.784" y="357.288" type="curve"/>
			<point x="1117.488" y="365.584" type="line"/>
			<point x="1007.392" y="211.984"/>
			<point x="951.928" y="176.464"/>
			<point x="909.816" y="176.464" type="curve" smooth="yes"/>
			<point x="854.576" y="176.464"/>
			<point x="797.168" y="270.56"/>
			<point x="675.632" y="761.648" type="curve"/>
			<point x="628.592" y="700.792" type="line"/>
			<point x="759.288" y="833.456"/>
			<point x="878.136" y="902.504"/>
			<point x="947.192" y="902.504" type="curve" smooth="yes"/>
			<point x="979.504" y="902.504"/>
			<point x="991.04" y="887.264"/>
			<point x="988.224" y="819.472" type="curve" smooth="yes"/>
			<point x="985.408" y="751.68"/>
			<point x="1005.944" y="719.144"/>
			<point x="1071.368" y="719.144" type="curve" smooth="yes"/>
			<point x="1160.92" y="719.144"/>
			<point x="1245.472" y="792.456"/>
			<point x="1245.472" y="908.728" type="curve" smooth="yes"/>
			<point x="1245.472" y="989.224"/>
			<point x="1192.568" y="1050.48"/>
			<point x="1080.352" y="1050.48" type="curve" smooth="yes"/>
			<point x="960.04" y="1050.48"/>
			<point x="810.656" y="947.576"/>
			<point x="456.192" y="566.464" type="curve"/>
		</contour>
	</outline>
	<anchor name="UCtop" x="908.144" y="1430"/>
	<anchor name="bottom" x="480.624" y="0"/>
</glyph>
<glyph name="l" format="2">
	<unicode hex="006C"/>
	<advance width="642.048"/>
	<outline>
		<contour>
			<point x="369.88" y="1233.016" type="curve"/>
			<point x="26.592" y="160.04" type="line" smooth="yes"/>
			<point x="-16.608" y="24.552"/>
			<point x="5.688" y="-26.48"/>
			<point x="134.456" y="-26.48" type="curve" smooth="yes"/>
			<point x="271.056" y="-26.48"/>
			<point x="446.472" y="83.888"/>
			<point x="617.176" y="354.104" type="curve"/>
			<point x="605.584" y="361.752" type="line"/>
			<point x="415.176" y="152.272"/>
			<point x="301.16" y="131.4"/>
			<point x="222.208" y="138.904" type="curve"/>
			<point x="312.192" y="87.648" type="line"/>
			<point x="762.136" y="1490.48" type="line"/>
			<point x="746.824" y="1490.48" type="line"/>
			<point x="223.768" y="1394.688" type="line"/>
			<point x="218.232" y="1371.192" type="line"/>
			<point x="275.232" y="1319.2903311258"/>
			<point x="333.88" y="1265.7960013942"/>
		</contour>
	</outline>
	<anchor name="UCtop" x="560.464" y="1430"/>
	<anchor name="bottom" x="150.672" y="0"/>
	<anchor name="right" x="753.544" y="1464"/>
	<anchor name="mid" x="688.888" y="582"/>
</glyph>
<glyph name="m" format="2">
	<unicode hex="006D"/>
	<advance width="1810.384"/>
	<outline>
		<contour>
			<point x="1464.136" y="88.648" type="line"/>
			<point x="1688.456" y="640.216" type="line" smooth="yes"/>
			<point x="1743.64" y="775.528"/>
			<point x="1752.992" y="827.192"/>
			<point x="1752.992" y="878.024" type="curve" smooth="yes"/>
			<point x="1752.992" y="972.872"/>
			<point x="1693.088" y="1050.48"/>
			<point x="1550.704" y="1050.48" type="curve" smooth="yes"/>
			<point x="1376.064" y="1050.48"/>
			<point x="1261.024" y="948.96"/>
			<point x="1037.992" y="510.392" type="curve"/>
			<point x="1058.232" y="510.392" type="line"/>
			<point x="1115.032" y="682.456" type="line" smooth="yes"/>
			<point x="1149.712" y="790.032"/>
			<point x="1158.952" y="837.88"/>
			<point x="1158.952" y="882.728" type="curve" smooth="yes"/>
			<point x="1158.952" y="980.04"/>
			<point x="1103.008" y="1050.48"/>
			<point x="977.976" y="1050.48" type="curve" smooth="yes"/>
			<point x="823.352" y="1050.48"/>
			<point x="711.592" y="966.072"/>
			<point x="514" y="568.848" type="curve"/>
			<point x="522.056" y="568.848" type="line"/>
			<point x="666.144" y="1022.944" type="line"/>
			<point x="599.28" y="1040.24"/>
			<point x="561.8" y="1046.592"/>
			<point x="486.232" y="1046.592" type="curve" smooth="yes"/>
			<point x="299.28" y="1046.592"/>
			<point x="182.56" y="945.832"/>
			<point x="45.856" y="607.52" type="curve"/>
			<point x="57.504" y="601.872" type="line"/>
			<point x="173.416" y="819.192"/>
			<point x="243.976" y="855.808"/>
			<point x="290.864" y="855.808" type="curve" smooth="yes"/>
			<point x="317.752" y="855.808"/>
			<point x="321.4" y="831.864"/>
			<point x="310.16" y="799.144" type="curve"/>
			<point x="40.248" y="0" type="line"/>
			<point x="349.048" y="0" type="line"/>
			<point x="525.4" y="520.28" type="line" smooth="yes"/>
			<point x="583.752" y="669.712"/>
			<point x="705.784" y="827.184"/>
			<point x="795.328" y="827.184" type="curve" smooth="yes"/>
			<point x="827.536" y="827.184"/>
			<point x="844.52" y="814.776"/>
			<point x="844.52" y="787.328" type="curve" smooth="yes"/>
			<point x="844.52" y="764.384"/>
			<point x="836.224" y="734.088"/>
			<point x="798.6" y="627.104" type="curve" smooth="yes"/>
			<point x="578.312" y="0" type="line"/>
			<point x="895.536" y="0" type="line"/>
			<point x="1078.592" y="520.632" type="line"/>
			<point x="1133.368" y="656.28"/>
			<point x="1252.696" y="827.184"/>
			<point x="1356.392" y="827.184" type="curve" smooth="yes"/>
			<point x="1395.768" y="827.184"/>
			<point x="1416.992" y="810.312"/>
			<point x="1416.992" y="777.384" type="curve" smooth="yes"/>
			<point x="1416.992" y="749.496"/>
			<point x="1406.288" y="717.552"/>
			<point x="1358.92" y="603.872" type="curve" smooth="yes"/>
			<point x="1158.576" y="122.456" type="line" smooth="yes"/>
			<point x="1121.04" y="31.736"/>
			<point x="1164.112" y="-26.48"/>
			<point x="1285.104" y="-26.48" type="curve" smooth="yes"/>
			<point x="1426.28" y="-26.48"/>
			<point x="1594.144" y="74.408"/>
			<point x="1778.512" y="334.016" type="curve"/>
			<point x="1767.568" y="343.608" type="line"/>
			<point x="1575.96" y="153.776"/>
			<point x="1462.904" y="134.104"/>
			<point x="1376.688" y="142.92" type="curve"/>
		</contour>
	</outline>
	<anchor name="top" x="1077.608" y="1024"/>
	<anchor name="bottom" x="760.088" y="0"/>
</glyph>
<glyph name="n" format="2">
	<unicode hex="006E"/>
	<advance width="1283.968"/>
	<outline>
		<contour>
			<point x="57.504" y="601.872" type="line"/>
			<point x="173.416" y="819.192"/>
			<point x="243.976" y="855.808"/>
			<point x="290.864" y="855.808" type="curve" smooth="yes"/>
			<point x="317.752" y="855.808"/>
			<point x="321.4" y="831.864"/>
			<point x="310.16" y="799.144" type="curve"/>
			<point x="40.248" y="0" type="line"/>
			<point x="349.048" y="0" type="line"/>
			<point x="525.048" y="518.168" type="line"/>
			<point x="577.008" y="648.128"/>
			<point x="710.336" y="827.184"/>
			<point x="821.552" y="827.184" type="curve" smooth="yes"/>
			<point x="866.112" y="827.184"/>
			<point x="890.576" y="808.368"/>
			<point x="890.576" y="770.256" type="curve" smooth="yes"/>
			<point x="890.576" y="747.552"/>
			<point x="879.872" y="717.552"/>
			<point x="832.504" y="603.872" type="curve" smooth="yes"/>
			<point x="632.16" y="122.456" type="line" smooth="yes"/>
			<point x="594.624" y="31.736"/>
			<point x="637.696" y="-26.48"/>
			<point x="758.688" y="-26.48" type="curve" smooth="yes"/>
			<point x="899.864" y="-26.48"/>
			<point x="1067.728" y="74.408"/>
			<point x="1252.096" y="334.016" type="curve"/>
			<point x="1241.152" y="343.608" type="line"/>
			<point x="1049.544" y="153.776"/>
			<point x="936.488" y="134.104"/>
			<point x="850.272" y="142.92" type="curve"/>
			<point x="937.72" y="88.648" type="line"/>
			<point x="1162.04" y="640.216" type="line" smooth="yes"/>
			<point x="1217.224" y="775.528"/>
			<point x="1226.576" y="827.192"/>
			<point x="1226.576" y="878.024" type="curve" smooth="yes"/>
			<point x="1226.576" y="972.872"/>
			<point x="1164.08" y="1050.48"/>
			<point x="1015.864" y="1050.48" type="curve" smooth="yes"/>
			<point x="850.576" y="1050.48"/>
			<point x="728.336" y="976.408"/>
			<point x="509.072" y="556.528" type="curve"/>
			<point x="518.888" y="556.528" type="line"/>
			<point x="666.144" y="1022.944" type="line"/>
			<point x="599.28" y="1040.24"/>
			<point x="561.8" y="1046.592"/>
			<point x="486.232" y="1046.592" type="curve" smooth="yes"/>
			<point x="299.28" y="1046.592"/>
			<point x="182.56" y="945.832"/>
			<point x="45.856" y="607.52" type="curve"/>
		</contour>
	</outline>
	<anchor name="top" x="808.184" y="1024"/>
	<anchor name="bottom" x="501.224" y="0"/>
</glyph>
<glyph name="o" format="2">
  <advance width="1075.8719999999998"/>
  <unicode hex="006F"/>
  <anchor x="700.24" y="1024.0" name="top"/>
  <anchor x="359.76" y="0.0" name="bottom"/>
  <anchor x="851.816" y="1024.0" name="horn"/>
  <anchor x="473.73600000000005" y="0.0" name="right"/>
  <outline>
    <contour>
      <point x="688.6160000000001" y="1050.48" type="curve" smooth="yes"/>
      <point x="337.144" y="1050.48"/>
      <point x="35.464" y="704.56"/>
      <point x="35.464" y="334.912" type="curve" smooth="yes"/>
      <point x="35.464" y="112.92"/>
      <point x="155.456" y="-26.48"/>
      <point x="385.90400000000005" y="-26.48" type="curve" smooth="yes"/>
      <point x="737.376" y="-26.48"/>
      <point x="1039.056" y="319.44"/>
      <point x="1039.056" y="689.0880000000001" type="curve" smooth="yes"/>
      <point x="1039.056" y="911.08"/>
      <point x="919.0640000000001" y="1050.48"/>
    </contour>
    <contour>
      <point x="365.576" y="32.791999999999994" type="curve" smooth="yes"/>
      <point x="323.49600000000004" y="32.791999999999994"/>
      <point x="304.568" y="60.57599999999999"/>
      <point x="304.568" y="133.456" type="curve" smooth="yes"/>
      <point x="304.568" y="464.63200000000006"/>
      <point x="537.7520000000001" y="991.208"/>
      <point x="708.944" y="991.208" type="curve" smooth="yes"/>
      <point x="751.024" y="991.208"/>
      <point x="769.952" y="963.424"/>
      <point x="769.952" y="890.544" type="curve" smooth="yes"/>
      <point x="769.952" y="559.3679999999999"/>
      <point x="536.7679999999999" y="32.791999999999994"/>
    </contour>
  </outline>
</glyph>
<glyph name="p" format="2">
	<unicode hex="0070"/>
	<advance width="1247.632"/>
	<outline>
		<contour>
			<point x="441.456" y="269.312" type="curve" smooth="yes"/>
			<point x="521.528" y="557.32" type="line" smooth="yes"/>
			<point x="608.872" y="750.632"/>
			<point x="719.128" y="859.312"/>
			<point x="811.904" y="859.312" type="curve" smooth="yes"/>
			<point x="864.184" y="859.312"/>
			<point x="889.224" y="823.496"/>
			<point x="889.224" y="731.272" type="curve" smooth="yes"/>
			<point x="889.224" y="413.024"/>
			<point x="672.064" y="33.496"/>
			<point x="518.536" y="33.496" type="curve" smooth="yes"/>
			<point x="453.44" y="33.496"/>
			<point x="426.808" y="94.96"/>
			<point x="426.808" y="168.24" type="curve" smooth="yes"/>
			<point x="426.808" y="201.128"/>
			<point x="432.456" y="237.016"/>
		</contour>
		<contour>
			<point x="272.912" y="121.296" type="line"/>
			<point x="302.9688539326" y="32.5334382022"/>
			<point x="388.592" y="-26.48"/>
			<point x="550.344" y="-26.48" type="curve" smooth="yes"/>
			<point x="912.176" y="-26.48"/>
			<point x="1230.632" y="374.064"/>
			<point x="1230.632" y="762.976" type="curve" smooth="yes"/>
			<point x="1230.632" y="949.2027244582"/>
			<point x="1137.952" y="1050.48"/>
			<point x="989.104" y="1050.48" type="curve" smooth="yes"/>
			<point x="824.52" y="1050.48"/>
			<point x="669.6257816183" y="936.3420451715"/>
			<point x="505.184" y="586.56" type="curve"/>
			<point x="520.48" y="586.56" type="line"/>
			<point x="659.496" y="1023.592" type="line"/>
			<point x="594.576" y="1040.24"/>
			<point x="557.744" y="1046.592"/>
			<point x="484.12" y="1046.592" type="curve" smooth="yes"/>
			<point x="297.168" y="1046.592"/>
			<point x="180.448" y="945.832"/>
			<point x="43.744" y="607.52" type="curve"/>
			<point x="55.392" y="601.872" type="line"/>
			<point x="171.304" y="819.192"/>
			<point x="241.864" y="855.808"/>
			<point x="288.752" y="855.808" type="curve" smooth="yes"/>
			<point x="314.936" y="855.808"/>
			<point x="318.992" y="833.624"/>
			<point x="308.048" y="799.144" type="curve"/>
			<point x="-53.104" y="-375.04" type="line"/>
			<point x="-173.424" y="-408.928" type="line"/>
			<point x="-179.776" y="-438.52" type="line"/>
			<point x="382.24" y="-438.52" type="line"/>
			<point x="389.24" y="-408.28" type="line"/>
			<point x="268.008" y="-375.688" type="line"/>
			<point x="410.008" y="101.368" type="line"/>
		</contour>
	</outline>
	<anchor name="top" x="785.536" y="1024"/>
	<anchor name="bottom" x="91.528" y="-438.52"/>
</glyph>
<glyph name="q" format="2">
	<unicode hex="0071"/>
	<advance width="1185.064"/>
	<outline>
		<contour>
			<point x="473.392" y="-376.336" type="line"/>
			<point x="338.68" y="-408.28" type="line"/>
			<point x="329.088" y="-438.52" type="line"/>
			<point x="887.512" y="-438.52" type="line"/>
			<point x="896.456" y="-408.928" type="line"/>
			<point x="795.152" y="-375.04" type="line"/>
			<point x="1215.912" y="1024" type="line"/>
			<point x="918" y="1024" type="line"/>
			<point x="870.8" y="893.656" type="line"/>
			<point x="715.096" y="481.64" type="line" smooth="yes"/>
			<point x="568.552" y="243.544"/>
			<point x="471.232" y="171.264"/>
			<point x="407.192" y="171.264" type="curve" smooth="yes"/>
			<point x="357.024" y="171.264"/>
			<point x="334.816" y="193.488"/>
			<point x="334.816" y="266.176" type="curve" smooth="yes"/>
			<point x="334.816" y="486.904"/>
			<point x="569.064" y="925.752"/>
			<point x="762.464" y="925.752" type="curve" smooth="yes"/>
			<point x="825.872" y="925.752"/>
			<point x="872.632" y="892.512"/>
			<point x="911.28" y="783.384" type="curve"/>
			<point x="916.984" y="832.288" type="line"/>
			<point x="846.656" y="984.352"/>
			<point x="756.456" y="1049.072"/>
			<point x="656.904" y="1049.072" type="curve" smooth="yes"/>
			<point x="333" y="1049.072"/>
			<point x="-10.016" y="542.36"/>
			<point x="-10.016" y="183.256" type="curve" smooth="yes"/>
			<point x="-10.016" y="58.608"/>
			<point x="77.352" y="-26.48"/>
			<point x="208.272" y="-26.48" type="curve" smooth="yes"/>
			<point x="342.8" y="-26.48"/>
			<point x="486.464" y="40.224"/>
			<point x="746.704" y="476.64" type="curve"/>
			<point x="730.52" y="476.64" type="line"/>
		</contour>
	</outline>
	<anchor name="top" x="785.544" y="1024"/>
	<anchor name="bottom" x="620.08" y="-438.52"/>
</glyph>
<glyph name="r" format="2">
	<unicode hex="0072"/>
	<advance width="1006.704"/>
	<outline>
		<contour>
			<point x="310.16" y="799.144" type="curve"/>
			<point x="40.248" y="0" type="line"/>
			<point x="349.048" y="0" type="line"/>
			<point x="461.68" y="331.304" type="line" smooth="yes"/>
			<point x="575.752" y="664.688"/>
			<point x="714.056" y="842.016"/>
			<point x="810.464" y="842.016" type="curve" smooth="yes"/>
			<point x="837.888" y="842.016"/>
			<point x="848.128" y="828.776"/>
			<point x="847.312" y="775.296" type="curve" smooth="yes"/>
			<point x="846.496" y="721.816"/>
			<point x="868.088" y="695.928"/>
			<point x="926.272" y="695.928" type="curve" smooth="yes"/>
			<point x="1030.376" y="695.928"/>
			<point x="1117.816" y="786.384"/>
			<point x="1117.816" y="908.136" type="curve" smooth="yes"/>
			<point x="1117.816" y="998.648"/>
			<point x="1068.152" y="1050.48"/>
			<point x="970.544" y="1050.48" type="curve" smooth="yes"/>
			<point x="835.864" y="1050.48"/>
			<point x="698.296" y="946.392"/>
			<point x="499.648" y="514.4" type="curve"/>
			<point x="496.872" y="479.408" type="line"/>
			<point x="666.144" y="1022.944" type="line"/>
			<point x="599.28" y="1040.24"/>
			<point x="561.8" y="1046.592"/>
			<point x="486.232" y="1046.592" type="curve" smooth="yes"/>
			<point x="299.28" y="1046.592"/>
			<point x="182.56" y="945.832"/>
			<point x="45.856" y="607.52" type="curve"/>
			<point x="57.504" y="601.872" type="line"/>
			<point x="173.416" y="819.192"/>
			<point x="243.976" y="855.808"/>
			<point x="290.864" y="855.808" type="curve" smooth="yes"/>
			<point x="317.752" y="855.808"/>
			<point x="321.4" y="831.864"/>
		</contour>
	</outline>
	<anchor name="top" x="679.024" y="1024"/>
	<anchor name="bottom" x="199.048" y="0"/>
</glyph>
<glyph name="s" format="2">
  <advance width="825.784"/>
  <unicode hex="0073"/>
  <anchor x="550.248" y="1024.0" name="top"/>
  <anchor x="251.49599999999998" y="0.0" name="bottom"/>
  <outline>
    <contour>
      <point x="165.80800000000002" y="263.76800000000003" type="curve" smooth="yes"/>
      <point x="13.52" y="263.76800000000003"/>
      <point x="-36.128" y="222.344"/>
      <point x="-36.128" y="129.44" type="curve" smooth="yes"/>
      <point x="-36.128" y="34.888"/>
      <point x="42.736000000000004" y="-26.48"/>
      <point x="242.51999999999998" y="-26.48" type="curve" smooth="yes"/>
      <point x="521.432" y="-26.48"/>
      <point x="701.52" y="168.00799999999998"/>
      <point x="701.52" y="370.6" type="curve" smooth="yes"/>
      <point x="701.52" y="463.504"/>
      <point x="655.728" y="552.408"/>
      <point x="533.328" y="656.024" type="curve" smooth="yes"/>
      <point x="410.928" y="759.64"/>
      <point x="380.15200000000004" y="807.2719999999999"/>
      <point x="380.15200000000004" y="865.68" type="curve" smooth="yes"/>
      <point x="380.15200000000004" y="943.76"/>
      <point x="438.84000000000003" y="997.168"/>
      <point x="554.024" y="997.168" type="curve" smooth="yes"/>
      <point x="601.744" y="997.168"/>
      <point x="632.816" y="990.224"/>
      <point x="651.408" y="961.504" type="curve" smooth="yes"/>
      <point x="670.0000000000001" y="932.784"/>
      <point x="677.648" y="884.84"/>
      <point x="672.648" y="772.696" type="curve" smooth="yes"/>
      <point x="819.4" y="772.696"/>
      <point x="864.528" y="806.752"/>
      <point x="864.528" y="895.264" type="curve" smooth="yes"/>
      <point x="864.528" y="983.28"/>
      <point x="796.736" y="1050.48"/>
      <point x="604.488" y="1050.48" type="curve" smooth="yes"/>
      <point x="338.22400000000005" y="1050.48"/>
      <point x="176.26399999999998" y="881.968"/>
      <point x="176.26399999999998" y="674.92" type="curve" smooth="yes"/>
      <point x="176.26399999999998" y="574.5920000000001"/>
      <point x="215.51999999999998" y="493.296"/>
      <point x="338.91999999999996" y="390.84799999999996" type="curve" smooth="yes"/>
      <point x="462.32" y="288.4"/>
      <point x="490.784" y="235.248"/>
      <point x="490.784" y="176.432" type="curve" smooth="yes"/>
      <point x="490.784" y="90.112"/>
      <point x="429.096" y="39.128"/>
      <point x="300.20799999999997" y="39.128" type="curve" smooth="yes"/>
      <point x="251.76799999999997" y="39.128"/>
      <point x="218.39999999999998" y="46.664"/>
      <point x="196.512" y="76.792" type="curve" smooth="yes"/>
      <point x="174.624" y="106.92"/>
      <point x="164.624" y="164.99200000000002"/>
    </contour>
  </outline>
</glyph>
<glyph name="t" format="2">
	<unicode hex="0074"/>
	<advance width="762.136"/>
	<outline>
		<contour>
			<point x="127.856" y="957.096" type="line"/>
			<point x="881.184" y="957.096" type="line"/>
			<point x="896.128" y="1024" type="line"/>
			<point x="144.504" y="1024" type="line"/>
		</contour>
		<contour>
			<point x="456.4" y="396.648" type="curve" smooth="yes"/>
			<point x="776.736" y="1316.008" type="line"/>
			<point x="456.512" y="1316.008" type="line"/>
			<point x="133.512" y="389.656" type="line" smooth="yes"/>
			<point x="83.312" y="248.368"/>
			<point x="76.128" y="177.32"/>
			<point x="76.128" y="138.36" type="curve" smooth="yes"/>
			<point x="76.128" y="15.24"/>
			<point x="152.232" y="-26.48"/>
			<point x="237.8" y="-26.48" type="curve" smooth="yes"/>
			<point x="354.016" y="-26.48"/>
			<point x="505.824" y="16.632"/>
			<point x="728.56" y="361.512" type="curve"/>
			<point x="715.024" y="372.4" type="line"/>
			<point x="576.576" y="212.856"/>
			<point x="510.312" y="184.392"/>
			<point x="459.424" y="184.392" type="curve" smooth="yes"/>
			<point x="429.128" y="184.392"/>
			<point x="411.832" y="195.688"/>
			<point x="411.832" y="224.576" type="curve" smooth="yes"/>
			<point x="411.832" y="250.592"/>
			<point x="418.072" y="290.384"/>
		</contour>
	</outline>
	<anchor name="bottom" x="256.728" y="0"/>
	<anchor name="right" x="819.128" y="1535"/>
</glyph>
<glyph name="v" format="2">
  <advance width="1098.08"/>
  <unicode hex="0076"/>
  <anchor x="714.536" y="1024.0" name="top"/>
  <anchor x="414.616" y="0.0" name="bottom"/>
  <outline>
    <contour>
      <point x="1082.648" y="843.184" type="curve" smooth="yes"/>
      <point x="1082.648" y="981.76"/>
      <point x="1032.056" y="1050.1280000000002"/>
      <point x="935.264" y="1050.1280000000002" type="curve" smooth="yes"/>
      <point x="843.696" y="1050.1280000000002"/>
      <point x="793.144" y="988.632"/>
      <point x="793.144" y="917.728" type="curve" smooth="yes"/>
      <point x="793.144" y="792.192"/>
      <point x="957.92" y="773.392"/>
      <point x="957.92" y="592.8879999999999" type="curve" smooth="yes"/>
      <point x="957.92" y="359.064"/>
      <point x="725.192" y="143.61599999999999"/>
      <point x="547.168" y="143.61599999999999" type="curve" smooth="yes"/>
      <point x="482.632" y="143.61599999999999"/>
      <point x="450.632" y="170.15200000000002"/>
      <point x="450.632" y="237.152" type="curve" smooth="yes"/>
      <point x="450.632" y="276.448"/>
      <point x="461.632" y="329.152"/>
      <point x="482.984" y="398.56" type="curve" smooth="yes"/>
      <point x="678.728" y="1023.24" type="line"/>
      <point x="605.0880000000001" y="1040.832"/>
      <point x="564.128" y="1046.592"/>
      <point x="492.152" y="1046.592" type="curve" smooth="yes"/>
      <point x="287.056" y="1046.592"/>
      <point x="176.168" y="944.5360000000001"/>
      <point x="39.464" y="607.52" type="curve"/>
      <point x="51.112" y="601.872" type="line"/>
      <point x="167.024" y="819.192"/>
      <point x="237.584" y="855.808"/>
      <point x="284.472" y="855.808" type="curve" smooth="yes"/>
      <point x="311.36" y="855.808"/>
      <point x="315.008" y="833.216"/>
      <point x="303.768" y="799.144" type="curve"/>
      <point x="162.87199999999999" y="366.432" type="line" smooth="yes"/>
      <point x="141.576" y="302.432"/>
      <point x="130.928" y="244.192"/>
      <point x="130.928" y="194.008" type="curve" smooth="yes"/>
      <point x="130.928" y="57.68000000000001"/>
      <point x="209.128" y="-26.48"/>
      <point x="378.432" y="-26.48" type="curve" smooth="yes"/>
      <point x="720.648" y="-26.48"/>
      <point x="1082.648" y="430.856"/>
    </contour>
  </outline>
</glyph>
<glyph name="w" format="2">
	<unicode hex="0077"/>
	<advance width="1673.704"/>
	<outline>
		<contour>
			<point x="954.016" y="1024" type="line"/>
			<point x="851.408" y="604.264" type="line" smooth="yes"/>
			<point x="768.224" y="263.336"/>
			<point x="629.6" y="143.616"/>
			<point x="530.464" y="143.616" type="curve" smooth="yes"/>
			<point x="477.52" y="143.616"/>
			<point x="446.928" y="162.56"/>
			<point x="446.928" y="225.744" type="curve" smooth="yes"/>
			<point x="446.928" y="264.04"/>
			<point x="457.928" y="318.688"/>
			<point x="481.928" y="395.04" type="curve" smooth="yes"/>
			<point x="679.08" y="1023.24" type="line"/>
			<point x="605.44" y="1040.832"/>
			<point x="564.48" y="1046.592"/>
			<point x="492.504" y="1046.592" type="curve" smooth="yes"/>
			<point x="287.408" y="1046.592"/>
			<point x="176.52" y="944.536"/>
			<point x="39.816" y="607.52" type="curve"/>
			<point x="51.464" y="601.872" type="line"/>
			<point x="167.376" y="819.192"/>
			<point x="237.936" y="855.808"/>
			<point x="284.824" y="855.808" type="curve" smooth="yes"/>
			<point x="311.712" y="855.808"/>
			<point x="315.36" y="833.216"/>
			<point x="304.12" y="799.144" type="curve"/>
			<point x="162.52" y="365.376" type="line" smooth="yes"/>
			<point x="138.576" y="292.488"/>
			<point x="126.632" y="229.008"/>
			<point x="126.632" y="175.584" type="curve" smooth="yes"/>
			<point x="126.632" y="45.144"/>
			<point x="198.944" y="-26.48"/>
			<point x="352.784" y="-26.48" type="curve" smooth="yes"/>
			<point x="514.392" y="-26.48"/>
			<point x="710.52" y="88.568"/>
			<point x="861.752" y="496.976" type="curve"/>
			<point x="849.976" y="496.976" type="line"/>
			<point x="800.232" y="311.632" type="line" smooth="yes"/>
			<point x="788.232" y="265.984"/>
			<point x="781.88" y="226.04"/>
			<point x="781.88" y="190.448" type="curve" smooth="yes"/>
			<point x="781.88" y="44.848"/>
			<point x="878.352" y="-26.48"/>
			<point x="1026.808" y="-26.48" type="curve" smooth="yes"/>
			<point x="1346.992" y="-26.48"/>
			<point x="1653.032" y="430.856"/>
			<point x="1653.032" y="843.184" type="curve" smooth="yes"/>
			<point x="1653.032" y="981.76"/>
			<point x="1602.44" y="1050.128"/>
			<point x="1505.648" y="1050.128" type="curve" smooth="yes"/>
			<point x="1414.08" y="1050.128"/>
			<point x="1363.528" y="988.632"/>
			<point x="1363.528" y="917.728" type="curve" smooth="yes"/>
			<point x="1363.528" y="792.192"/>
			<point x="1528.304" y="773.392"/>
			<point x="1528.304" y="592.888" type="curve" smooth="yes"/>
			<point x="1528.304" y="366.84"/>
			<point x="1365.496" y="143.616"/>
			<point x="1202.376" y="143.616" type="curve" smooth="yes"/>
			<point x="1131.008" y="143.616"/>
			<point x="1096.4" y="177.984"/>
			<point x="1096.4" y="258.44" type="curve" smooth="yes"/>
			<point x="1096.4" y="291.792"/>
			<point x="1102.808" y="333.256"/>
			<point x="1114.216" y="384.128" type="curve" smooth="yes"/>
			<point x="1255.056" y="1024" type="line"/>
		</contour>
	</outline>
	<anchor name="top" x="1069.52" y="1024"/>
	<anchor name="bottom" x="814.96" y="0"/>
</glyph>
<glyph name="x" format="2">
	<unicode hex="0078"/>
	<advance width="1105.288"/>
	<outline>
		<contour>
			<point x="589.432" y="474.104" type="line"/>
			<point x="703.84" y="653.216" type="line" smooth="yes"/>
			<point x="796.6" y="798.68"/>
			<point x="880.576" y="867.768"/>
			<point x="942.704" y="867.768" type="curve" smooth="yes"/>
			<point x="980.776" y="867.768"/>
			<point x="991.96" y="853.528"/>
			<point x="993.496" y="804.344" type="curve" smooth="yes"/>
			<point x="995.032" y="755.16"/>
			<point x="1012.328" y="736.568"/>
			<point x="1063.512" y="736.568" type="curve" smooth="yes"/>
			<point x="1151.288" y="736.568"/>
			<point x="1224.376" y="816.528"/>
			<point x="1224.376" y="920.208" type="curve" smooth="yes"/>
			<point x="1224.376" y="1001.592"/>
			<point x="1159.936" y="1050.48"/>
			<point x="1071.032" y="1050.48" type="curve" smooth="yes"/>
			<point x="972.312" y="1050.48"/>
			<point x="896.368" y="1004.592"/>
			<point x="793.944" y="848.168" type="curve" smooth="yes"/>
			<point x="584.912" y="529.192" type="line"/>
			<point x="511.064" y="533.048" type="line"/>
			<point x="382.896" y="330.768" type="line" smooth="yes"/>
			<point x="308.84" y="214.008"/>
			<point x="227.712" y="157.232"/>
			<point x="175.824" y="157.232" type="curve" smooth="yes"/>
			<point x="139.456" y="157.232"/>
			<point x="125.272" y="173.12"/>
			<point x="125.384" y="218.712" type="curve" smooth="yes"/>
			<point x="125.496" y="264.304"/>
			<point x="107.552" y="285.896"/>
			<point x="55.72" y="285.896" type="curve" smooth="yes"/>
			<point x="-33.648" y="285.896"/>
			<point x="-101.848" y="212.416"/>
			<point x="-101.848" y="105.44" type="curve" smooth="yes"/>
			<point x="-101.848" y="24.056"/>
			<point x="-46.832" y="-26.48"/>
			<point x="42.72" y="-26.48" type="curve" smooth="yes"/>
			<point x="155.216" y="-26.48"/>
			<point x="250.992" y="39.24"/>
			<point x="360.304" y="220.568" type="curve" smooth="yes"/>
			<point x="516.584" y="479.256" type="line"/>
		</contour>
		<contour>
			<point x="1020.696" y="389.072" type="curve"/>
			<point x="1005.456" y="389.072" type="line"/>
			<point x="942.952" y="216.824"/>
			<point x="877.952" y="152.6"/>
			<point x="827.88" y="152.6" type="curve" smooth="yes"/>
			<point x="804.288" y="152.6"/>
			<point x="792.824" y="165.36"/>
			<point x="780.288" y="221.504" type="curve" smooth="yes"/>
			<point x="640.208" y="856.368" type="line" smooth="yes"/>
			<point x="606.656" y="1005.464"/>
			<point x="567.952" y="1050.48"/>
			<point x="465.056" y="1050.48" type="curve" smooth="yes"/>
			<point x="312.16" y="1050.48"/>
			<point x="191.392" y="951.152"/>
			<point x="116.968" y="624.56" type="curve"/>
			<point x="132.208" y="624.56" type="line"/>
			<point x="191.376" y="802.64"/>
			<point x="246.432" y="871.752"/>
			<point x="292.504" y="871.752" type="curve" smooth="yes"/>
			<point x="315.392" y="871.752"/>
			<point x="326.504" y="857.584"/>
			<point x="339.04" y="802.496" type="curve" smooth="yes"/>
			<point x="479.12" y="167.632" type="line" smooth="yes"/>
			<point x="512.024" y="18.888"/>
			<point x="551.376" y="-26.48"/>
			<point x="654.272" y="-26.48" type="curve" smooth="yes"/>
			<point x="811.112" y="-26.48"/>
			<point x="941.176" y="69.608"/>
		</contour>
	</outline>
	<anchor name="top" x="731.224" y="1024"/>
	<anchor name="bottom" x="408.344" y="0"/>
</glyph>
<glyph name="y" format="2">
	<unicode hex="0079"/>
	<advance width="1093.704"/>
	<outline>
		<contour>
			<point x="56.576" y="582.8" type="line"/>
			<point x="128.192" y="801.12"/>
			<point x="165.288" y="842.104"/>
			<point x="206.216" y="842.104" type="curve" smooth="yes"/>
			<point x="231.328" y="842.104"/>
			<point x="253.848" y="820.528"/>
			<point x="283.144" y="722.784" type="curve" smooth="yes"/>
			<point x="320.864" y="598.472"/>
			<point x="367.768" y="309.488"/>
			<point x="429.072" y="-282.432" type="curve"/>
			<point x="694.768" y="-21.784" type="line"/>
			<point x="658.24" y="469.784"/>
			<point x="603.224" y="765.944"/>
			<point x="558.04" y="887.592" type="curve" smooth="yes"/>
			<point x="512.856" y="1009.24"/>
			<point x="460.784" y="1050.48"/>
			<point x="376.624" y="1050.48" type="curve" smooth="yes"/>
			<point x="218.376" y="1050.48"/>
			<point x="115.32" y="933.576"/>
			<point x="40.632" y="582.8" type="curve"/>
		</contour>
		<contour>
			<point x="568.408" y="-84.84" type="line"/>
			<point x="416.112" y="-291.336"/>
			<point x="237.984" y="-389.096"/>
			<point x="117.336" y="-389.096" type="curve" smooth="yes"/>
			<point x="62.376" y="-389.096"/>
			<point x="40.6" y="-362.32"/>
			<point x="60.248" y="-263.344" type="curve" smooth="yes"/>
			<point x="79.896" y="-164.368"/>
			<point x="59.712" y="-121.648"/>
			<point x="-18.656" y="-121.648" type="curve" smooth="yes"/>
			<point x="-118.76" y="-121.648"/>
			<point x="-179.608" y="-197.792"/>
			<point x="-179.608" y="-289.88" type="curve" smooth="yes"/>
			<point x="-179.608" y="-392.504"/>
			<point x="-117.056" y="-465"/>
			<point x="14.088" y="-465" type="curve" smooth="yes"/>
			<point x="234.376" y="-465"/>
			<point x="445.856" y="-352.2"/>
			<point x="679.52" y="-49.088" type="curve" smooth="yes"/>
			<point x="913.184" y="254.024"/>
			<point x="1121.496" y="801.488"/>
			<point x="1121.496" y="995.48" type="curve" smooth="yes"/>
			<point x="1121.496" y="1025.128"/>
			<point x="1099.96" y="1040.48"/>
			<point x="1044.296" y="1040.48" type="curve" smooth="yes"/>
			<point x="995.968" y="1040.48"/>
			<point x="938.68" y="1034.296"/>
			<point x="891.48" y="1023" type="curve"/>
			<point x="891.48" y="548.16"/>
			<point x="786.656" y="164.936"/>
			<point x="597.536" y="-84.352" type="curve"/>
		</contour>
	</outline>
	<anchor name="top" x="693.688" y="1024"/>
	<anchor name="bottom" x="821.248" y="-114.432"/>
</glyph>
<glyph name="z" format="2">
	<unicode hex="007A"/>
	<advance width="930.16"/>
	<outline>
		<contour>
			<point x="-62.168" y="17.256" type="line"/>
			<point x="-24.8" y="-20" type="line"/>
			<point x="989.016" y="1011.576" type="line"/>
			<point x="951.648" y="1049.536" type="line"/>
		</contour>
		<contour>
			<point x="79.952" y="623.288" type="line"/>
			<point x="185.864" y="828.592"/>
			<point x="268.624" y="863.52"/>
			<point x="424.808" y="793.184" type="curve" smooth="yes"/>
			<point x="651.688" y="693.128" type="line"/>
			<point x="830.264" y="900.184" type="line"/>
			<point x="522.608" y="1026.776" type="line" smooth="yes"/>
			<point x="351.856" y="1096.664"/>
			<point x="201.192" y="1010.376"/>
			<point x="63.712" y="627.584" type="curve"/>
		</contour>
		<contour>
			<point x="363.224" y="18.52" type="line" smooth="yes"/>
			<point x="551.656" y="-88.552"/>
			<point x="740.256" y="-14.672"/>
			<point x="917.504" y="443.12" type="curve"/>
			<point x="901.264" y="444.88" type="line"/>
			<point x="782.496" y="211.816"/>
			<point x="673.976" y="144.296"/>
			<point x="492.816" y="259.096" type="curve" smooth="yes"/>
			<point x="312.088" y="370.336" type="line"/>
			<point x="120.272" y="166.056" type="line"/>
		</contour>
	</outline>
	<anchor name="top" x="564.12" y="1024"/>
	<anchor name="bottom" x="306.6" y="0"/>
</glyph>
<glyph name="braceleft" format="2">
	<unicode hex="007B"/>
	<advance width="576.072"/>
	<outline>
		<contour>
			<point x="66.816" y="612.312" type="line"/>
			<point x="136.52" y="603.424" type="line" smooth="yes"/>
			<point x="203.224" y="594.184"/>
			<point x="227.632" y="569.368"/>
			<point x="227.632" y="528.848" type="curve" smooth="yes"/>
			<point x="227.632" y="384.768"/>
			<point x="12.112" y="169.512"/>
			<point x="12.112" y="-9.896" type="curve" smooth="yes"/>
			<point x="12.112" y="-116.712"/>
			<point x="73" y="-194.064"/>
			<point x="213.016" y="-215.84" type="curve" smooth="yes"/>
			<point x="303.92" y="-230.32" type="line"/>
			<point x="314.68" y="-198.432" type="line"/>
			<point x="264.568" y="-182.952" type="line" smooth="yes"/>
			<point x="207.472" y="-166.416"/>
			<point x="184.6" y="-134.84"/>
			<point x="184.6" y="-77.28" type="curve" smooth="yes"/>
			<point x="184.6" y="89.016"/>
			<point x="360.456" y="322.344"/>
			<point x="360.456" y="465.464" type="curve" smooth="yes"/>
			<point x="360.456" y="549.48"/>
			<point x="302.2" y="613.2"/>
			<point x="195.48" y="630.2" type="curve"/>
			<point x="191.424" y="618.2" type="line"/>
			<point x="337.776" y="643.088"/>
			<point x="433.832" y="711.76"/>
			<point x="476.496" y="848.928" type="curve" smooth="yes"/>
			<point x="519.16" y="986.448"/>
			<point x="525.384" y="1133.352"/>
			<point x="558.032" y="1245.224" type="curve" smooth="yes"/>
			<point x="590.68" y="1357.096"/>
			<point x="657.032" y="1431.408"/>
			<point x="768.68" y="1448.352" type="curve" smooth="yes"/>
			<point x="826.088" y="1457" type="line"/>
			<point x="824.552" y="1490.48" type="line"/>
			<point x="732.536" y="1482.832" type="line" smooth="yes"/>
			<point x="523.192" y="1465.24"/>
			<point x="397.304" y="1368.496"/>
			<point x="355.248" y="1232.736" type="curve" smooth="yes"/>
			<point x="313.192" y="1096.976"/>
			<point x="335.504" y="926.448"/>
			<point x="308.672" y="807.056" type="curve" smooth="yes"/>
			<point x="281.84" y="687.664"/>
			<point x="240.096" y="666.384"/>
			<point x="132.672" y="653.848" type="curve" smooth="yes"/>
			<point x="78.112" y="648.2" type="line"/>
		</contour>
	</outline>
</glyph>
<glyph name="bar" format="2">
	<unicode hex="007C"/>
	<advance width="421.752"/>
	<outline>
		<contour>
			<point x="-125.752" y="-465" type="line"/>
			<point x="-42.4" y="-465" type="line"/>
			<point x="561.152" y="1535" type="line"/>
			<point x="477.152" y="1535" type="line"/>
		</contour>
	</outline>
</glyph>
<glyph name="braceright" format="2">
	<unicode hex="007D"/>
	<advance width="576.016"/>
	<outline>
		<contour>
			<point x="580.976" y="647.848" type="line"/>
			<point x="511.272" y="656.736" type="line" smooth="yes"/>
			<point x="444.568" y="665.976"/>
			<point x="420.16" y="690.792"/>
			<point x="420.16" y="731.312" type="curve" smooth="yes"/>
			<point x="420.16" y="875.392"/>
			<point x="635.68" y="1090.648"/>
			<point x="635.68" y="1270.056" type="curve" smooth="yes"/>
			<point x="635.68" y="1376.872"/>
			<point x="574.792" y="1454.224"/>
			<point x="434.776" y="1476" type="curve" smooth="yes"/>
			<point x="343.872" y="1490.48" type="line"/>
			<point x="333.112" y="1458.592" type="line"/>
			<point x="383.224" y="1443.112" type="line" smooth="yes"/>
			<point x="440.32" y="1426.576"/>
			<point x="463.192" y="1395"/>
			<point x="463.192" y="1337.44" type="curve" smooth="yes"/>
			<point x="463.192" y="1171.144"/>
			<point x="287.336" y="937.816"/>
			<point x="287.336" y="794.696" type="curve" smooth="yes"/>
			<point x="287.336" y="710.68"/>
			<point x="345.592" y="646.96"/>
			<point x="452.312" y="629.96" type="curve"/>
			<point x="456.368" y="641.96" type="line"/>
			<point x="310.016" y="617.072"/>
			<point x="213.96" y="548.4"/>
			<point x="171.296" y="411.232" type="curve" smooth="yes"/>
			<point x="128.632" y="273.712"/>
			<point x="122.408" y="126.808"/>
			<point x="89.76" y="14.936" type="curve" smooth="yes"/>
			<point x="57.112" y="-96.936"/>
			<point x="-9.24" y="-171.248"/>
			<point x="-120.888" y="-188.192" type="curve" smooth="yes"/>
			<point x="-178.296" y="-196.84" type="line"/>
			<point x="-176.76" y="-230.32" type="line"/>
			<point x="-84.744" y="-222.672" type="line" smooth="yes"/>
			<point x="124.6" y="-205.08"/>
			<point x="250.488" y="-108.336"/>
			<point x="292.544" y="27.424" type="curve" smooth="yes"/>
			<point x="334.6" y="163.184"/>
			<point x="312.288" y="333.712"/>
			<point x="339.12" y="453.104" type="curve" smooth="yes"/>
			<point x="365.952" y="572.496"/>
			<point x="407.696" y="593.776"/>
			<point x="515.12" y="606.312" type="curve" smooth="yes"/>
			<point x="569.68" y="611.96" type="line"/>
		</contour>
	</outline>
</glyph>
<glyph name="asciitilde" format="2">
	<unicode hex="007E"/>
	<advance width="1150"/>
	<outline>
		<contour>
			<point x="707.608" y="546.336" type="curve"/>
			<point x="666.096" y="546.336" type="line"/>
			<point x="659.016" y="519.776"/>
			<point x="649.272" y="512.92"/>
			<point x="635.04" y="512.92" type="curve" smooth="yes"/>
			<point x="597.952" y="512.92"/>
			<point x="572.48" y="548.704"/>
			<point x="517.216" y="548.704" type="curve" smooth="yes"/>
			<point x="487.656" y="548.704"/>
			<point x="457.744" y="533.312"/>
			<point x="442.392" y="477.664" type="curve"/>
			<point x="483.904" y="477.664" type="line"/>
			<point x="490.984" y="504.224"/>
			<point x="500.728" y="511.08"/>
			<point x="514.96" y="511.08" type="curve" smooth="yes"/>
			<point x="552.048" y="511.08"/>
			<point x="577.52" y="475.296"/>
			<point x="632.784" y="475.296" type="curve" smooth="yes"/>
			<point x="662.344" y="475.296"/>
			<point x="692.256" y="490.688"/>
		</contour>
	</outline>
</glyph>
<glyph name="exclamdown" format="2">
	<unicode hex="00A1"/>
	<advance width="562.128"/>
	<outline>
		<contour>
			<point x="-156.424" y="-256.496" type="line" smooth="yes"/>
			<point x="-181.664" y="-368.968"/>
			<point x="-90.208" y="-431.184"/>
			<point x="13.136" y="-431.184" type="curve" smooth="yes"/>
			<point x="127.792" y="-431.184"/>
			<point x="225.84" y="-367.672"/>
			<point x="251.08" y="-256.496" type="curve" smooth="yes"/>
			<point x="256.488" y="-234.384" type="line" smooth="yes"/>
			<point x="275.376" y="-150.744"/>
			<point x="231.424" y="64.56"/>
			<point x="296.864" y="503.976" type="curve"/>
			<point x="258.736" y="503.976" type="line"/>
			<point x="61.032" y="79.344"/>
			<point x="-121.072" y="-103.208"/>
			<point x="-151.016" y="-234.384" type="curve" smooth="yes"/>
		</contour>
		<contour>
			<point x="351.2" y="677.52" type="curve" smooth="yes"/>
			<point x="478.192" y="677.52"/>
			<point x="574.464" y="775.44"/>
			<point x="574.464" y="902.432" type="curve" smooth="yes"/>
			<point x="574.464" y="988.576"/>
			<point x="515.8" y="1047.536"/>
			<point x="423.712" y="1047.536" type="curve" smooth="yes"/>
			<point x="296.72" y="1047.536"/>
			<point x="200.448" y="949.616"/>
			<point x="200.448" y="822.976" type="curve" smooth="yes"/>
			<point x="200.448" y="736.48"/>
			<point x="259.112" y="677.52"/>
		</contour>
	</outline>
</glyph>
<glyph name="brokenbar" format="2">
	<unicode hex="00A6"/>
	<advance width="421.752"/>
	<outline>
		<contour>
			<point x="314.912" y="725" type="line"/>
			<point x="562.56" y="1535" type="line"/>
			<point x="484.192" y="1535" type="line"/>
			<point x="236.84" y="725" type="line"/>
		</contour>
		<contour>
			<point x="-127.16" y="-465" type="line"/>
			<point x="-49.088" y="-465" type="line"/>
			<point x="198.56" y="345" type="line"/>
			<point x="120.192" y="345" type="line"/>
		</contour>
	</outline>
</glyph>
<glyph name="section" format="2">
	<unicode hex="00A7"/>
	<advance width="1178.248"/>
	<outline>
		<contour>
			<point x="500.496" y="866.264" type="curve"/>
			<point x="482.552" y="888.856" type="line"/>
			<point x="207.376" y="817.488"/>
			<point x="102.224" y="709.488"/>
			<point x="102.224" y="545.096" type="curve" smooth="yes"/>
			<point x="102.224" y="193.88"/>
			<point x="623.072" y="243.272"/>
			<point x="623.072" y="6.32" type="curve" smooth="yes"/>
			<point x="623.072" y="-77.184"/>
			<point x="551.864" y="-150.32"/>
			<point x="416.632" y="-150.32" type="curve" smooth="yes"/>
			<point x="228.128" y="-150.32"/>
			<point x="178.88" y="69.36"/>
			<point x="131.56" y="69.36" type="curve" smooth="yes"/>
			<point x="54.6" y="69.36"/>
			<point x="3.64" y="17.64"/>
			<point x="3.64" y="-52.152" type="curve" smooth="yes"/>
			<point x="3.64" y="-141.296"/>
			<point x="95.504" y="-218"/>
			<point x="333.688" y="-218" type="curve" smooth="yes"/>
			<point x="704.6" y="-218"/>
			<point x="883.304" y="-34.264"/>
			<point x="883.304" y="172.472" type="curve" smooth="yes"/>
			<point x="883.304" y="520.728"/>
			<point x="341.088" y="476.392"/>
			<point x="341.088" y="698.12" type="curve" smooth="yes"/>
			<point x="341.088" y="775.704"/>
			<point x="401.32" y="832.08"/>
		</contour>
		<contour>
			<point x="902.104" y="540.36" type="curve" smooth="yes"/>
			<point x="902.104" y="462.776"/>
			<point x="841.872" y="406.4"/>
			<point x="742.696" y="372.216" type="curve"/>
			<point x="760.64" y="349.624" type="line"/>
			<point x="1035.816" y="420.992"/>
			<point x="1140.968" y="528.992"/>
			<point x="1140.968" y="693.384" type="curve" smooth="yes"/>
			<point x="1140.968" y="1044.6"/>
			<point x="620.12" y="995.208"/>
			<point x="620.12" y="1232.16" type="curve" smooth="yes"/>
			<point x="620.12" y="1315.664"/>
			<point x="691.328" y="1388.8"/>
			<point x="826.56" y="1388.8" type="curve" smooth="yes"/>
			<point x="1015.064" y="1388.8"/>
			<point x="1064.312" y="1169.12"/>
			<point x="1111.632" y="1169.12" type="curve" smooth="yes"/>
			<point x="1188.592" y="1169.12"/>
			<point x="1239.552" y="1220.84"/>
			<point x="1239.552" y="1290.632" type="curve" smooth="yes"/>
			<point x="1239.552" y="1379.776"/>
			<point x="1147.688" y="1456.48"/>
			<point x="909.504" y="1456.48" type="curve" smooth="yes"/>
			<point x="538.592" y="1456.48"/>
			<point x="359.888" y="1272.744"/>
			<point x="359.888" y="1066.008" type="curve" smooth="yes"/>
			<point x="359.888" y="717.752"/>
			<point x="902.104" y="762.088"/>
		</contour>
	</outline>
</glyph>
<glyph name="copyright" format="2">
	<unicode hex="00A9"/>
	<advance width="1751.112"/>
	<outline>
		<contour>
			<point x="948.048" y="321.2" type="curve" smooth="yes"/>
			<point x="842.28" y="321.2"/>
			<point x="773.312" y="399.224"/>
			<point x="773.312" y="565.968" type="curve" smooth="yes"/>
			<point x="773.312" y="837.544"/>
			<point x="896.728" y="1114.04"/>
			<point x="1087.464" y="1114.04" type="curve" smooth="yes"/>
			<point x="1153.688" y="1114.04"/>
			<point x="1198.912" y="1092.336"/>
			<point x="1244.376" y="1038.392" type="curve"/>
			<point x="1199.896" y="1110.24" type="line"/>
			<point x="1293.536" y="852.168" type="line"/>
			<point x="1314.832" y="853.464" type="line"/>
			<point x="1332.024" y="1202.072" type="line"/>
			<point x="1323.024" y="1202.072" type="line"/>
			<point x="1213.696" y="1126" type="line"/>
			<point x="1297.504" y="1143.016" type="line"/>
			<point x="1227.32" y="1164.128"/>
			<point x="1170.536" y="1172.592"/>
			<point x="1101.72" y="1172.592" type="curve" smooth="yes"/>
			<point x="736.712" y="1172.592"/>
			<point x="486.8" y="922.056"/>
			<point x="486.8" y="627.872" type="curve" smooth="yes"/>
			<point x="486.8" y="410.744"/>
			<point x="632.264" y="266.056"/>
			<point x="913.848" y="266.056" type="curve" smooth="yes"/>
			<point x="1011.144" y="266.056"/>
			<point x="1072.368" y="275.76"/>
			<point x="1148.48" y="299.576" type="curve"/>
			<point x="1269.664" y="542.608" type="line"/>
			<point x="1246.424" y="542.608" type="line"/>
			<point x="1023.224" y="319.536" type="line"/>
			<point x="1097.464" y="365.016" type="line"/>
			<point x="1045.536" y="335.608"/>
			<point x="997.384" y="321.2"/>
		</contour>
		<contour>
			<point x="842.128" y="32.888" type="curve" smooth="yes"/>
			<point x="459.168" y="32.888"/>
			<point x="247.776" y="256.056"/>
			<point x="247.776" y="616.328" type="curve" smooth="yes"/>
			<point x="247.776" y="1040.48"/>
			<point x="581.632" y="1397.112"/>
			<point x="1032.632" y="1397.112" type="curve" smooth="yes"/>
			<point x="1415.592" y="1397.112"/>
			<point x="1626.984" y="1173.944"/>
			<point x="1626.984" y="813.672" type="curve" smooth="yes"/>
			<point x="1626.984" y="389.52"/>
			<point x="1293.128" y="32.888"/>
		</contour>
		<contour>
			<point x="1033.336" y="1456.48" type="curve" smooth="yes"/>
			<point x="544.52" y="1456.48"/>
			<point x="173.76" y="1072.552"/>
			<point x="173.76" y="609.032" type="curve" smooth="yes"/>
			<point x="173.76" y="214.816"/>
			<point x="413.264" y="-26.48"/>
			<point x="841.424" y="-26.48" type="curve" smooth="yes"/>
			<point x="1330.24" y="-26.48"/>
			<point x="1701" y="357.448"/>
			<point x="1701" y="820.968" type="curve" smooth="yes"/>
			<point x="1701" y="1215.184"/>
			<point x="1461.496" y="1456.48"/>
		</contour>
	</outline>
</glyph>
<glyph name="ordfeminine" format="2">
	<unicode hex="00AA"/>
	<advance width="927.856"/>
	<outline>
		<contour>
			<point x="156.04" y="563.52" type="line"/>
			<point x="808.336" y="563.52" type="line"/>
			<point x="830.224" y="635.48" type="line"/>
			<point x="178.28" y="635.48" type="line"/>
		</contour>
		<contour>
			<point x="625.016" y="860.792" type="line" smooth="yes"/>
			<point x="609.832" y="815.184"/>
			<point x="634.608" y="783.872"/>
			<point x="699.992" y="783.872" type="curve" smooth="yes"/>
			<point x="789.8" y="783.872"/>
			<point x="892.424" y="845.424"/>
			<point x="998.24" y="1011.68" type="curve"/>
			<point x="988.648" y="1019.976" type="line"/>
			<point x="895.128" y="918.568"/>
			<point x="832.144" y="892.848"/>
			<point x="752.84" y="894.832" type="curve"/>
			<point x="828.72" y="853.112" type="line"/>
			<point x="1028.496" y="1430" type="line"/>
			<point x="814.184" y="1430" type="line"/>
			<point x="789.592" y="1358.448" type="line"/>
			<point x="692.776" y="1097.792" type="line" smooth="yes"/>
			<point x="607.272" y="970.824"/>
			<point x="566.728" y="936.024"/>
			<point x="527.56" y="936.024" type="curve" smooth="yes"/>
			<point x="500.096" y="936.024"/>
			<point x="487.816" y="951.136"/>
			<point x="487.816" y="987.88" type="curve" smooth="yes"/>
			<point x="487.816" y="1127.512"/>
			<point x="626.952" y="1367.784"/>
			<point x="744.384" y="1367.784" type="curve" smooth="yes"/>
			<point x="779.216" y="1367.784"/>
			<point x="806.808" y="1349.656"/>
			<point x="832.344" y="1293.68" type="curve"/>
			<point x="835.752" y="1319.176" type="line"/>
			<point x="788.608" y="1409.224"/>
			<point x="732" y="1447.296"/>
			<point x="669.744" y="1447.296" type="curve" smooth="yes"/>
			<point x="455.28" y="1447.296"/>
			<point x="242.504" y="1139.16"/>
			<point x="242.504" y="918.368" type="curve" smooth="yes"/>
			<point x="242.504" y="838.776"/>
			<point x="296.336" y="783.872"/>
			<point x="393.872" y="783.872" type="curve" smooth="yes"/>
			<point x="479.736" y="783.872"/>
			<point x="552.664" y="824.576"/>
			<point x="714.256" y="1094.792" type="curve"/>
			<point x="703.256" y="1097.384" type="line"/>
		</contour>
	</outline>
</glyph>
<glyph name="guillemotleft" format="2">
	<unicode hex="00AB"/>
	<advance width="901.16"/>
	<outline>
		<contour>
			<point x="272.784" y="589.184" type="line"/>
			<point x="220.216" y="393.824" type="line"/>
			<point x="605.608" y="954.848" type="line"/>
			<point x="590.664" y="969.792" type="line"/>
			<point x="48.856" y="530.944" type="line"/>
			<point x="43.208" y="513.056" type="line"/>
			<point x="316.648" y="74.208" type="line"/>
			<point x="337.888" y="80.912" type="line"/>
		</contour>
		<contour>
			<point x="635.184" y="589.184" type="line"/>
			<point x="582.616" y="393.824" type="line"/>
			<point x="968.008" y="954.848" type="line"/>
			<point x="953.064" y="969.792" type="line"/>
			<point x="411.256" y="530.944" type="line"/>
			<point x="405.608" y="513.056" type="line"/>
			<point x="679.048" y="74.208" type="line"/>
			<point x="700.288" y="80.912" type="line"/>
		</contour>
	</outline>
</glyph>
<glyph name="logicalnot" format="2">
	<unicode hex="00AC"/>
	<advance width="1150"/>
	<outline>
		<contour>
			<point x="227.056" y="751.072" type="line"/>
			<point x="200.576" y="664.632" type="line"/>
			<point x="936.136" y="664.632" type="line"/>
			<point x="814.376" y="268" type="line"/>
			<point x="900.816" y="268" type="line"/>
			<point x="1049.056" y="751.072" type="line"/>
		</contour>
	</outline>
</glyph>
<glyph name="registered" format="2">
	<unicode hex="00AE"/>
	<advance width="1084.632"/>
	<outline>
		<contour>
			<point x="893.2" y="851.608" type="line"/>
			<point x="868.088" y="851.608"/>
			<point x="858.44" y="857.904"/>
			<point x="859.032" y="893.96" type="curve" smooth="yes"/>
			<point x="859.568" y="959.888" type="line" smooth="yes"/>
			<point x="860.808" y="1016.776"/>
			<point x="839.4" y="1043.832"/>
			<point x="777.68" y="1047.128" type="curve"/>
			<point x="781.568" y="1046.128" type="line"/>
			<point x="882.16" y="1048.536"/>
			<point x="941.752" y="1098.704"/>
			<point x="941.752" y="1166" type="curve" smooth="yes"/>
			<point x="941.752" y="1212"/>
			<point x="912.992" y="1250.48"/>
			<point x="815.16" y="1250.48" type="curve" smooth="yes"/>
			<point x="691.496" y="1250.48" type="line"/>
			<point x="679.904" y="1214" type="line"/>
			<point x="769.68" y="1214" type="line" smooth="yes"/>
			<point x="806.424" y="1214"/>
			<point x="824.592" y="1202.536"/>
			<point x="824.592" y="1171.664" type="curve" smooth="yes"/>
			<point x="824.592" y="1113.792"/>
			<point x="788.368" y="1060.424"/>
			<point x="722.496" y="1060.424" type="curve" smooth="yes"/>
			<point x="633.496" y="1060.424" type="line"/>
			<point x="622.2" y="1024.592" type="line"/>
			<point x="703.352" y="1024.592" type="line" smooth="yes"/>
			<point x="741.24" y="1024.592"/>
			<point x="748.056" y="1012"/>
			<point x="747.76" y="981.424" type="curve" smooth="yes"/>
			<point x="746.52" y="908.496" type="line" smooth="yes"/>
			<point x="744.632" y="825.48"/>
			<point x="756.224" y="810.944"/>
			<point x="884.608" y="824.128" type="curve"/>
		</contour>
		<contour>
			<point x="739.216" y="1250.48" type="line"/>
			<point x="560.408" y="1250.48" type="line"/>
			<point x="554.464" y="1230.944" type="line"/>
			<point x="605.28" y="1216.296" type="line"/>
			<point x="496.52" y="860.312" type="line"/>
			<point x="436.056" y="844.016" type="line"/>
			<point x="429.76" y="824.48" type="line"/>
			<point x="663.736" y="824.48" type="line"/>
			<point x="670.032" y="844.016" type="line"/>
			<point x="619.512" y="860.312" type="line"/>
		</contour>
		<contour>
			<point x="638.072" y="654.016" type="curve" smooth="yes"/>
			<point x="432.256" y="654.016"/>
			<point x="319.24" y="770.776"/>
			<point x="319.24" y="965.032" type="curve" smooth="yes"/>
			<point x="319.24" y="1222.792"/>
			<point x="504.152" y="1404.944"/>
			<point x="753.448" y="1404.944" type="curve" smooth="yes"/>
			<point x="959.264" y="1404.944"/>
			<point x="1072.28" y="1288.184"/>
			<point x="1072.28" y="1093.928" type="curve" smooth="yes"/>
			<point x="1072.28" y="836.168"/>
			<point x="887.368" y="654.016"/>
		</contour>
		<contour>
			<point x="755.8" y="1456.48" type="curve" smooth="yes"/>
			<point x="475.688" y="1456.48"/>
			<point x="259.76" y="1249.976"/>
			<point x="259.76" y="962.624" type="curve" smooth="yes"/>
			<point x="259.76" y="749.256"/>
			<point x="386.648" y="602.48"/>
			<point x="635.72" y="602.48" type="curve" smooth="yes"/>
			<point x="915.832" y="602.48"/>
			<point x="1131.76" y="808.984"/>
			<point x="1131.76" y="1096.336" type="curve" smooth="yes"/>
			<point x="1131.76" y="1309.704"/>
			<point x="1004.872" y="1456.48"/>
		</contour>
	</outline>
</glyph>
<glyph name="degree" format="2">
	<unicode hex="00B0"/>
	<advance width="744.224"/>
	<outline>
		<contour>
			<point x="608.072" y="1447.888" type="curve" smooth="yes"/>
			<point x="388.688" y="1447.888"/>
			<point x="247.096" y="1285.536"/>
			<point x="247.096" y="1093.76" type="curve" smooth="yes"/>
			<point x="247.096" y="951.408"/>
			<point x="348.576" y="852.112"/>
			<point x="513.448" y="852.112" type="curve" smooth="yes"/>
			<point x="732.832" y="852.112"/>
			<point x="874.424" y="1014.464"/>
			<point x="874.424" y="1206.24" type="curve" smooth="yes"/>
			<point x="874.424" y="1348.592"/>
			<point x="772.944" y="1447.888"/>
		</contour>
		<contour>
			<point x="526.52" y="929.256" type="curve" smooth="yes"/>
			<point x="401.072" y="929.256"/>
			<point x="334.776" y="1003.424"/>
			<point x="334.776" y="1103.592" type="curve" smooth="yes"/>
			<point x="334.776" y="1250.224"/>
			<point x="430.24" y="1370.744"/>
			<point x="595" y="1370.744" type="curve" smooth="yes"/>
			<point x="720.448" y="1370.744"/>
			<point x="786.744" y="1296.576"/>
			<point x="786.744" y="1196.408" type="curve" smooth="yes"/>
			<point x="786.744" y="1049.776"/>
			<point x="691.28" y="929.256"/>
		</contour>
	</outline>
</glyph>
<glyph name="plusminus" format="2">
	<unicode hex="00B1"/>
	<advance width="1150"/>
	<outline>
		<contour>
			<point x="687.28" y="1023.648" type="line"/>
			<point x="435.28" y="201.648" type="line"/>
			<point x="521.424" y="201.648" type="line"/>
			<point x="773.424" y="1023.648" type="line"/>
		</contour>
		<contour>
			<point x="206.592" y="655.368" type="line"/>
			<point x="180.112" y="569.928" type="line"/>
			<point x="1002.112" y="569.928" type="line"/>
			<point x="1028.592" y="655.368" type="line"/>
		</contour>
		<contour>
			<point x="33.48" y="85.44" type="line"/>
			<point x="7" y="0" type="line"/>
			<point x="829" y="0" type="line"/>
			<point x="855.48" y="85.44" type="line"/>
		</contour>
	</outline>
</glyph>
<glyph name="uni00B2" format="2">
  <advance width="729"/>
  <unicode hex="00B2"/>
  <outline>
    <contour>
      <point x="528.1120000000001" y="752.456" type="line"/>
      <point x="748.352" y="859.632" type="line"/>
      <point x="363.98400000000004" y="859.632" type="line"/>
      <point x="353.984" y="837.2800000000001" type="line"/>
      <point x="471.872" y="912.52" type="line" smooth="yes"/>
      <point x="758.384" y="1068.512"/>
      <point x="812.304" y="1154.192"/>
      <point x="812.304" y="1263.576" type="curve" smooth="yes"/>
      <point x="812.304" y="1376.48"/>
      <point x="728.456" y="1447.888"/>
      <point x="593.68" y="1447.888" type="curve" smooth="yes"/>
      <point x="410.76" y="1447.888"/>
      <point x="291.98400000000004" y="1332.9279999999999"/>
      <point x="225.024" y="1139.08" type="curve"/>
      <point x="255.264" y="1129.544" type="line"/>
      <point x="304.096" y="1247.048"/>
      <point x="369.488" y="1284.2720000000002"/>
      <point x="454.06399999999996" y="1284.2720000000002" type="curve" smooth="yes"/>
      <point x="525.048" y="1284.2720000000002"/>
      <point x="570.456" y="1245.456"/>
      <point x="570.456" y="1179.472" type="curve" smooth="yes"/>
      <point x="570.456" y="1095.8254055631019"/>
      <point x="508.0107067927385" y="993.7451025440956"/>
      <point x="307.79200000000003" y="827.808" type="curve" smooth="yes"/>
      <point x="127.688" y="676.592" type="line"/>
      <point x="123.688" y="662.0" type="line"/>
      <point x="586.736" y="662.0" type="line"/>
      <point x="639.4" y="626.168" type="line"/>
      <point x="654.584" y="626.168" type="line"/>
      <point x="834.152" y="969.432" type="line"/>
      <point x="818.912" y="969.432" type="line"/>
    </contour>
  </outline>
</glyph>
<glyph name="uni00B3" format="2">
	<unicode hex="00B3"/>
	<advance width="670.584"/>
	<outline>
		<contour>
			<point x="361.648" y="1021.04" type="line"/>
			<point x="392.168" y="1026.448" type="line" smooth="yes"/>
			<point x="489.832" y="1043"/>
			<point x="532.672" y="1017.576"/>
			<point x="532.672" y="955.072" type="curve" smooth="yes"/>
			<point x="532.672" y="865.6"/>
			<point x="463.888" y="697.128"/>
			<point x="339.128" y="697.128" type="curve" smooth="yes"/>
			<point x="252.184" y="697.128"/>
			<point x="216.904" y="824.104"/>
			<point x="194.608" y="824.104" type="curve" smooth="yes"/>
			<point x="138.928" y="824.104"/>
			<point x="110.336" y="789.976"/>
			<point x="110.336" y="744.904" type="curve" smooth="yes"/>
			<point x="110.336" y="694.48"/>
			<point x="152.52" y="644.112"/>
			<point x="311.664" y="644.112" type="curve" smooth="yes"/>
			<point x="589.656" y="644.112"/>
			<point x="747.84" y="783.112"/>
			<point x="747.84" y="949.352" type="curve" smooth="yes"/>
			<point x="747.84" y="1033.704"/>
			<point x="694.488" y="1103.648"/>
			<point x="553.272" y="1101.056" type="curve"/>
			<point x="544.104" y="1094.592" type="line"/>
			<point x="716.1315279301" y="1119.319973494"/>
			<point x="770.488" y="1212.352"/>
			<point x="770.488" y="1298.464" type="curve" smooth="yes"/>
			<point x="770.488" y="1377.056"/>
			<point x="716.768" y="1447.24"/>
			<point x="600.16" y="1447.24" type="curve" smooth="yes"/>
			<point x="434.9928002222" y="1447.24"/>
			<point x="335.3911862235" y="1349.8199666698"/>
			<point x="277.744" y="1203.856" type="curve"/>
			<point x="305.928" y="1191.968" type="line"/>
			<point x="342.224" y="1267.896"/>
			<point x="401.04" y="1304.768"/>
			<point x="472.56" y="1304.768" type="curve" smooth="yes"/>
			<point x="529.616" y="1304.768"/>
			<point x="566.264" y="1274.304"/>
			<point x="566.264" y="1223.248" type="curve" smooth="yes"/>
			<point x="566.264" y="1157.3607292541"/>
			<point x="522.5842738451" y="1100.1475166902"/>
			<point x="357.76" y="1060.816" type="curve"/>
		</contour>
	</outline>
</glyph>
<glyph name="uni00B5" format="2">
  <advance width="1254"/>
  <unicode hex="00B5"/>
  <outline>
    <contour>
      <point x="698.6959999999999" y="448.608" type="line"/>
      <point x="635.072" y="295.024"/>
      <point x="553.52" y="193.576"/>
      <point x="477.992" y="193.576" type="curve" smooth="yes"/>
      <point x="433.84000000000003" y="193.576"/>
      <point x="412.152" y="209.28000000000003"/>
      <point x="410.744" y="252.744" type="curve" smooth="yes"/>
      <point x="410.392" y="277.04"/>
      <point x="415.09599999999995" y="311.632"/>
      <point x="437.168" y="377.552" type="curve" smooth="yes"/>
      <point x="649.248" y="1024.0" type="line"/>
      <point x="332.024" y="1024.0" type="line"/>
      <point x="-124.792" y="-458.592" type="line"/>
      <point x="-114.792" y="-458.592" type="line"/>
      <point x="155.15200000000002" y="-435.464" type="line"/>
      <point x="128.056" y="175.712" type="line"/>
      <point x="93.84" y="156.272" type="line"/>
      <point x="96.304" y="44.848"/>
      <point x="137.19199999999998" y="-26.48"/>
      <point x="282.552" y="-26.48" type="curve" smooth="yes"/>
      <point x="431.584" y="-26.48"/>
      <point x="557.072" y="92.03200000000001"/>
      <point x="724.928" y="445.0" type="curve"/>
      <point x="717.224" y="460.55199999999996" type="line"/>
      <point x="616.096" y="106.416" type="line" smooth="yes"/>
      <point x="591.6719999999999" y="19.424"/>
      <point x="628.0400000000001" y="-26.48"/>
      <point x="700.52" y="-26.48" type="curve" smooth="yes"/>
      <point x="839.936" y="-26.48"/>
      <point x="1003.632" y="77.96000000000001"/>
      <point x="1168.576" y="350.86400000000003" type="curve"/>
      <point x="1158.928" y="358.512" type="line"/>
      <point x="988.488" y="160.424"/>
      <point x="872.304" y="140.176"/>
      <point x="787.552" y="143.92" type="curve"/>
      <point x="882.016" y="86.352" type="line"/>
      <point x="1198.368" y="1024.0" type="line"/>
      <point x="888.92" y="1024.0" type="line"/>
    </contour>
  </outline>
</glyph>
<glyph name="paragraph" format="2">
  <advance width="1207"/>
  <unicode hex="00B6"/>
  <outline>
    <contour>
      <point x="500.93600000000004" y="-218.0" type="line"/>
      <point x="983.048" y="1358.392" type="line"/>
      <point x="1161.584" y="1358.392" type="line"/>
      <point x="1183.472" y="1430.0" type="line"/>
      <point x="927.032" y="1430.0" type="line"/>
      <point x="423.03200000000004" y="-218.0" type="line"/>
    </contour>
    <contour>
      <point x="735.1360000000001" y="-218.0" type="line"/>
      <point x="1217.6" y="1359.744" type="line"/>
      <point x="1413.32" y="1398.928" type="line"/>
      <point x="1422.9119999999998" y="1430.0" type="line"/>
      <point x="1161.584" y="1430.0" type="line"/>
      <point x="657.5840000000001" y="-218.0" type="line"/>
    </contour>
    <contour>
      <point x="984.1039999999999" y="1430.0" type="line"/>
      <point x="723.2959999999999" y="1430.0" type="line" smooth="yes"/>
      <point x="346.85257146786563" y="1430.0"/>
      <point x="208.352" y="1164.9440000000002"/>
      <point x="208.352" y="958.0" type="curve" smooth="yes"/>
      <point x="208.352" y="808.816"/>
      <point x="295.94399999999996" y="700.024"/>
      <point x="521.2" y="700.024" type="curve" smooth="yes"/>
      <point x="760.976" y="700.024" type="line"/>
    </contour>
  </outline>
</glyph>
<glyph name="uni00B9" format="2">
	<unicode hex="00B9"/>
	<advance width="540.312"/>
	<outline>
		<contour>
			<point x="251.656" y="718.424" type="line"/>
			<point x="115.616" y="684.184" type="line"/>
			<point x="108.672" y="662" type="line"/>
			<point x="558.328" y="662" type="line"/>
			<point x="565.272" y="684.184" type="line"/>
			<point x="463.528" y="718.424" type="line"/>
			<point x="686.232" y="1447.888" type="line"/>
			<point x="656.104" y="1447.888" type="line"/>
			<point x="242.8" y="1263.688" type="line"/>
			<point x="251.392" y="1233.616" type="line"/>
			<point x="568.848" y="1296.728" type="line"/>
			<point x="439.176" y="1333.336" type="line"/>
		</contour>
	</outline>
</glyph>
<glyph name="ordmasculine" format="2">
	<unicode hex="00BA"/>
	<advance width="896.872"/>
	<outline>
		<contour>
			<point x="138.464" y="563.52" type="line"/>
			<point x="790.76" y="563.52" type="line"/>
			<point x="812.648" y="635.48" type="line"/>
			<point x="160.704" y="635.48" type="line"/>
		</contour>
		<contour>
			<point x="732.864" y="1456.48" type="curve" smooth="yes"/>
			<point x="497.616" y="1456.48"/>
			<point x="283.08" y="1256.496"/>
			<point x="283.08" y="1018.288" type="curve" smooth="yes"/>
			<point x="283.08" y="872.792"/>
			<point x="370.112" y="783.52"/>
			<point x="537.768" y="783.52" type="curve" smooth="yes"/>
			<point x="773.016" y="783.52"/>
			<point x="987.552" y="983.504"/>
			<point x="987.552" y="1221.712" type="curve" smooth="yes"/>
			<point x="987.552" y="1367.208"/>
			<point x="900.52" y="1456.48"/>
		</contour>
		<contour>
			<point x="535.936" y="831.072" type="curve" smooth="yes"/>
			<point x="508.304" y="831.072"/>
			<point x="496.488" y="850.464"/>
			<point x="495.84" y="908.744" type="curve" smooth="yes"/>
			<point x="493.896" y="1109.712"/>
			<point x="627.304" y="1408.928"/>
			<point x="734.696" y="1408.928" type="curve" smooth="yes"/>
			<point x="762.328" y="1408.928"/>
			<point x="774.144" y="1389.536"/>
			<point x="774.792" y="1331.256" type="curve" smooth="yes"/>
			<point x="776.736" y="1130.288"/>
			<point x="643.328" y="831.072"/>
		</contour>
	</outline>
</glyph>
<glyph name="guillemotright" format="2">
	<unicode hex="00BB"/>
	<advance width="968.696"/>
	<outline>
		<contour>
			<point x="295.16" y="455.464" type="line"/>
			<point x="347.728" y="650.824" type="line"/>
			<point x="-37.664" y="89.8" type="line"/>
			<point x="-22.72" y="74.856" type="line"/>
			<point x="519.088" y="513.704" type="line"/>
			<point x="524.736" y="531.592" type="line"/>
			<point x="251.296" y="970.44" type="line"/>
			<point x="230.056" y="963.736" type="line"/>
		</contour>
		<contour>
			<point x="661.784" y="455.464" type="line"/>
			<point x="714.352" y="650.824" type="line"/>
			<point x="328.96" y="89.8" type="line"/>
			<point x="343.904" y="74.856" type="line"/>
			<point x="885.712" y="513.704" type="line"/>
			<point x="891.36" y="531.592" type="line"/>
			<point x="617.92" y="970.44" type="line"/>
			<point x="596.68" y="963.736" type="line"/>
		</contour>
	</outline>
</glyph>
<glyph name="questiondown" format="2">
	<unicode hex="00BF"/>
	<advance width="1039.536"/>
	<outline>
		<contour>
			<point x="667.792" y="675.872" type="curve" smooth="yes"/>
			<point x="794.784" y="675.872"/>
			<point x="891.056" y="773.792"/>
			<point x="891.056" y="900.784" type="curve" smooth="yes"/>
			<point x="891.056" y="986.928"/>
			<point x="832.392" y="1045.888"/>
			<point x="740.304" y="1045.888" type="curve" smooth="yes"/>
			<point x="613.312" y="1045.888"/>
			<point x="517.04" y="947.968"/>
			<point x="517.04" y="821.328" type="curve" smooth="yes"/>
			<point x="517.04" y="734.832"/>
			<point x="575.704" y="675.872"/>
		</contour>
		<contour>
			<point x="452.504" y="-432.832" type="curve" smooth="yes"/>
			<point x="674.696" y="-432.832"/>
			<point x="759.272" y="-356.152"/>
			<point x="759.272" y="-264.064" type="curve" smooth="yes"/>
			<point x="759.272" y="-201.032"/>
			<point x="718.96" y="-152.944"/>
			<point x="659.04" y="-152.944" type="curve" smooth="yes"/>
			<point x="628.728" y="-152.944"/>
			<point x="467.664" y="-330.688"/>
			<point x="293.96" y="-330.688" type="curve" smooth="yes"/>
			<point x="173.488" y="-330.688"/>
			<point x="97.392" y="-258.312"/>
			<point x="97.392" y="-141.8" type="curve" smooth="yes"/>
			<point x="97.392" y="34.84"/>
			<point x="210.696" y="121.064"/>
			<point x="558.528" y="88.632" type="curve"/>
			<point x="639.456" y="502.328" type="line"/>
			<point x="599.032" y="502.328" type="line"/>
			<point x="457.624" y="172.992" type="line"/>
			<point x="565.84" y="345.072" type="line"/>
			<point x="141.536" y="386.928"/>
			<point x="-18.064" y="241.32"/>
			<point x="-18.064" y="-21.96" type="curve" smooth="yes"/>
			<point x="-18.064" y="-234.144"/>
			<point x="141.864" y="-432.832"/>
		</contour>
	</outline>
</glyph>
<glyph name="AE" format="2">
  <advance width="2156.8"/>
  <unicode hex="00C6"/>
  <anchor x="1416.816" y="1430.0" name="UCtop"/>
  <anchor x="992.128" y="0.0" name="bottom"/>
  <outline>
    <contour>
      <point x="65.48" y="77.904" type="line"/>
      <point x="1244.6480000000001" y="1361.488" type="line"/>
      <point x="1230.4080000000001" y="1368.4879999999998" type="line"/>
      <point x="833.128" y="73.608" type="line"/>
      <point x="666.144" y="24.535999999999998" type="line"/>
      <point x="659.496" y="0.0" type="line"/>
      <point x="1177.96" y="0.0" type="line"/>
      <point x="1614.904" y="1430.0" type="line"/>
      <point x="988.5600000000001" y="1430.0" type="line"/>
      <point x="981.912" y="1405.464" type="line"/>
      <point x="1153.4479999999999" y="1356.856" type="line"/>
      <point x="-23.552" y="80.904" type="line"/>
      <point x="-186.12800000000001" y="24.535999999999998" type="line"/>
      <point x="-194.72" y="0.0" type="line"/>
      <point x="210.94400000000002" y="0.0" type="line"/>
      <point x="219.536" y="24.535999999999998" type="line"/>
    </contour>
    <contour>
      <point x="1812.008" y="-71.496" type="line"/>
      <point x="1834.56" y="-71.496" type="line"/>
      <point x="2104.088" y="423.432" type="line"/>
      <point x="2071.128" y="444.264" type="line"/>
      <point x="1658.6399999999999" y="49.016000000000005" type="line"/>
      <point x="1844.176" y="70.256" type="line"/>
      <point x="1004.176" y="70.256" type="line"/>
      <point x="975.16" y="0.0" type="line"/>
      <point x="1677.232" y="0.0" type="line"/>
    </contour>
    <contour>
      <point x="436.79200000000003" y="516.8240000000001" type="line"/>
      <point x="1093.856" y="516.8240000000001" type="line"/>
      <point x="1115.096" y="587.0799999999999" type="line"/>
      <point x="458.384" y="587.0799999999999" type="line"/>
    </contour>
    <contour>
      <point x="1690.528" y="455.0" type="line"/>
      <point x="1723.192" y="455.0" type="line"/>
      <point x="1780.192" y="746.0" type="line"/>
      <point x="1902.192" y="1039.0" type="line"/>
      <point x="1869.528" y="1039.0" type="line"/>
      <point x="1691.064" y="796.3119999999999" type="line"/>
      <point x="1303.528" y="762.4799999999999" type="line"/>
      <point x="1286.808" y="730.5200000000001" type="line"/>
      <point x="1666.992" y="700.6880000000001" type="line"/>
    </contour>
    <contour>
      <point x="2174.08" y="1000.544" type="line"/>
      <point x="2211.04" y="1000.544" type="line"/>
      <point x="2277.264" y="1505.384" type="line"/>
      <point x="2257.9519999999998" y="1505.384" type="line"/>
      <point x="2085.0319999999997" y="1430.0" type="line"/>
      <point x="1412.16" y="1430.0" type="line"/>
      <point x="1384.44" y="1359.744" type="line"/>
      <point x="2202.272" y="1359.744" type="line"/>
      <point x="2074.6800000000003" y="1386.8719999999998" type="line"/>
    </contour>
  </outline>
</glyph>
<glyph name="Ccedilla" format="2">
	<unicode hex="00C7"/>
	<advance width="1412.512"/>
	<outline>
		<contour>
			<point x="1056.376" y="119.376" type="line"/>
			<point x="972.144" y="66.552"/>
			<point x="874.728" y="43.976"/>
			<point x="778.224" y="43.976" type="curve" smooth="yes"/>
			<point x="582.44" y="43.976"/>
			<point x="456.544" y="188.848"/>
			<point x="456.544" y="481.024" type="curve" smooth="yes"/>
			<point x="456.544" y="926.168"/>
			<point x="701.928" y="1387.152"/>
			<point x="1103.992" y="1387.152" type="curve" smooth="yes"/>
			<point x="1207.032" y="1387.152"/>
			<point x="1291.144" y="1357.208"/>
			<point x="1367.904" y="1239.584" type="curve"/>
			<point x="1311.888" y="1349.04" type="line"/>
			<point x="1426.456" y="952.528" type="line"/>
			<point x="1461.176" y="952.528" type="line"/>
			<point x="1509.064" y="1500.848" type="line"/>
			<point x="1494.768" y="1500.848" type="line"/>
			<point x="1312.112" y="1396.056" type="line"/>
			<point x="1475.096" y="1407.464" type="line"/>
			<point x="1360.544" y="1440.592"/>
			<point x="1248.456" y="1456.48"/>
			<point x="1124.96" y="1456.48" type="curve" smooth="yes"/>
			<point x="516.96" y="1456.48"/>
			<point x="114.728" y="1013.96"/>
			<point x="114.728" y="510.744" type="curve" smooth="yes"/>
			<point x="114.728" y="194.72"/>
			<point x="314.936" y="-26.48"/>
			<point x="762.448" y="-26.48" type="curve" smooth="yes"/>
			<point x="895.208" y="-26.48"/>
			<point x="1008.12" y="-11.832"/>
			<point x="1148.752" y="22.336" type="curve"/>
			<point x="1335.952" y="397.288" type="line"/>
			<point x="1303.528" y="397.288" type="line"/>
			<point x="969.208" y="60.984" type="line"/>
		</contour>
		<contour>
			<point x="571.208" y="-414.336" type="curve" smooth="yes"/>
			<point x="496.56" y="-414.336"/>
			<point x="461.192" y="-324.672"/>
			<point x="446.192" y="-324.672" type="curve" smooth="yes"/>
			<point x="410.656" y="-324.672"/>
			<point x="385.472" y="-347.968"/>
			<point x="385.472" y="-387.744" type="curve" smooth="yes"/>
			<point x="385.472" y="-428.224"/>
			<point x="418.952" y="-465"/>
			<point x="516.024" y="-465" type="curve"/>
			<point x="687.536" y="-465"/>
			<point x="800.72" y="-357.744"/>
			<point x="800.72" y="-250.56" type="curve" smooth="yes"/>
			<point x="800.72" y="-184.56"/>
			<point x="759.888" y="-131.912"/>
			<point x="610.56" y="-82.728" type="curve"/>
			<point x="567.528" y="-180.496" type="line"/>
			<point x="767.112" y="37.032" type="line"/>
			<point x="707.32" y="37.032" type="line"/>
			<point x="482.032" y="-212.736" type="line"/>
			<point x="482.032" y="-217.384" type="line"/>
			<point x="634.064" y="-253.736"/>
			<point x="669.416" y="-293.552"/>
			<point x="669.416" y="-336.072" type="curve" smooth="yes"/>
			<point x="669.416" y="-382.464"/>
			<point x="631.376" y="-414.336"/>
		</contour>
	</outline>
</glyph>
<glyph name="multiply" format="2">
	<unicode hex="00D7"/>
	<advance width="1150"/>
	<outline>
		<contour>
			<point x="126.816" y="221.424" type="line"/>
			<point x="171.184" y="156.52" type="line"/>
			<point x="1023.184" y="802.576" type="line"/>
			<point x="978.816" y="867.48" type="line"/>
		</contour>
		<contour>
			<point x="321.52" y="817.464" type="line"/>
			<point x="760.928" y="156.52" type="line"/>
			<point x="828.48" y="206.536" type="line"/>
			<point x="389.072" y="867.48" type="line"/>
		</contour>
	</outline>
</glyph>
<glyph name="Oslash" format="2">
	<unicode hex="00D8"/>
	<advance width="1593.328"/>
	<outline>
		<contour>
			<point x="1791.952" y="1430" type="line"/>
			<point x="1674.048" y="1430" type="line"/>
			<point x="1420.76" y="1224.376" type="line"/>
			<point x="1320.064" y="1170.08" type="line"/>
			<point x="352.08" y="319.696" type="line"/>
			<point x="248.328" y="262.696" type="line"/>
			<point x="-75.272" y="0" type="line"/>
			<point x="42.632" y="0" type="line"/>
			<point x="295.92" y="205.624" type="line"/>
			<point x="396.616" y="259.92" type="line"/>
			<point x="1364.6" y="1110.304" type="line"/>
			<point x="1468.352" y="1167.304" type="line"/>
		</contour>
		<contour>
			<point x="453.528" y="325.288" type="curve" smooth="yes"/>
			<point x="453.528" y="698.072"/>
			<point x="716.36" y="1385.504"/>
			<point x="1065.488" y="1385.504" type="curve" smooth="yes"/>
			<point x="1192.768" y="1385.504"/>
			<point x="1262.8" y="1297.232"/>
			<point x="1262.8" y="1104.712" type="curve" smooth="yes"/>
			<point x="1262.8" y="731.928"/>
			<point x="999.968" y="44.496"/>
			<point x="650.84" y="44.496" type="curve" smooth="yes"/>
			<point x="523.56" y="44.496"/>
			<point x="453.528" y="132.768"/>
		</contour>
		<contour>
			<point x="1596.432" y="920.608" type="curve" smooth="yes"/>
			<point x="1596.432" y="1239.464"/>
			<point x="1410.464" y="1456.48"/>
			<point x="1046.952" y="1456.48" type="curve" smooth="yes"/>
			<point x="499.56" y="1456.48"/>
			<point x="119.896" y="957.84"/>
			<point x="119.896" y="509.392" type="curve" smooth="yes"/>
			<point x="119.896" y="190.536"/>
			<point x="305.864" y="-26.48"/>
			<point x="669.376" y="-26.48" type="curve" smooth="yes"/>
			<point x="1216.768" y="-26.48"/>
			<point x="1596.432" y="472.16"/>
		</contour>
	</outline>
	<anchor name="UCtop" x="1097.4" y="1430"/>
	<anchor name="bottom" x="603.48" y="0"/>
</glyph>
<glyph name="Thorn" format="2">
	<unicode hex="00DE"/>
	<advance width="1383.248"/>
	<outline>
		<contour>
			<point x="665.096" y="397.944" type="curve" smooth="yes"/>
			<point x="341.672" y="397.944" type="line"/>
			<point x="328.504" y="327.688" type="line"/>
			<point x="751.4" y="327.688" type="line" smooth="yes"/>
			<point x="1165.744" y="327.688"/>
			<point x="1394.448" y="528.576"/>
			<point x="1394.448" y="801.704" type="curve" smooth="yes"/>
			<point x="1394.448" y="980.832"/>
			<point x="1270.504" y="1132.072"/>
			<point x="920.952" y="1132.072" type="curve" smooth="yes"/>
			<point x="576.928" y="1132.072" type="line"/>
			<point x="537.544" y="1061.816" type="line"/>
			<point x="796.576" y="1061.816" type="line" smooth="yes"/>
			<point x="975.832" y="1061.816"/>
			<point x="1048.168" y="990.768"/>
			<point x="1048.168" y="861.544" type="curve" smooth="yes"/>
			<point x="1048.168" y="624.096"/>
			<point x="915.456" y="397.944"/>
		</contour>
		<contour>
			<point x="468.712" y="1358.984" type="line"/>
			<point x="74.248" y="73.608" type="line"/>
			<point x="-92.736" y="24.536" type="line"/>
			<point x="-99.384" y="0" type="line"/>
			<point x="579.176" y="0" type="line"/>
			<point x="584.824" y="24.536" type="line"/>
			<point x="440.32" y="71.016" type="line"/>
			<point x="834.136" y="1356.392" type="line"/>
			<point x="1001.12" y="1405.464" type="line"/>
			<point x="1007.768" y="1430" type="line"/>
			<point x="329.856" y="1430" type="line"/>
			<point x="323.208" y="1405.464" type="line"/>
		</contour>
	</outline>
</glyph>
<glyph name="germandbls" format="2">
  <advance width="1316.3519999999999"/>
  <unicode hex="00DF"/>
  <outline>
    <contour>
      <point x="118.74399999999999" y="950.616" type="line"/>
      <point x="469.6" y="950.616" type="line"/>
      <point x="483.488" y="1024.0" type="line"/>
      <point x="130.984" y="1024.0" type="line"/>
    </contour>
    <contour>
      <point x="479.608" y="293.37600000000003" type="curve" smooth="yes"/>
      <point x="689.1440000000001" y="1107.84" type="line" smooth="yes"/>
      <point x="754.424" y="1360.48"/>
      <point x="831.8879999999999" y="1441.576"/>
      <point x="971.576" y="1441.576" type="curve" smooth="yes"/>
      <point x="1069.52" y="1441.576"/>
      <point x="1112.984" y="1389.224"/>
      <point x="1112.984" y="1284.8" type="curve" smooth="yes"/>
      <point x="1112.984" y="1166.56"/>
      <point x="1071.336" y="1070.5600000000002"/>
      <point x="927.4639999999999" y="950.224" type="curve" smooth="yes"/>
      <point x="783.592" y="829.888"/>
      <point x="745.336" y="751.616"/>
      <point x="745.336" y="646.808" type="curve" smooth="yes"/>
      <point x="745.336" y="560.4399999999999"/>
      <point x="776.984" y="498.664"/>
      <point x="877.4079999999999" y="390.144" type="curve" smooth="yes"/>
      <point x="977.832" y="281.62399999999997"/>
      <point x="1003.0" y="233.768"/>
      <point x="1003.0" y="170.432" type="curve" smooth="yes"/>
      <point x="1003.0" y="83.448"/>
      <point x="956.792" y="39.128"/>
      <point x="874.528" y="39.128" type="curve" smooth="yes"/>
      <point x="830.624" y="39.128"/>
      <point x="803.736" y="43.424"/>
      <point x="785.736" y="70.312" type="curve" smooth="yes"/>
      <point x="767.736" y="97.2"/>
      <point x="759.032" y="149.44000000000003"/>
      <point x="755.6800000000001" y="263.76800000000003" type="curve" smooth="yes"/>
      <point x="614.408" y="263.76800000000003"/>
      <point x="555.04" y="222.344"/>
      <point x="555.04" y="129.44" type="curve" smooth="yes"/>
      <point x="555.04" y="38.128"/>
      <point x="624.832" y="-26.48"/>
      <point x="791.568" y="-26.48" type="curve" smooth="yes"/>
      <point x="1047.928" y="-26.48"/>
      <point x="1214.624" y="155.608"/>
      <point x="1214.624" y="355.808" type="curve" smooth="yes"/>
      <point x="1214.624" y="450.136"/>
      <point x="1179.1439999999998" y="535.8"/>
      <point x="1078.296" y="643.688" type="curve" smooth="yes"/>
      <point x="977.448" y="751.576"/>
      <point x="960.2239999999999" y="789.896"/>
      <point x="960.2239999999999" y="837.9359999999999" type="curve" smooth="yes"/>
      <point x="960.2239999999999" y="905.5840000000001"/>
      <point x="991.816" y="956.232"/>
      <point x="1127.6879999999999" y="1025.016" type="curve" smooth="yes"/>
      <point x="1263.56" y="1093.8"/>
      <point x="1312.672" y="1164.152"/>
      <point x="1312.672" y="1263.264" type="curve" smooth="yes"/>
      <point x="1312.672" y="1394.408"/>
      <point x="1210.528" y="1490.48"/>
      <point x="988.6479999999999" y="1490.48" type="curve" smooth="yes"/>
      <point x="658.528" y="1490.48"/>
      <point x="392.74399999999997" y="1282.176"/>
      <point x="316.04" y="933.4" type="curve" smooth="yes"/>
      <point x="103.26400000000001" y="-38.232" type="line" smooth="yes"/>
      <point x="40.832" y="-321.312"/>
      <point x="-43.263999999999996" y="-403.744"/>
      <point x="-130.432" y="-403.744" type="curve" smooth="yes"/>
      <point x="-177.096" y="-403.744"/>
      <point x="-187.096" y="-380.672"/>
      <point x="-163.32000000000002" y="-282.40000000000003" type="curve" smooth="yes"/>
      <point x="-139.54399999999998" y="-184.128"/>
      <point x="-161.08" y="-141.632"/>
      <point x="-247.128" y="-141.632" type="curve" smooth="yes"/>
      <point x="-335.40000000000003" y="-141.632"/>
      <point x="-386.656" y="-206.88799999999998"/>
      <point x="-386.656" y="-285.62399999999997" type="curve" smooth="yes"/>
      <point x="-386.656" y="-390.08"/>
      <point x="-305.79200000000003" y="-465.0"/>
      <point x="-156.12" y="-465.0" type="curve" smooth="yes"/>
      <point x="92.456" y="-465.0"/>
      <point x="338.648" y="-254.61599999999999"/>
    </contour>
  </outline>
</glyph>
<glyph name="ae" format="2">
	<unicode hex="00E6"/>
	<advance width="1616.36"/>
	<outline>
		<contour>
			<point x="1123" y="856.56" type="line"/>
			<point x="1179.832" y="1024" type="line"/>
			<point x="900.84" y="1024" type="line"/>
			<point x="860.008" y="904.208" type="line"/>
			<point x="715.096" y="481.64" type="line" smooth="yes"/>
			<point x="556.24" y="221.512"/>
			<point x="471.232" y="171.264"/>
			<point x="407.192" y="171.264" type="curve" smooth="yes"/>
			<point x="357.024" y="171.264"/>
			<point x="334.816" y="193.488"/>
			<point x="334.816" y="266.176" type="curve" smooth="yes"/>
			<point x="334.816" y="486.904"/>
			<point x="562.584" y="925.752"/>
			<point x="762.464" y="925.752" type="curve" smooth="yes"/>
			<point x="813.56" y="925.752"/>
			<point x="853.84" y="904.176"/>
			<point x="887.304" y="836.52" type="curve"/>
			<point x="896.896" y="870.52" type="line"/>
			<point x="831.104" y="994.72"/>
			<point x="748.032" y="1049.072"/>
			<point x="656.904" y="1049.072" type="curve" smooth="yes"/>
			<point x="333" y="1049.072"/>
			<point x="-10.016" y="542.36"/>
			<point x="-10.016" y="183.256" type="curve" smooth="yes"/>
			<point x="-10.016" y="58.608"/>
			<point x="77.352" y="-26.48"/>
			<point x="208.272" y="-26.48" type="curve" smooth="yes"/>
			<point x="340.208" y="-26.48"/>
			<point x="488.408" y="36.336"/>
			<point x="735.04" y="455.904" type="curve"/>
			<point x="720.744" y="455.904" type="line"/>
			<point x="673.96" y="145.272"/>
			<point x="798.272" y="-26.48"/>
			<point x="1051.816" y="-26.48" type="curve" smooth="yes"/>
			<point x="1233.456" y="-26.48"/>
			<point x="1391.192" y="56.336"/>
			<point x="1533.208" y="422.864" type="curve"/>
			<point x="1518.968" y="423.568" type="line"/>
			<point x="1400.616" y="218.472"/>
			<point x="1293.744" y="169.912"/>
			<point x="1185.336" y="169.912" type="curve" smooth="yes"/>
			<point x="1076.024" y="169.912"/>
			<point x="1027.264" y="229.744"/>
			<point x="1027.264" y="364.616" type="curve" smooth="yes"/>
			<point x="1027.264" y="679.856"/>
			<point x="1190.448" y="991.04"/>
			<point x="1348.352" y="991.04" type="curve" smooth="yes"/>
			<point x="1388.856" y="991.04"/>
			<point x="1412.488" y="961.944"/>
			<point x="1412.488" y="895.24" type="curve" smooth="yes"/>
			<point x="1412.488" y="750.24"/>
			<point x="1329.448" y="642.112"/>
			<point x="953.704" y="506.504" type="curve"/>
			<point x="947.704" y="469.024" type="line"/>
			<point x="1170.04" y="524.136"/>
			<point x="1441.576" y="606.472"/>
			<point x="1577.896" y="663.248" type="curve"/>
			<point x="1621.136" y="721.6"/>
			<point x="1643.264" y="790.08"/>
			<point x="1643.264" y="861.336" type="curve" smooth="yes"/>
			<point x="1643.264" y="957.336"/>
			<point x="1593.28" y="1050.48"/>
			<point x="1430.104" y="1050.48" type="curve" smooth="yes"/>
			<point x="1285.352" y="1050.48"/>
			<point x="1182.392" y="972.8"/>
			<point x="1117.704" y="856.56" type="curve"/>
		</contour>
	</outline>
	<anchor name="top" x="1019.256" y="1024"/>
	<anchor name="bottom" x="731.528" y="0"/>
</glyph>
<glyph name="ccedilla" format="2">
  <advance width="918.896"/>
  <unicode hex="00E7"/>
  <outline>
    <contour>
      <point x="173.816" y="-465.0" type="curve"/>
      <point x="345.328" y="-465.0"/>
      <point x="458.512" y="-357.74399999999997"/>
      <point x="458.512" y="-250.56000000000003" type="curve" smooth="yes"/>
      <point x="458.512" y="-184.56"/>
      <point x="417.68" y="-131.912"/>
      <point x="268.35200000000003" y="-82.728" type="curve"/>
      <point x="225.32" y="-180.49599999999998" type="line"/>
      <point x="424.904" y="37.032" type="line"/>
      <point x="365.112" y="37.032" type="line"/>
      <point x="139.824" y="-212.73600000000002" type="line"/>
      <point x="139.824" y="-217.38400000000001" type="line"/>
      <point x="291.856" y="-253.736"/>
      <point x="327.20799999999997" y="-293.552"/>
      <point x="327.20799999999997" y="-336.072" type="curve" smooth="yes"/>
      <point x="327.20799999999997" y="-382.464"/>
      <point x="289.168" y="-414.33599999999996"/>
      <point x="229.0" y="-414.33599999999996" type="curve" smooth="yes"/>
      <point x="154.352" y="-414.33599999999996"/>
      <point x="118.98400000000001" y="-324.672"/>
      <point x="103.98400000000001" y="-324.672" type="curve" smooth="yes"/>
      <point x="68.44800000000001" y="-324.672"/>
      <point x="43.264" y="-347.968"/>
      <point x="43.264" y="-387.74399999999997" type="curve" smooth="yes"/>
      <point x="43.264" y="-428.224"/>
      <point x="76.744" y="-465.0"/>
    </contour>
    <contour>
      <point x="687.592" y="992.8" type="curve" smooth="yes"/>
      <point x="742.7760000000001" y="992.8"/>
      <point x="760.016" y="965.968"/>
      <point x="731.832" y="865.6560000000001" type="curve" smooth="yes"/>
      <point x="703.648" y="765.344"/>
      <point x="727.0" y="729.568"/>
      <point x="798.4799999999999" y="729.568" type="curve" smooth="yes"/>
      <point x="895.808" y="729.568"/>
      <point x="967.968" y="794.048"/>
      <point x="967.968" y="883.264" type="curve" smooth="yes"/>
      <point x="967.968" y="978.76"/>
      <point x="898.656" y="1050.48"/>
      <point x="709.28" y="1050.48" type="curve" smooth="yes"/>
      <point x="311.57599999999996" y="1050.48"/>
      <point x="30.927999999999997" y="689.808"/>
      <point x="30.927999999999997" y="308.208" type="curve" smooth="yes"/>
      <point x="30.927999999999997" y="105.4"/>
      <point x="144.96" y="-26.48"/>
      <point x="370.408" y="-26.48" type="curve" smooth="yes"/>
      <point x="570.008" y="-26.48"/>
      <point x="713.968" y="75.0"/>
      <point x="849.336" y="422.864" type="curve"/>
      <point x="835.096" y="423.568" type="line"/>
      <point x="724.632" y="230.89600000000002"/>
      <point x="622.24" y="169.912"/>
      <point x="503.22400000000005" y="169.912" type="curve" smooth="yes"/>
      <point x="394.968" y="169.912"/>
      <point x="348.32" y="229.744"/>
      <point x="348.32" y="364.616" type="curve" smooth="yes"/>
      <point x="348.32" y="706.96"/>
      <point x="524.264" y="992.8"/>
    </contour>
  </outline>
</glyph>
<glyph name="eth" format="2">
  <advance width="1081.464"/>
  <unicode hex="00F0"/>
  <outline>
    <contour>
      <point x="847.6080000000001" y="863.072" type="line"/>
      <point x="846.3119999999999" y="947.9440000000001"/>
      <point x="791.4079999999999" y="1012.0"/>
      <point x="663.528" y="1012.0" type="curve" smooth="yes"/>
      <point x="330.848" y="1012.0"/>
      <point x="29.168" y="678.0799999999999"/>
      <point x="29.168" y="322.024" type="curve" smooth="yes"/>
      <point x="29.168" y="107.976"/>
      <point x="149.16" y="-26.48"/>
      <point x="379.608" y="-26.48" type="curve" smooth="yes"/>
      <point x="774.32" y="-26.48"/>
      <point x="1064.0720000000001" y="362.96"/>
      <point x="1064.0720000000001" y="827.616" type="curve" smooth="yes"/>
      <point x="1064.072" y="1136.328"/>
      <point x="897.936" y="1384.16"/>
      <point x="472.712" y="1490.776" type="curve"/>
      <point x="457.712" y="1451.704" type="line"/>
      <point x="785.544" y="1336.8"/>
      <point x="861.128" y="1132.16"/>
      <point x="808.928" y="863.424" type="curve"/>
    </contour>
    <contour>
      <point x="359.28" y="32.791999999999994" type="curve" smooth="yes"/>
      <point x="317.2" y="32.791999999999994"/>
      <point x="298.272" y="59.224000000000004"/>
      <point x="298.272" y="128.10399999999998" type="curve" smooth="yes"/>
      <point x="298.272" y="446.98400000000004"/>
      <point x="531.456" y="952.728"/>
      <point x="702.648" y="952.728" type="curve" smooth="yes"/>
      <point x="744.7280000000001" y="952.728"/>
      <point x="763.656" y="926.2959999999999"/>
      <point x="763.656" y="857.4159999999999" type="curve" smooth="yes"/>
      <point x="763.656" y="538.536"/>
      <point x="530.472" y="32.791999999999994"/>
    </contour>
    <contour>
      <point x="508.056" y="1085.5359999999998" type="line"/>
      <point x="1078.952" y="1455.792" type="line"/>
      <point x="1052.064" y="1499.568" type="line"/>
      <point x="480.52" y="1129.6640000000002" type="line"/>
    </contour>
  </outline>
</glyph>
<glyph name="divide" format="2">
	<unicode hex="00F7"/>
	<advance width="1150"/>
	<outline>
		<contour>
			<point x="177.24" y="554.72" type="line"/>
			<point x="150.76" y="469.28" type="line"/>
			<point x="972.76" y="469.28" type="line"/>
			<point x="999.24" y="554.72" type="line"/>
		</contour>
		<contour>
			<point x="684" y="986.904" type="curve" smooth="yes"/>
			<point x="615.28" y="986.904"/>
			<point x="565.448" y="934.424"/>
			<point x="565.448" y="870" type="curve" smooth="yes"/>
			<point x="565.448" y="805.576"/>
			<point x="615.28" y="752.448"/>
			<point x="684" y="752.448" type="curve" smooth="yes"/>
			<point x="752.72" y="752.448"/>
			<point x="802.552" y="805.576"/>
			<point x="802.552" y="870" type="curve" smooth="yes"/>
			<point x="802.552" y="934.424"/>
			<point x="752.72" y="986.904"/>
		</contour>
		<contour>
			<point x="466.648" y="271.904" type="curve" smooth="yes"/>
			<point x="397.928" y="271.904"/>
			<point x="348.096" y="218.424"/>
			<point x="348.096" y="154" type="curve" smooth="yes"/>
			<point x="348.096" y="89.576"/>
			<point x="397.928" y="37.096"/>
			<point x="466.648" y="37.096" type="curve" smooth="yes"/>
			<point x="535.368" y="37.096"/>
			<point x="585.2" y="89.576"/>
			<point x="585.2" y="154" type="curve" smooth="yes"/>
			<point x="585.2" y="218.424"/>
			<point x="535.368" y="271.904"/>
		</contour>
	</outline>
</glyph>
<glyph name="oslash" format="2">
	<unicode hex="00F8"/>
	<advance width="1100.856"/>
	<outline>
		<contour>
			<point x="700.432" y="1050.48" type="curve" smooth="yes"/>
			<point x="348.96" y="1050.48"/>
			<point x="47.28" y="704.56"/>
			<point x="47.28" y="334.912" type="curve" smooth="yes"/>
			<point x="47.28" y="112.92"/>
			<point x="167.272" y="-26.48"/>
			<point x="397.72" y="-26.48" type="curve" smooth="yes"/>
			<point x="749.192" y="-26.48"/>
			<point x="1050.872" y="319.44"/>
			<point x="1050.872" y="689.088" type="curve" smooth="yes"/>
			<point x="1050.872" y="911.08"/>
			<point x="930.88" y="1050.48"/>
		</contour>
		<contour>
			<point x="377.392" y="32.792" type="curve" smooth="yes"/>
			<point x="335.312" y="32.792"/>
			<point x="316.384" y="60.576"/>
			<point x="316.384" y="133.456" type="curve" smooth="yes"/>
			<point x="316.384" y="464.632"/>
			<point x="549.568" y="991.208"/>
			<point x="720.76" y="991.208" type="curve" smooth="yes"/>
			<point x="762.84" y="991.208"/>
			<point x="781.768" y="963.424"/>
			<point x="781.768" y="890.544" type="curve" smooth="yes"/>
			<point x="781.768" y="559.368"/>
			<point x="548.584" y="32.792"/>
		</contour>
		<contour>
			<point x="1084.376" y="1024" type="line"/>
			<point x="934.568" y="894.928" type="line"/>
			<point x="852.688" y="862.8" type="line"/>
			<point x="218.8" y="221.272" type="line"/>
			<point x="143.64" y="197.328" type="line"/>
			<point x="-85.384" y="0" type="line"/>
			<point x="26.296" y="0" type="line"/>
			<point x="176.752" y="129.072" type="line"/>
			<point x="258.632" y="161.2" type="line"/>
			<point x="892.52" y="802.728" type="line"/>
			<point x="967.032" y="826.672" type="line"/>
			<point x="1196.056" y="1024" type="line"/>
		</contour>
	</outline>
	<anchor name="top" x="712.056" y="1024"/>
	<anchor name="bottom" x="371.576" y="0"/>
</glyph>
<glyph name="thorn" format="2">
	<unicode hex="00FE"/>
	<advance width="1160.24"/>
	<outline>
		<contour>
			<point x="354.064" y="269.312" type="curve" smooth="yes"/>
			<point x="434.136" y="557.32" type="line" smooth="yes"/>
			<point x="521.48" y="750.632"/>
			<point x="631.736" y="859.312"/>
			<point x="724.512" y="859.312" type="curve" smooth="yes"/>
			<point x="776.792" y="859.312"/>
			<point x="801.832" y="823.496"/>
			<point x="801.832" y="731.272" type="curve" smooth="yes"/>
			<point x="801.832" y="413.024"/>
			<point x="584.672" y="33.496"/>
			<point x="431.144" y="33.496" type="curve" smooth="yes"/>
			<point x="366.048" y="33.496"/>
			<point x="339.416" y="94.96"/>
			<point x="339.416" y="168.24" type="curve" smooth="yes"/>
			<point x="339.416" y="201.128"/>
			<point x="345.064" y="237.016"/>
		</contour>
		<contour>
			<point x="433.088" y="586.56" type="line"/>
			<point x="735.6" y="1490.48" type="line"/>
			<point x="720.288" y="1490.48" type="line"/>
			<point x="210.192" y="1394.688" type="line"/>
			<point x="204.656" y="1371.192" type="line"/>
			<point x="261.656" y="1319.2903311258"/>
			<point x="320.304" y="1265.7960013942"/>
			<point x="356.304" y="1233.016" type="curve"/>
			<point x="-140.496" y="-375.04" type="line"/>
			<point x="-260.816" y="-408.928" type="line"/>
			<point x="-267.168" y="-438.52" type="line"/>
			<point x="294.848" y="-438.52" type="line"/>
			<point x="301.848" y="-408.28" type="line"/>
			<point x="180.616" y="-375.688" type="line"/>
			<point x="322.616" y="101.368" type="line"/>
			<point x="185.52" y="121.296" type="line"/>
			<point x="215.464" y="32.224"/>
			<point x="301.2" y="-26.48"/>
			<point x="462.952" y="-26.48" type="curve" smooth="yes"/>
			<point x="824.784" y="-26.48"/>
			<point x="1143.24" y="374.064"/>
			<point x="1143.24" y="762.976" type="curve" smooth="yes"/>
			<point x="1143.24" y="948.968"/>
			<point x="1050.56" y="1050.48"/>
			<point x="901.712" y="1050.48" type="curve" smooth="yes"/>
			<point x="737.128" y="1050.48"/>
			<point x="582.408" y="936.096"/>
			<point x="417.792" y="586.56" type="curve"/>
		</contour>
	</outline>
</glyph>
<glyph name="Aogonek" format="2">
	<unicode hex="0104"/>
	<advance width="1510.512"/>
	<outline>
		<contour>
			<point x="335.288" y="485.72" type="line"/>
			<point x="1015.712" y="485.72" type="line"/>
			<point x="1036.952" y="555.976" type="line"/>
			<point x="356.88" y="555.976" type="line"/>
		</contour>
		<contour>
			<point x="1280.656" y="78.736" type="line"/>
			<point x="1107.6" y="1437.04" type="line"/>
			<point x="909.6" y="1437.04" type="line"/>
			<point x="3.28" y="80.904" type="line"/>
			<point x="-159.296" y="24.536" type="line"/>
			<point x="-167.888" y="0" type="line"/>
			<point x="232.536" y="0" type="line"/>
			<point x="241.128" y="24.536" type="line"/>
			<point x="87.072" y="77.904" type="line"/>
			<point x="835.04" y="1212.224" type="line"/>
			<point x="807.8" y="1212.224" type="line"/>
			<point x="936.728" y="74.792" type="line"/>
			<point x="771.6" y="24.536" type="line"/>
			<point x="762.36" y="0" type="line"/>
			<point x="1401.512" y="0" type="line"/>
			<point x="1410.104" y="24.536" type="line"/>
		</contour>
		<contour>
			<point x="967.472" y="-274.488" type="curve" smooth="yes"/>
			<point x="967.472" y="-217.176"/>
			<point x="991.784" y="-162.008"/>
			<point x="1127.088" y="-26.84" type="curve" smooth="yes"/>
			<point x="1240.432" y="87.848" type="line"/>
			<point x="1211.008" y="87.848" type="line"/>
			<point x="1043.888" y="-56.064" type="line" smooth="yes"/>
			<point x="846.408" y="-218.208"/>
			<point x="818.368" y="-276.632"/>
			<point x="818.368" y="-353.984" type="curve" smooth="yes"/>
			<point x="818.368" y="-418.816"/>
			<point x="857.072" y="-465"/>
			<point x="951.2" y="-465" type="curve" smooth="yes"/>
			<point x="1021.144" y="-465"/>
			<point x="1082.568" y="-435.48"/>
			<point x="1187.968" y="-312.448" type="curve"/>
			<point x="1180.616" y="-301.504" type="line"/>
			<point x="1137.08" y="-334.264"/>
			<point x="1103.08" y="-348.616"/>
			<point x="1050.768" y="-348.616" type="curve" smooth="yes"/>
			<point x="995.64" y="-348.616"/>
			<point x="967.472" y="-322.432"/>
		</contour>
	</outline>
</glyph>
<glyph name="aogonek" format="2">
  <advance width="1200"/>
  <unicode hex="0105"/>
  <outline>
    <contour>
      <point x="1169.8319999999999" y="350.86400000000003" type="curve"/>
      <point x="1158.24" y="359.808" type="line"/>
      <point x="1036.3999999999999" y="217.448"/>
      <point x="942.896" y="158.32000000000002"/>
      <point x="863.328" y="145.864" type="curve"/>
      <point x="890.808" y="107.088" type="line"/>
      <point x="1199.976" y="1024.0" type="line"/>
      <point x="901.5440000000001" y="1024.0" type="line"/>
      <point x="860.7120000000001" y="904.2080000000001" type="line"/>
      <point x="712.5600000000001" y="474.512" type="line" smooth="yes"/>
      <point x="558.888" y="216.976"/>
      <point x="467.4" y="171.264"/>
      <point x="407.89599999999996" y="171.264" type="curve" smooth="yes"/>
      <point x="357.02400000000006" y="171.264"/>
      <point x="335.52000000000004" y="194.192"/>
      <point x="335.52000000000004" y="266.176" type="curve" smooth="yes"/>
      <point x="335.52000000000004" y="521.368"/>
      <point x="582.568" y="925.7520000000001"/>
      <point x="763.168" y="925.7520000000001" type="curve" smooth="yes"/>
      <point x="811.744" y="925.7520000000001"/>
      <point x="850.912" y="906.344"/>
      <point x="882.672" y="848.304" type="curve"/>
      <point x="892.968" y="880.136" type="line"/>
      <point x="827.176" y="997.592"/>
      <point x="745.216" y="1049.0720000000001"/>
      <point x="656.904" y="1049.0720000000001" type="curve" smooth="yes"/>
      <point x="340.04" y="1049.0720000000001"/>
      <point x="-9.312" y="552.216"/>
      <point x="-9.312" y="183.256" type="curve" smooth="yes"/>
      <point x="-9.312" y="58.608"/>
      <point x="78.056" y="-26.48"/>
      <point x="208.976" y="-26.48" type="curve" smooth="yes"/>
      <point x="363.392" y="-26.48"/>
      <point x="500.464" y="66.464"/>
      <point x="747.408" y="476.64" type="curve"/>
      <point x="731.872" y="481.176" type="line"/>
      <point x="604.392" y="99.288" type="line" smooth="yes"/>
      <point x="578.968" y="24.608"/>
      <point x="616.9839999999999" y="-26.48"/>
      <point x="701.7760000000001" y="-26.48" type="curve" smooth="yes"/>
      <point x="776.8240000000001" y="-26.48"/>
      <point x="851.3919999999999" y="0.5359999999999996"/>
      <point x="949.16" y="76.824" type="curve"/>
      <point x="944.752" y="83.584" type="line"/>
      <point x="854.408" y="-7.0" type="line" smooth="yes"/>
      <point x="665.528" y="-199.71200000000002"/>
      <point x="597.664" y="-244.232"/>
      <point x="597.664" y="-342.32000000000005" type="curve" smooth="yes"/>
      <point x="597.664" y="-407.15200000000004"/>
      <point x="636.368" y="-465.0"/>
      <point x="730.496" y="-465.0" type="curve" smooth="yes"/>
      <point x="800.4399999999999" y="-465.0"/>
      <point x="861.864" y="-435.47999999999996"/>
      <point x="967.264" y="-312.448" type="curve"/>
      <point x="959.912" y="-301.504" type="line"/>
      <point x="916.3760000000001" y="-334.264"/>
      <point x="882.376" y="-348.616"/>
      <point x="830.064" y="-348.616" type="curve" smooth="yes"/>
      <point x="774.936" y="-348.616"/>
      <point x="748.176" y="-323.488"/>
      <point x="748.176" y="-275.544" type="curve" smooth="yes"/>
      <point x="748.176" y="-218.232"/>
      <point x="774.8960000000001" y="-145.64"/>
      <point x="917.152" y="24.168000000000006" type="curve" smooth="yes"/>
      <point x="1020.4639999999999" y="143.128" type="line" smooth="yes"/>
      <point x="1075.76" y="208.904"/>
      <point x="1121.296" y="273.736"/>
    </contour>
  </outline>
</glyph>
<glyph name="Dcroat" format="2">
  <advance width="1567"/>
  <unicode hex="0110"/>
  <outline>
    <contour>
      <point x="122.26400000000001" y="707.872" type="line"/>
      <point x="899.7040000000001" y="707.872" type="line"/>
      <point x="922.592" y="783.5360000000001" type="line"/>
      <point x="145.152" y="783.5360000000001" type="line"/>
    </contour>
    <contour>
      <point x="569.176" y="70.256" type="curve" smooth="yes"/>
      <point x="250.856" y="70.256" type="line"/>
      <point x="229.024" y="0.0" type="line"/>
      <point x="554.2479999999999" y="0.0" type="line" smooth="yes"/>
      <point x="1180.192" y="0.0"/>
      <point x="1567.536" y="394.136"/>
      <point x="1567.536" y="889.168" type="curve" smooth="yes"/>
      <point x="1567.536" y="1232.04"/>
      <point x="1322.512" y="1430.0"/>
      <point x="925.48" y="1430.0" type="curve" smooth="yes"/>
      <point x="667.024" y="1430.0" type="line"/>
      <point x="704.808" y="1359.744" type="line"/>
      <point x="918.904" y="1359.744" type="line" smooth="yes"/>
      <point x="1117.576" y="1359.744"/>
      <point x="1229.864" y="1247.6399999999999"/>
      <point x="1229.864" y="1014.8720000000001" type="curve" smooth="yes"/>
      <point x="1229.864" y="476.59200000000004"/>
      <point x="941.6479999999999" y="70.256"/>
    </contour>
    <contour>
      <point x="473.952" y="1358.9840000000002" type="line"/>
      <point x="79.488" y="73.608" type="line"/>
      <point x="-87.496" y="24.535999999999998" type="line"/>
      <point x="-94.144" y="0.0" type="line"/>
      <point x="424.32000000000005" y="0.0" type="line"/>
      <point x="861.264" y="1430.0" type="line"/>
      <point x="335.096" y="1430.0" type="line"/>
      <point x="328.448" y="1405.4640000000002" type="line"/>
    </contour>
  </outline>
</glyph>
<glyph name="dcroat" format="2">
  <advance width="1222.104"/>
  <unicode hex="0111"/>
  <outline>
    <contour>
      <point x="911.2800000000001" y="783.3839999999999" type="curve"/>
      <point x="916.984" y="832.288" type="line"/>
      <point x="846.6560000000001" y="984.352"/>
      <point x="756.456" y="1049.072"/>
      <point x="656.904" y="1049.072" type="curve" smooth="yes"/>
      <point x="333.0" y="1049.072"/>
      <point x="-10.016" y="542.3599999999999"/>
      <point x="-10.016" y="183.256" type="curve" smooth="yes"/>
      <point x="-10.016" y="58.608000000000004"/>
      <point x="77.352" y="-26.48"/>
      <point x="208.27200000000002" y="-26.48" type="curve" smooth="yes"/>
      <point x="342.8" y="-26.48"/>
      <point x="486.46400000000006" y="40.224"/>
      <point x="746.704" y="476.64" type="curve"/>
      <point x="734.408" y="477.93600000000004" type="line"/>
      <point x="618.52" y="127.64" type="line" smooth="yes"/>
      <point x="586.688" y="31.088"/>
      <point x="624.536" y="-26.48"/>
      <point x="717.272" y="-26.48" type="curve" smooth="yes"/>
      <point x="857.392" y="-26.48"/>
      <point x="1031.512" y="83.24000000000001"/>
      <point x="1199.624" y="350.86400000000003" type="curve"/>
      <point x="1188.032" y="359.808" type="line"/>
      <point x="1010.904" y="159.664"/>
      <point x="900.2" y="132.104"/>
      <point x="816.1519999999999" y="135.144" type="curve"/>
      <point x="909.544" y="86.35199999999999" type="line"/>
      <point x="1373.576" y="1490.48" type="line"/>
      <point x="1358.264" y="1490.48" type="line"/>
      <point x="922.8" y="1440.048" type="line"/>
      <point x="917.264" y="1416.552" type="line"/>
      <point x="974.264" y="1223.327422034919"/>
      <point x="955.8" y="1399.7645755568933"/>
      <point x="991.8" y="1277.728" type="curve"/>
      <point x="715.096" y="481.64" type="line" smooth="yes"/>
      <point x="568.552" y="243.54399999999998"/>
      <point x="471.232" y="171.264"/>
      <point x="407.192" y="171.264" type="curve" smooth="yes"/>
      <point x="357.024" y="171.264"/>
      <point x="334.81600000000003" y="193.488"/>
      <point x="334.81600000000003" y="266.176" type="curve" smooth="yes"/>
      <point x="334.81600000000003" y="486.904"/>
      <point x="569.0640000000001" y="925.752"/>
      <point x="762.464" y="925.752" type="curve" smooth="yes"/>
      <point x="825.8720000000001" y="925.752"/>
      <point x="872.632" y="892.512"/>
    </contour>
    <contour>
      <point x="664.2080000000001" y="1169.168" type="line"/>
      <point x="1426.16" y="1169.168" type="line"/>
      <point x="1449.4" y="1244.8319999999999" type="line"/>
      <point x="687.448" y="1244.8319999999999" type="line"/>
    </contour>
  </outline>
</glyph>
<glyph name="Eogonek" format="2">
	<unicode hex="0118"/>
	<advance width="1397.92"/>
	<outline>
		<contour>
			<point x="468.712" y="1358.984" type="line"/>
			<point x="74.248" y="73.608" type="line"/>
			<point x="-92.736" y="24.536" type="line"/>
			<point x="-99.384" y="0" type="line"/>
			<point x="419.08" y="0" type="line"/>
			<point x="856.024" y="1430" type="line"/>
			<point x="329.856" y="1430" type="line"/>
			<point x="323.208" y="1405.464" type="line"/>
		</contour>
		<contour>
			<point x="931.648" y="455" type="line"/>
			<point x="964.312" y="455" type="line"/>
			<point x="1021.312" y="746" type="line"/>
			<point x="1143.312" y="1039" type="line"/>
			<point x="1110.648" y="1039" type="line"/>
			<point x="932.184" y="796.312" type="line"/>
			<point x="544.648" y="762.48" type="line"/>
			<point x="527.928" y="730.52" type="line"/>
			<point x="908.112" y="700.688" type="line"/>
		</contour>
		<contour>
			<point x="1452.16" y="1000.544" type="line"/>
			<point x="1518.384" y="1505.384" type="line"/>
			<point x="1499.072" y="1505.384" type="line"/>
			<point x="1326.152" y="1430" type="line"/>
			<point x="653.28" y="1430" type="line"/>
			<point x="625.56" y="1359.744" type="line"/>
			<point x="1443.392" y="1359.744" type="line"/>
			<point x="1315.8" y="1386.872" type="line"/>
			<point x="1415.2" y="1000.544" type="line"/>
		</contour>
		<contour>
			<point x="1053.128" y="-71.496" type="line"/>
			<point x="1075.68" y="-71.496" type="line"/>
			<point x="1345.208" y="423.432" type="line"/>
			<point x="1312.248" y="444.264" type="line"/>
			<point x="899.76" y="49.016" type="line"/>
			<point x="1055.376" y="70.256" type="line"/>
			<point x="245.296" y="70.256" type="line"/>
			<point x="216.28" y="0" type="line"/>
			<point x="918.352" y="0" type="line"/>
		</contour>
		<contour>
			<point x="799.848" y="-270.968" type="curve" smooth="yes"/>
			<point x="799.848" y="-211.192"/>
			<point x="817.2" y="-151.136"/>
			<point x="917.808" y="-20.472" type="curve" smooth="yes"/>
			<point x="1000.848" y="87.848" type="line"/>
			<point x="971.424" y="87.848" type="line"/>
			<point x="839.736" y="-49.696" type="line" smooth="yes"/>
			<point x="672.872" y="-221.416"/>
			<point x="651.448" y="-283.672"/>
			<point x="651.448" y="-352.928" type="curve" smooth="yes"/>
			<point x="651.448" y="-418.816"/>
			<point x="690.152" y="-465"/>
			<point x="784.28" y="-465" type="curve" smooth="yes"/>
			<point x="854.224" y="-465"/>
			<point x="915.648" y="-435.48"/>
			<point x="1021.048" y="-312.448" type="curve"/>
			<point x="1013.696" y="-301.504" type="line"/>
			<point x="970.16" y="-334.264"/>
			<point x="936.16" y="-348.616"/>
			<point x="883.848" y="-348.616" type="curve" smooth="yes"/>
			<point x="825.904" y="-348.616"/>
			<point x="799.848" y="-321.728"/>
		</contour>
	</outline>
</glyph>
<glyph name="eogonek" format="2">
  <advance width="959"/>
  <unicode hex="0119"/>
  <outline>
    <contour>
      <point x="703.008" y="115.19200000000001" type="line" smooth="yes"/>
      <point x="763.912" y="181.96800000000002"/>
      <point x="821.52" y="282.224"/>
      <point x="875.832" y="422.864" type="curve"/>
      <point x="861.592" y="423.568" type="line"/>
      <point x="741.2959999999999" y="215.23200000000003"/>
      <point x="620.816" y="169.912"/>
      <point x="504.63199999999995" y="169.912" type="curve" smooth="yes"/>
      <point x="395.32" y="169.912"/>
      <point x="346.56" y="229.744"/>
      <point x="346.56" y="364.616" type="curve" smooth="yes"/>
      <point x="346.56" y="679.856"/>
      <point x="509.744" y="991.04"/>
      <point x="667.648" y="991.04" type="curve" smooth="yes"/>
      <point x="708.152" y="991.04"/>
      <point x="731.784" y="961.944"/>
      <point x="731.784" y="895.24" type="curve" smooth="yes"/>
      <point x="731.784" y="750.24"/>
      <point x="648.744" y="642.112"/>
      <point x="273.0" y="506.504" type="curve"/>
      <point x="267.0" y="469.024" type="line"/>
      <point x="496.464" y="526.08"/>
      <point x="779.016" y="604.528"/>
      <point x="920.52" y="663.2479999999999" type="curve"/>
      <point x="963.76" y="721.6"/>
      <point x="985.888" y="790.08"/>
      <point x="985.888" y="861.336" type="curve" smooth="yes"/>
      <point x="985.888" y="957.336"/>
      <point x="924.0" y="1050.48"/>
      <point x="704.0" y="1050.48" type="curve" smooth="yes"/>
      <point x="265.896" y="1050.48"/>
      <point x="29.168" y="628.5680000000001"/>
      <point x="29.168" y="308.208" type="curve" smooth="yes"/>
      <point x="29.168" y="113.176"/>
      <point x="136.48" y="-26.48"/>
      <point x="371.11199999999997" y="-26.48" type="curve" smooth="yes"/>
      <point x="450.664" y="-26.48"/>
      <point x="548.304" y="-10.776"/>
      <point x="619.3199999999999" y="37.815999999999995" type="curve"/>
      <point x="613.024" y="45.76" type="line"/>
      <point x="525.256" y="-34.80799999999999" type="line" smooth="yes"/>
      <point x="339.848" y="-216.392"/>
      <point x="310.072" y="-278.704"/>
      <point x="310.072" y="-348.352" type="curve" smooth="yes"/>
      <point x="310.072" y="-413.536"/>
      <point x="346.66400000000004" y="-465.0"/>
      <point x="442.904" y="-465.0" type="curve" smooth="yes"/>
      <point x="512.8480000000001" y="-465.0"/>
      <point x="574.2719999999999" y="-435.47999999999996"/>
      <point x="679.672" y="-312.448" type="curve"/>
      <point x="672.3199999999999" y="-301.504" type="line"/>
      <point x="628.784" y="-334.264"/>
      <point x="594.784" y="-348.616"/>
      <point x="542.472" y="-348.616" type="curve" smooth="yes"/>
      <point x="483.47200000000004" y="-348.616"/>
      <point x="456.00800000000004" y="-320.672"/>
      <point x="456.00800000000004" y="-267.096" type="curve" smooth="yes"/>
      <point x="456.00800000000004" y="-206.96800000000002"/>
      <point x="482.88" y="-129.59199999999998"/>
      <point x="629.08" y="31.872" type="curve" smooth="yes"/>
    </contour>
  </outline>
</glyph>
